Monoto-Regular.ufo
<glyph name="ampersand" format="2">
  <advance width="500"/>
  <unicode hex="0026"/>
  <outline>
    <contour>
      <point x="201" y="-10" type="curve" smooth="yes"/>
      <point x="373" y="-10"/>
      <point x="453" y="186"/>
      <point x="464" y="340" type="curve"/>
      <point x="387" y="340" type="line"/>
      <point x="383" y="234"/>
      <point x="319" y="60"/>
      <point x="207" y="60" type="curve" smooth="yes"/>
      <point x="154" y="60"/>
      <point x="122" y="98"/>
      <point x="122" y="164" type="curve" smooth="yes"/>
      <point x="122" y="251"/>
      <point x="179" y="306"/>
      <point x="232" y="355" type="curve" smooth="yes"/>
      <point x="290" y="409"/>
      <point x="340" y="485"/>
      <point x="340" y="578" type="curve" smooth="yes"/>
      <point x="340" y="666"/>
      <point x="296" y="724"/>
      <point x="219" y="724" type="curve" smooth="yes"/>
      <point x="143" y="724"/>
      <point x="95" y="666"/>
      <point x="95" y="580" type="curve" smooth="yes"/>
      <point x="95" y="505"/>
      <point x="132" y="431"/>
      <point x="178" y="357" type="curve" smooth="yes"/>
      <point x="401" y="0" type="line"/>
      <point x="492" y="0" type="line"/>
      <point x="228" y="414" type="line" smooth="yes"/>
      <point x="203" y="453"/>
      <point x="169" y="517"/>
      <point x="169" y="582" type="curve" smooth="yes"/>
      <point x="169" y="631"/>
      <point x="188" y="658"/>
      <point x="220" y="658" type="curve" smooth="yes"/>
      <point x="251" y="658"/>
      <point x="269" y="634"/>
      <point x="269" y="581" type="curve" smooth="yes"/>
      <point x="269" y="485"/>
      <point x="209" y="431"/>
      <point x="181" y="407" type="curve" smooth="yes"/>
      <point x="105" y="341"/>
      <point x="42" y="272"/>
      <point x="42" y="165" type="curve" smooth="yes"/>
      <point x="42" y="72"/>
      <point x="90" y="-10"/>
    </contour>
  </outline>
</glyph>
<glyph name="parenleft" format="2">
  <advance width="500"/>
  <unicode hex="0028"/>
  <outline>
    <contour>
      <point x="301" y="-164" type="curve"/>
      <point x="371" y="-164" type="line"/>
      <point x="287" y="-40"/>
      <point x="241" y="116"/>
      <point x="241" y="272" type="curve" smooth="yes"/>
      <point x="241" y="430"/>
      <point x="285" y="583"/>
      <point x="372" y="714" type="curve"/>
      <point x="301" y="714" type="line"/>
      <point x="210" y="598"/>
      <point x="159" y="440"/>
      <point x="159" y="271" type="curve" smooth="yes"/>
      <point x="159" y="104"/>
      <point x="207" y="-50"/>
    </contour>
  </outline>
</glyph>
<glyph name="plus" format="2">
  <advance width="500"/>
  <unicode hex="002B"/>
  <outline>
    <contour>
      <point x="216" y="119" type="line"/>
      <point x="285" y="119" type="line"/>
      <point x="285" y="319" type="line"/>
      <point x="434" y="319" type="line"/>
      <point x="434" y="387" type="line"/>
      <point x="285" y="387" type="line"/>
      <point x="285" y="588" type="line"/>
      <point x="216" y="588" type="line"/>
      <point x="216" y="387" type="line"/>
      <point x="66" y="387" type="line"/>
      <point x="66" y="319" type="line"/>
      <point x="216" y="319" type="line"/>
    </contour>
  </outline>
</glyph>
<glyph name="hyphen" format="2">
  <advance width="500"/>
  <unicode hex="002D"/>
  <outline>
    <contour>
      <point x="124" y="232" type="line"/>
      <point x="375" y="232" type="line"/>
      <point x="375" y="310" type="line"/>
      <point x="124" y="310" type="line"/>
    </contour>
  </outline>
</glyph>
<glyph name="period" format="2">
  <advance width="500"/>
  <unicode hex="002E"/>
  <outline>
    <contour>
      <point x="249" y="-12" type="curve" smooth="yes"/>
      <point x="282" y="-12"/>
      <point x="308" y="9"/>
      <point x="308" y="55" type="curve" smooth="yes"/>
      <point x="308" y="102"/>
      <point x="283" y="120"/>
      <point x="249" y="120" type="curve" smooth="yes"/>
      <point x="215" y="120"/>
      <point x="192" y="100"/>
      <point x="192" y="55" type="curve" smooth="yes"/>
      <point x="192" y="10"/>
      <point x="215" y="-12"/>
    </contour>
  </outline>
</glyph>
<glyph name="five" format="2">
  <advance width="500"/>
  <unicode hex="0035"/>
  <outline>
    <contour>
      <point x="211" y="-10" type="curve" smooth="yes"/>
      <point x="353" y="-10"/>
      <point x="435" y="80"/>
      <point x="435" y="229" type="curve" smooth="yes"/>
      <point x="435" y="365"/>
      <point x="355" y="437"/>
      <point x="241" y="437" type="curve" smooth="yes"/>
      <point x="211" y="437"/>
      <point x="185" y="431"/>
      <point x="159" y="427" type="curve"/>
      <point x="174" y="635" type="line"/>
      <point x="393" y="635" type="line"/>
      <point x="393" y="714" type="line"/>
      <point x="99" y="714" type="line"/>
      <point x="76" y="379" type="line"/>
      <point x="116" y="351" type="line"/>
      <point x="140" y="356"/>
      <point x="181" y="364"/>
      <point x="214" y="364" type="curve" smooth="yes"/>
      <point x="297" y="364"/>
      <point x="346" y="313"/>
      <point x="346" y="219" type="curve" smooth="yes"/>
      <point x="346" y="113"/>
      <point x="298" y="64"/>
      <point x="211" y="64" type="curve" smooth="yes"/>
      <point x="162" y="64"/>
      <point x="106" y="81"/>
      <point x="63" y="111" type="curve"/>
      <point x="63" y="29" type="line"/>
      <point x="100" y="3"/>
      <point x="153" y="-10"/>
    </contour>
  </outline>
</glyph>
<glyph name="seven" format="2">
  <advance width="500"/>
  <unicode hex="0037"/>
  <outline>
    <contour>
      <point x="126" y="0" type="line"/>
      <point x="219" y="0" type="line"/>
      <point x="447" y="644" type="line"/>
      <point x="447" y="714" type="line"/>
      <point x="50" y="714" type="line"/>
      <point x="50" y="635" type="line"/>
      <point x="355" y="635" type="line"/>
    </contour>
  </outline>
</glyph>
<glyph name="eight" format="2">
  <advance width="500"/>
  <unicode hex="0038"/>
  <outline>
    <contour>
      <point x="243" y="-10" type="curve" smooth="yes"/>
      <point x="362" y="-10"/>
      <point x="443" y="66"/>
      <point x="443" y="187" type="curve" smooth="yes"/>
      <point x="443" y="281"/>
      <point x="393" y="338"/>
      <point x="316" y="378" type="curve"/>
      <point x="384" y="413"/>
      <point x="424" y="467"/>
      <point x="424" y="551" type="curve" smooth="yes"/>
      <point x="424" y="669"/>
      <point x="344" y="725"/>
      <point x="250" y="725" type="curve" smooth="yes"/>
      <point x="157" y="725"/>
      <point x="74" y="670"/>
      <point x="74" y="550" type="curve" smooth="yes"/>
      <point x="74" y="469"/>
      <point x="112" y="412"/>
      <point x="173" y="374" type="curve"/>
      <point x="98" y="336"/>
      <point x="55" y="279"/>
      <point x="55" y="183" type="curve" smooth="yes"/>
      <point x="55" y="53"/>
      <point x="135" y="-10"/>
    </contour>
    <contour>
      <point x="248" y="63" type="curve" smooth="yes"/>
      <point x="175" y="63"/>
      <point x="139" y="110"/>
      <point x="139" y="183" type="curve" smooth="yes"/>
      <point x="139" y="253"/>
      <point x="173" y="302"/>
      <point x="241" y="341" type="curve"/>
      <point x="332" y="290"/>
      <point x="360" y="254"/>
      <point x="360" y="188" type="curve" smooth="yes"/>
      <point x="360" y="110"/>
      <point x="321" y="63"/>
    </contour>
    <contour>
      <point x="250" y="413" type="curve"/>
      <point x="196" y="445"/>
      <point x="158" y="476"/>
      <point x="158" y="547" type="curve" smooth="yes"/>
      <point x="158" y="617"/>
      <point x="194" y="652"/>
      <point x="249" y="652" type="curve" smooth="yes"/>
      <point x="304" y="652"/>
      <point x="340" y="617"/>
      <point x="340" y="548" type="curve" smooth="yes"/>
      <point x="340" y="482"/>
      <point x="308" y="442"/>
    </contour>
  </outline>
</glyph>
<glyph name="semicolon" format="2">
  <advance width="500"/>
  <unicode hex="003B"/>
  <outline>
    <contour>
      <point x="154" y="-131" type="curve"/>
      <point x="218" y="-131" type="line"/>
      <point x="250" y="-59"/>
      <point x="280" y="27"/>
      <point x="299" y="104" type="curve"/>
      <point x="292" y="115" type="line"/>
      <point x="202" y="115" type="line"/>
      <point x="193" y="44"/>
      <point x="174" y="-52"/>
    </contour>
    <contour>
      <point x="243" y="413" type="curve" smooth="yes"/>
      <point x="276" y="413"/>
      <point x="301" y="433"/>
      <point x="301" y="479" type="curve" smooth="yes"/>
      <point x="301" y="525"/>
      <point x="278" y="545"/>
      <point x="243" y="545" type="curve" smooth="yes"/>
      <point x="208" y="545"/>
      <point x="185" y="525"/>
      <point x="185" y="479" type="curve" smooth="yes"/>
      <point x="185" y="434"/>
      <point x="208" y="413"/>
    </contour>
  </outline>
</glyph>
<glyph name="equal" format="2">
  <advance width="500"/>
  <unicode hex="003D"/>
  <outline>
    <contour>
      <point x="50" y="415" type="line"/>
      <point x="450" y="415" type="line"/>
      <point x="450" y="493" type="line"/>
      <point x="50" y="493" type="line"/>
    </contour>
    <contour>
      <point x="50" y="211" type="line"/>
      <point x="450" y="211" type="line"/>
      <point x="450" y="289" type="line"/>
      <point x="50" y="289" type="line"/>
    </contour>
  </outline>
</glyph>
<glyph name="at" format="2">
  <advance width="500"/>
  <unicode hex="0040"/>
  <outline>
    <contour>
      <point x="271" y="-89" type="curve" smooth="yes"/>
      <point x="328" y="-89"/>
      <point x="374" y="-76"/>
      <point x="422" y="-49" type="curve"/>
      <point x="422" y="5" type="line"/>
      <point x="374" y="-19"/>
      <point x="326" y="-32"/>
      <point x="274" y="-32" type="curve" smooth="yes"/>
      <point x="128" y="-32"/>
      <point x="61" y="87"/>
      <point x="61" y="297" type="curve" smooth="yes"/>
      <point x="61" y="523"/>
      <point x="132" y="658"/>
      <point x="266" y="658" type="curve" smooth="yes"/>
      <point x="381" y="658"/>
      <point x="441" y="542"/>
      <point x="441" y="358" type="curve" smooth="yes"/>
      <point x="441" y="231"/>
      <point x="428" y="161"/>
      <point x="398" y="161" type="curve" smooth="yes"/>
      <point x="377" y="161"/>
      <point x="368" y="193"/>
      <point x="368" y="256" type="curve" smooth="yes"/>
      <point x="368" y="266"/>
      <point x="368" y="281"/>
      <point x="369" y="293" type="curve" smooth="yes"/>
      <point x="378" y="497" type="line"/>
      <point x="357" y="508"/>
      <point x="317" y="520"/>
      <point x="280" y="520" type="curve" smooth="yes"/>
      <point x="183" y="520"/>
      <point x="118" y="431"/>
      <point x="118" y="296" type="curve" smooth="yes"/>
      <point x="118" y="180"/>
      <point x="161" y="108"/>
      <point x="229" y="108" type="curve" smooth="yes"/>
      <point x="272" y="108"/>
      <point x="306" y="137"/>
      <point x="325" y="189" type="curve"/>
      <point x="327" y="188" type="line"/>
      <point x="333" y="140"/>
      <point x="360" y="108"/>
      <point x="396" y="108" type="curve" smooth="yes"/>
      <point x="473" y="108"/>
      <point x="500" y="234"/>
      <point x="500" y="357" type="curve" smooth="yes"/>
      <point x="500" y="576"/>
      <point x="416" y="714"/>
      <point x="267" y="714" type="curve" smooth="yes"/>
      <point x="98" y="714"/>
      <point x="0" y="554"/>
      <point x="0" y="294" type="curve" smooth="yes"/>
      <point x="0" y="53"/>
      <point x="90" y="-89"/>
    </contour>
    <contour>
      <point x="244" y="161" type="curve" smooth="yes"/>
      <point x="207" y="161"/>
      <point x="188" y="208"/>
      <point x="188" y="294" type="curve" smooth="yes"/>
      <point x="188" y="401"/>
      <point x="222" y="467"/>
      <point x="278" y="467" type="curve" smooth="yes"/>
      <point x="289" y="467"/>
      <point x="301" y="464"/>
      <point x="311" y="457" type="curve"/>
      <point x="304" y="323" type="line" smooth="yes"/>
      <point x="298" y="215"/>
      <point x="281" y="161"/>
    </contour>
  </outline>
</glyph>
<glyph name="B" format="2">
  <advance width="500"/>
  <unicode hex="0042"/>
  <anchor x="250" y="0" name="bottom"/>
  <anchor x="250" y="714" name="top"/>
  <anchor x="480" y="714" name="topright"/>
  <outline>
    <contour>
      <point x="65" y="0" type="line"/>
      <point x="242" y="0" type="line" smooth="yes"/>
      <point x="375" y="0"/>
      <point x="455" y="76"/>
      <point x="455" y="205" type="curve" smooth="yes"/>
      <point x="455" y="311"/>
      <point x="401" y="358"/>
      <point x="323" y="374" type="curve"/>
      <point x="323" y="379" type="line"/>
      <point x="396" y="394"/>
      <point x="436" y="452"/>
      <point x="436" y="540" type="curve" smooth="yes"/>
      <point x="436" y="662"/>
      <point x="357" y="714"/>
      <point x="220" y="714" type="curve" smooth="yes"/>
      <point x="65" y="714" type="line"/>
    </contour>
    <contour>
      <point x="145" y="75" type="line"/>
      <point x="145" y="336" type="line"/>
      <point x="221" y="336" type="line" smooth="yes"/>
      <point x="325" y="336"/>
      <point x="368" y="289"/>
      <point x="368" y="207" type="curve" smooth="yes"/>
      <point x="368" y="124"/>
      <point x="325" y="75"/>
      <point x="229" y="75" type="curve" smooth="yes"/>
    </contour>
    <contour>
      <point x="145" y="411" type="line"/>
      <point x="145" y="639" type="line"/>
      <point x="208" y="639" type="line" smooth="yes"/>
      <point x="308" y="639"/>
      <point x="351" y="605"/>
      <point x="351" y="526" type="curve" smooth="yes"/>
      <point x="351" y="450"/>
      <point x="311" y="411"/>
      <point x="215" y="411" type="curve" smooth="yes"/>
    </contour>
  </outline>
</glyph>
<glyph name="D" format="2">
  <advance width="500"/>
  <unicode hex="0044"/>
  <anchor x="219" y="0" name="bottom"/>
  <anchor x="260" y="357" name="center"/>
  <anchor x="234" y="714" name="top"/>
  <anchor x="500" y="714" name="topright"/>
  <outline>
    <contour>
      <point x="45" y="0" type="line"/>
      <point x="219" y="0" type="line" smooth="yes"/>
      <point x="389" y="0"/>
      <point x="475" y="125"/>
      <point x="475" y="366" type="curve" smooth="yes"/>
      <point x="475" y="593"/>
      <point x="387" y="714"/>
      <point x="234" y="714" type="curve" smooth="yes"/>
      <point x="45" y="714" type="line"/>
    </contour>
    <contour>
      <point x="127" y="78" type="line"/>
      <point x="127" y="636" type="line"/>
      <point x="214" y="636" type="line" smooth="yes"/>
      <point x="339" y="636"/>
      <point x="388" y="560"/>
      <point x="388" y="366" type="curve" smooth="yes"/>
      <point x="388" y="176"/>
      <point x="334" y="78"/>
      <point x="216" y="78" type="curve" smooth="yes"/>
    </contour>
  </outline>
</glyph>
<glyph name="J" format="2">
  <advance width="500"/>
  <unicode hex="004A"/>
  <anchor x="250" y="0" name="bottom"/>
  <anchor x="348" y="714" name="top"/>
  <anchor x="480" y="714" name="topright"/>
  <outline>
    <contour>
      <point x="177" y="-10" type="curve" smooth="yes"/>
      <point x="318" y="-10"/>
      <point x="390" y="79"/>
      <point x="390" y="203" type="curve" smooth="yes"/>
      <point x="390" y="714" type="line"/>
      <point x="308" y="714" type="line"/>
      <point x="308" y="218" type="line" smooth="yes"/>
      <point x="308" y="122"/>
      <point x="260" y="65"/>
      <point x="170" y="65" type="curve" smooth="yes"/>
      <point x="132" y="65"/>
      <point x="86" y="76"/>
      <point x="50" y="95" type="curve"/>
      <point x="50" y="19" type="line"/>
      <point x="82" y="1"/>
      <point x="128" y="-10"/>
    </contour>
  </outline>
</glyph>
<glyph name="M" format="2">
  <advance width="500"/>
  <unicode hex="004D"/>
  <anchor x="250" y="0" name="bottom"/>
  <anchor x="254" y="714" name="top"/>
  <anchor x="500" y="714" name="topright"/>
  <outline>
    <contour>
      <point x="30" y="0" type="line"/>
      <point x="108" y="0" type="line"/>
      <point x="108" y="387" type="line" smooth="yes"/>
      <point x="108" y="482"/>
      <point x="100" y="584"/>
      <point x="94" y="645" type="curve"/>
      <point x="99" y="645" type="line"/>
      <point x="205" y="204" type="line"/>
      <point x="289" y="204" type="line"/>
      <point x="398" y="645" type="line"/>
      <point x="403" y="645" type="line"/>
      <point x="397" y="566"/>
      <point x="392" y="473"/>
      <point x="392" y="389" type="curve" smooth="yes"/>
      <point x="392" y="0" type="line"/>
      <point x="470" y="0" type="line"/>
      <point x="470" y="714" type="line"/>
      <point x="348" y="714" type="line"/>
      <point x="250" y="294" type="line"/>
      <point x="247" y="294" type="line"/>
      <point x="150" y="714" type="line"/>
      <point x="30" y="714" type="line"/>
    </contour>
  </outline>
</glyph>
<glyph name="N" format="2">
  <advance width="500"/>
  <unicode hex="004E"/>
  <anchor x="250" y="0" name="bottom"/>
  <anchor x="255" y="714" name="top"/>
  <anchor x="500" y="714" name="topright"/>
  <outline>
    <contour>
      <point x="45" y="0" type="line"/>
      <point x="121" y="0" type="line"/>
      <point x="121" y="436" type="line" smooth="yes"/>
      <point x="121" y="509"/>
      <point x="116" y="568"/>
      <point x="111" y="631" type="curve"/>
      <point x="117" y="631" type="line"/>
      <point x="344" y="0" type="line"/>
      <point x="455" y="0" type="line"/>
      <point x="455" y="714" type="line"/>
      <point x="378" y="714" type="line"/>
      <point x="378" y="256" type="line" smooth="yes"/>
      <point x="378" y="189"/>
      <point x="388" y="109"/>
      <point x="389" y="86" type="curve"/>
      <point x="384" y="86" type="line"/>
      <point x="162" y="714" type="line"/>
      <point x="45" y="714" type="line"/>
    </contour>
  </outline>
</glyph>
<glyph name="R" format="2">
  <advance width="500"/>
  <unicode hex="0052"/>
  <anchor x="262" y="0" name="bottom"/>
  <anchor x="250" y="714" name="top"/>
  <anchor x="480" y="714" name="topright"/>
  <outline>
    <contour>
      <point x="65" y="0" type="line"/>
      <point x="147" y="0" type="line"/>
      <point x="147" y="294" type="line"/>
      <point x="249" y="294" type="line"/>
      <point x="387" y="0" type="line"/>
      <point x="480" y="0" type="line"/>
      <point x="325" y="316" type="line"/>
      <point x="387" y="341"/>
      <point x="436" y="398"/>
      <point x="436" y="511" type="curve" smooth="yes"/>
      <point x="436" y="647"/>
      <point x="362" y="714"/>
      <point x="222" y="714" type="curve" smooth="yes"/>
      <point x="65" y="714" type="line"/>
    </contour>
    <contour>
      <point x="147" y="369" type="line"/>
      <point x="147" y="639" type="line"/>
      <point x="217" y="639" type="line" smooth="yes"/>
      <point x="304" y="639"/>
      <point x="348" y="601"/>
      <point x="348" y="507" type="curve" smooth="yes"/>
      <point x="348" y="417"/>
      <point x="308" y="369"/>
      <point x="221" y="369" type="curve" smooth="yes"/>
    </contour>
  </outline>
</glyph>
<glyph name="S" format="2">
  <advance width="500"/>
  <unicode hex="0053"/>
  <anchor x="250" y="0" name="bottom"/>
  <anchor x="260" y="714" name="top"/>
  <anchor x="480" y="714" name="topright"/>
  <outline>
    <contour>
      <point x="219" y="-10" type="curve" smooth="yes"/>
      <point x="355" y="-10"/>
      <point x="440" y="62"/>
      <point x="440" y="194" type="curve" smooth="yes"/>
      <point x="440" y="311"/>
      <point x="374" y="349"/>
      <point x="281" y="398" type="curve" smooth="yes"/>
      <point x="199" y="441"/>
      <point x="150" y="468"/>
      <point x="150" y="544" type="curve" smooth="yes"/>
      <point x="150" y="608"/>
      <point x="185" y="651"/>
      <point x="267" y="651" type="curve" smooth="yes"/>
      <point x="312" y="651"/>
      <point x="358" y="638"/>
      <point x="400" y="617" type="curve"/>
      <point x="430" y="688" type="line"/>
      <point x="377" y="713"/>
      <point x="321" y="726"/>
      <point x="265" y="726" type="curve" smooth="yes"/>
      <point x="148" y="726"/>
      <point x="66" y="668"/>
      <point x="66" y="540" type="curve" smooth="yes"/>
      <point x="66" y="426"/>
      <point x="138" y="376"/>
      <point x="219" y="334" type="curve" smooth="yes"/>
      <point x="306" y="289"/>
      <point x="355" y="263"/>
      <point x="355" y="188" type="curve" smooth="yes"/>
      <point x="355" y="121"/>
      <point x="316" y="65"/>
      <point x="217" y="65" type="curve" smooth="yes"/>
      <point x="167" y="65"/>
      <point x="110" y="79"/>
      <point x="60" y="101" type="curve"/>
      <point x="60" y="24" type="line"/>
      <point x="102" y="2"/>
      <point x="163" y="-10"/>
    </contour>
  </outline>
</glyph>
<glyph name="T" format="2">
  <advance width="500"/>
  <unicode hex="0054"/>
  <anchor x="250" y="0" name="bottom"/>
  <anchor x="250" y="357" name="center"/>
  <anchor x="250" y="714" name="top"/>
  <anchor x="480" y="714" name="topright"/>
  <outline>
    <contour>
      <point x="207" y="0" type="line"/>
      <point x="291" y="0" type="line"/>
      <point x="291" y="636" type="line"/>
      <point x="465" y="636" type="line"/>
      <point x="465" y="714" type="line"/>
      <point x="35" y="714" type="line"/>
      <point x="35" y="636" type="line"/>
      <point x="207" y="636" type="line"/>
    </contour>
  </outline>
</glyph>
<glyph name="U" format="2">
  <advance width="500"/>
  <unicode hex="0055"/>
  <anchor x="250" y="0" name="bottom"/>
  <anchor x="450" y="10" name="ogonek"/>
  <anchor x="250" y="714" name="top"/>
  <anchor x="480" y="714" name="topright"/>
  <outline>
    <contour>
      <point x="251" y="-10" type="curve" smooth="yes"/>
      <point x="386" y="-10"/>
      <point x="455" y="63"/>
      <point x="455" y="219" type="curve" smooth="yes"/>
      <point x="455" y="714" type="line"/>
      <point x="371" y="714" type="line"/>
      <point x="371" y="223" type="line" smooth="yes"/>
      <point x="371" y="111"/>
      <point x="331" y="65"/>
      <point x="251" y="65" type="curve" smooth="yes"/>
      <point x="172" y="65"/>
      <point x="129" y="110"/>
      <point x="129" y="222" type="curve" smooth="yes"/>
      <point x="129" y="714" type="line"/>
      <point x="45" y="714" type="line"/>
      <point x="45" y="219" type="line" smooth="yes"/>
      <point x="45" y="63"/>
      <point x="115" y="-10"/>
    </contour>
  </outline>
</glyph>
<glyph name="Y" format="2">
  <advance width="500"/>
  <unicode hex="0059"/>
  <anchor x="250" y="0" name="bottom"/>
  <anchor x="250" y="714" name="top"/>
  <anchor x="20" y="714" name="topleft"/>
  <anchor x="480" y="714" name="topright"/>
  <outline>
    <contour>
      <point x="208" y="0" type="line"/>
      <point x="290" y="0" type="line"/>
      <point x="290" y="273" type="line"/>
      <point x="480" y="714" type="line"/>
      <point x="390" y="714" type="line"/>
      <point x="250" y="351" type="line"/>
      <point x="111" y="714" type="line"/>
      <point x="20" y="714" type="line"/>
      <point x="208" y="273" type="line"/>
    </contour>
  </outline>
</glyph>
<glyph name="Z" format="2">
  <advance width="500"/>
  <unicode hex="005A"/>
  <anchor x="271" y="0" name="bottom"/>
  <anchor x="261" y="714" name="top"/>
  <anchor x="480" y="714" name="topright"/>
  <outline>
    <contour>
      <point x="65" y="0" type="line"/>
      <point x="445" y="0" type="line"/>
      <point x="445" y="78" type="line"/>
      <point x="157" y="78" type="line"/>
      <point x="438" y="644" type="line"/>
      <point x="438" y="714" type="line"/>
      <point x="78" y="714" type="line"/>
      <point x="78" y="636" type="line"/>
      <point x="347" y="636" type="line"/>
      <point x="65" y="70" type="line"/>
    </contour>
  </outline>
</glyph>
<glyph name="b" format="2">
  <advance width="500"/>
  <unicode hex="0062"/>
  <anchor x="250" y="0" name="bottom"/>
  <anchor x="250" y="760" name="top"/>
  <anchor x="480" y="760" name="topright"/>
  <outline>
    <contour>
      <point x="282" y="-10" type="curve" smooth="yes"/>
      <point x="393" y="-10"/>
      <point x="460" y="86"/>
      <point x="460" y="269" type="curve" smooth="yes"/>
      <point x="460" y="451"/>
      <point x="394" y="547"/>
      <point x="283" y="547" type="curve" smooth="yes"/>
      <point x="216" y="547"/>
      <point x="173" y="512"/>
      <point x="142" y="465" type="curve"/>
      <point x="139" y="465" type="line"/>
      <point x="142" y="502"/>
      <point x="142" y="539"/>
      <point x="142" y="576" type="curve" smooth="yes"/>
      <point x="142" y="760" type="line"/>
      <point x="60" y="760" type="line"/>
      <point x="60" y="0" type="line"/>
      <point x="120" y="0" type="line"/>
      <point x="136" y="68" type="line"/>
      <point x="142" y="68" type="line"/>
      <point x="177" y="20"/>
      <point x="220" y="-10"/>
    </contour>
    <contour>
      <point x="258" y="63" type="curve" smooth="yes"/>
      <point x="183" y="63"/>
      <point x="142" y="131"/>
      <point x="142" y="274" type="curve" smooth="yes"/>
      <point x="142" y="409"/>
      <point x="182" y="474"/>
      <point x="256" y="474" type="curve" smooth="yes"/>
      <point x="331" y="474"/>
      <point x="374" y="406"/>
      <point x="374" y="267" type="curve" smooth="yes"/>
      <point x="374" y="135"/>
      <point x="335" y="63"/>
    </contour>
  </outline>
</glyph>
<glyph name="e" format="2">
  <advance width="500"/>
  <unicode hex="0065"/>
  <anchor x="260" y="0" name="bottom"/>
  <anchor x="269" y="10" name="ogonek"/>
  <anchor x="254" y="536" name="top"/>
  <anchor x="480" y="536" name="topright"/>
  <outline>
    <contour>
      <point x="285" y="-10" type="curve" smooth="yes"/>
      <point x="342" y="-10"/>
      <point x="386" y="2"/>
      <point x="434" y="27" type="curve"/>
      <point x="434" y="104" type="line"/>
      <point x="384" y="79"/>
      <point x="341" y="63"/>
      <point x="287" y="63" type="curve" smooth="yes"/>
      <point x="184" y="63"/>
      <point x="133" y="125"/>
      <point x="130" y="249" type="curve"/>
      <point x="455" y="249" type="line"/>
      <point x="455" y="304" type="line" smooth="yes"/>
      <point x="455" y="447"/>
      <point x="383" y="547"/>
      <point x="255" y="547" type="curve" smooth="yes"/>
      <point x="124" y="547"/>
      <point x="45" y="441"/>
      <point x="45" y="264" type="curve" smooth="yes"/>
      <point x="45" y="88"/>
      <point x="137" y="-10"/>
    </contour>
    <contour>
      <point x="132" y="320" type="line"/>
      <point x="138" y="418"/>
      <point x="183" y="474"/>
      <point x="254" y="474" type="curve" smooth="yes"/>
      <point x="331" y="474"/>
      <point x="372" y="410"/>
      <point x="373" y="320" type="curve"/>
    </contour>
  </outline>
</glyph>
<glyph name="j" format="2">
  <advance width="500"/>
  <unicode hex="006A"/>
  <anchor x="178" y="-245" name="bottom"/>
  <anchor x="286" y="765" name="top"/>
  <anchor x="480" y="765" name="topright"/>
  <outline>
    <contour>
      <point x="160" y="-245" type="curve" smooth="yes"/>
      <point x="273" y="-245"/>
      <point x="337" y="-186"/>
      <point x="337" y="-62" type="curve" smooth="yes"/>
      <point x="337" y="536" type="line"/>
      <point x="82" y="536" type="line"/>
      <point x="82" y="477" type="line"/>
      <point x="255" y="463" type="line"/>
      <point x="255" y="-68" type="line" smooth="yes"/>
      <point x="255" y="-136"/>
      <point x="219" y="-172"/>
      <point x="155" y="-172" type="curve" smooth="yes"/>
      <point x="123" y="-172"/>
      <point x="77" y="-163"/>
      <point x="45" y="-153" type="curve"/>
      <point x="45" y="-228" type="line"/>
      <point x="77" y="-238"/>
      <point x="120" y="-245"/>
    </contour>
    <contour>
      <point x="286" y="633" type="curve" smooth="yes"/>
      <point x="320" y="633"/>
      <point x="343" y="654"/>
      <point x="343" y="698" type="curve" smooth="yes"/>
      <point x="343" y="744"/>
      <point x="320" y="765"/>
      <point x="286" y="765" type="curve" smooth="yes"/>
      <point x="252" y="765"/>
      <point x="230" y="744"/>
      <point x="230" y="698" type="curve" smooth="yes"/>
      <point x="230" y="655"/>
      <point x="251" y="633"/>
    </contour>
  </outline>
</glyph>
<glyph name="l" format="2">
  <advance width="500"/>
  <unicode hex="006C"/>
  <anchor x="252" y="0" name="bottom"/>
  <anchor x="252" y="370" name="center"/>
  <anchor x="250" y="760" name="top"/>
  <anchor x="411" y="760" name="topright"/>
  <outline>
    <contour>
      <point x="75" y="0" type="line"/>
      <point x="425" y="0" type="line"/>
      <point x="425" y="59" type="line"/>
      <point x="292" y="69" type="line"/>
      <point x="292" y="760" type="line"/>
      <point x="78" y="760" type="line"/>
      <point x="78" y="701" type="line"/>
      <point x="210" y="691" type="line"/>
      <point x="210" y="69" type="line"/>
      <point x="75" y="59" type="line"/>
    </contour>
  </outline>
</glyph>
<glyph name="t" format="2">
  <advance width="500"/>
  <unicode hex="0074"/>
  <anchor x="323" y="0" name="bottom"/>
  <anchor x="229" y="290" name="center"/>
  <anchor x="244" y="679" name="top"/>
  <anchor x="480" y="679" name="topright"/>
  <outline>
    <contour>
      <point x="342" y="-10" type="curve" smooth="yes"/>
      <point x="375" y="-10"/>
      <point x="412" y="-5"/>
      <point x="442" y="4" type="curve"/>
      <point x="442" y="77" type="line"/>
      <point x="409" y="67"/>
      <point x="379" y="63"/>
      <point x="357" y="63" type="curve" smooth="yes"/>
      <point x="296" y="63"/>
      <point x="267" y="92"/>
      <point x="267" y="157" type="curve" smooth="yes"/>
      <point x="267" y="464" type="line"/>
      <point x="445" y="464" type="line"/>
      <point x="445" y="536" type="line"/>
      <point x="269" y="536" type="line"/>
      <point x="269" y="679" type="line"/>
      <point x="216" y="679" type="line"/>
      <point x="188" y="539" type="line"/>
      <point x="50" y="515" type="line"/>
      <point x="50" y="464" type="line"/>
      <point x="185" y="464" type="line"/>
      <point x="185" y="143" type="line" smooth="yes"/>
      <point x="185" y="27"/>
      <point x="251" y="-10"/>
    </contour>
  </outline>
</glyph>
<glyph name="w" format="2">
  <advance width="500"/>
  <unicode hex="0077"/>
  <anchor x="252" y="0" name="bottom"/>
  <anchor x="252" y="536" name="top"/>
  <anchor x="480" y="536" name="topright"/>
  <outline>
    <contour>
      <point x="79" y="0" type="line"/>
      <point x="181" y="0" type="line"/>
      <point x="220" y="201" type="line" smooth="yes"/>
      <point x="230" y="255"/>
      <point x="240" y="315"/>
      <point x="247" y="369" type="curve"/>
      <point x="250" y="369" type="line"/>
      <point x="256" y="315"/>
      <point x="267" y="257"/>
      <point x="277" y="203" type="curve" smooth="yes"/>
      <point x="315" y="0" type="line"/>
      <point x="418" y="0" type="line"/>
      <point x="490" y="536" type="line"/>
      <point x="418" y="536" type="line"/>
      <point x="385" y="261" type="line" smooth="yes"/>
      <point x="378" y="200"/>
      <point x="372" y="102"/>
      <point x="368" y="69" type="curve"/>
      <point x="366" y="69" type="line"/>
      <point x="360" y="107"/>
      <point x="346" y="201"/>
      <point x="337" y="244" type="curve" smooth="yes"/>
      <point x="294" y="446" type="line"/>
      <point x="204" y="446" type="line"/>
      <point x="160" y="244" type="line" smooth="yes"/>
      <point x="151" y="202"/>
      <point x="137" y="108"/>
      <point x="133" y="69" type="curve"/>
      <point x="131" y="69" type="line"/>
      <point x="128" y="107"/>
      <point x="123" y="203"/>
      <point x="116" y="261" type="curve" smooth="yes"/>
      <point x="84" y="536" type="line"/>
      <point x="10" y="536" type="line"/>
    </contour>
  </outline>
</glyph>
<glyph name="cent" format="2">
  <advance width="500"/>
  <unicode hex="00A2"/>
  <outline>
    <contour>
      <point x="268" y="-10" type="line"/>
      <point x="321" y="-10" type="line"/>
      <point x="321" y="89" type="line"/>
      <point x="357" y="93"/>
      <point x="390" y="102"/>
      <point x="411" y="115" type="curve"/>
      <point x="411" y="185" type="line"/>
      <point x="380" y="169"/>
      <point x="341" y="159"/>
      <point x="310" y="159" type="curve" smooth="yes"/>
      <point x="211" y="159"/>
      <point x="165" y="224"/>
      <point x="165" y="364" type="curve" smooth="yes"/>
      <point x="165" y="503"/>
      <point x="210" y="573"/>
      <point x="311" y="573" type="curve" smooth="yes"/>
      <point x="334" y="573"/>
      <point x="363" y="567"/>
      <point x="392" y="553" type="curve"/>
      <point x="417" y="619" type="line"/>
      <point x="393" y="633"/>
      <point x="358" y="641"/>
      <point x="321" y="644" type="curve"/>
      <point x="321" y="724" type="line"/>
      <point x="268" y="724" type="line"/>
      <point x="268" y="641" type="line"/>
      <point x="145" y="624"/>
      <point x="84" y="524"/>
      <point x="84" y="363" type="curve" smooth="yes"/>
      <point x="84" y="202"/>
      <point x="142" y="104"/>
      <point x="268" y="90" type="curve"/>
    </contour>
  </outline>
</glyph>
<glyph name="yen" format="2">
  <advance width="500"/>
  <unicode hex="00A5"/>
  <outline>
    <contour>
      <point x="208" y="0" type="line"/>
      <point x="292" y="0" type="line"/>
      <point x="292" y="130" type="line"/>
      <point x="405" y="130" type="line"/>
      <point x="405" y="189" type="line"/>
      <point x="292" y="189" type="line"/>
      <point x="292" y="275" type="line"/>
      <point x="405" y="275" type="line"/>
      <point x="405" y="334" type="line"/>
      <point x="308" y="334" type="line"/>
      <point x="442" y="714" type="line"/>
      <point x="356" y="714" type="line"/>
      <point x="251" y="378" type="line"/>
      <point x="143" y="714" type="line"/>
      <point x="58" y="714" type="line"/>
      <point x="191" y="334" type="line"/>
      <point x="97" y="334" type="line"/>
      <point x="97" y="275" type="line"/>
      <point x="208" y="275" type="line"/>
      <point x="208" y="189" type="line"/>
      <point x="97" y="189" type="line"/>
      <point x="97" y="130" type="line"/>
      <point x="208" y="130" type="line"/>
    </contour>
  </outline>
</glyph>
<glyph name="brokenbar" format="2">
  <advance width="500"/>
  <unicode hex="00A6"/>
  <outline>
    <contour>
      <point x="212" y="368" type="line"/>
      <point x="287" y="368" type="line"/>
      <point x="287" y="759" type="line"/>
      <point x="212" y="759" type="line"/>
    </contour>
    <contour>
      <point x="212" y="-237" type="line"/>
      <point x="287" y="-237" type="line"/>
      <point x="287" y="155" type="line"/>
      <point x="212" y="155" type="line"/>
    </contour>
  </outline>
</glyph>
<glyph name="copyright" format="2">
  <advance width="500"/>
  <unicode hex="00A9"/>
  <outline>
    <contour>
      <point x="250" y="131" type="curve"/>
      <point x="387" y="131"/>
      <point x="479" y="223"/>
      <point x="479" y="360" type="curve" smooth="yes"/>
      <point x="479" y="495"/>
      <point x="392" y="588"/>
      <point x="251" y="588" type="curve" smooth="yes"/>
      <point x="111" y="588"/>
      <point x="21" y="495"/>
      <point x="21" y="359" type="curve" smooth="yes"/>
      <point x="21" y="225"/>
      <point x="107" y="131"/>
    </contour>
    <contour>
      <point x="260" y="216" type="curve" smooth="yes"/>
      <point x="286" y="216"/>
      <point x="307" y="222"/>
      <point x="327" y="230" type="curve"/>
      <point x="327" y="274" type="line"/>
      <point x="305" y="266"/>
      <point x="280" y="260"/>
      <point x="260" y="260" type="curve" smooth="yes"/>
      <point x="208" y="260"/>
      <point x="184" y="295"/>
      <point x="184" y="356" type="curve" smooth="yes"/>
      <point x="184" y="422"/>
      <point x="212" y="456"/>
      <point x="261" y="456" type="curve" smooth="yes"/>
      <point x="279" y="456"/>
      <point x="299" y="452"/>
      <point x="319" y="441" type="curve"/>
      <point x="338" y="483" type="line"/>
      <point x="315" y="495"/>
      <point x="287" y="502"/>
      <point x="260" y="502" type="curve" smooth="yes"/>
      <point x="178" y="502"/>
      <point x="133" y="442"/>
      <point x="133" y="356" type="curve" smooth="yes"/>
      <point x="133" y="274"/>
      <point x="174" y="216"/>
    </contour>
    <contour>
      <point x="250" y="173" type="curve"/>
      <point x="140" y="173"/>
      <point x="67" y="247"/>
      <point x="67" y="360" type="curve" smooth="yes"/>
      <point x="67" y="475"/>
      <point x="141" y="545"/>
      <point x="249" y="545" type="curve" smooth="yes"/>
      <point x="359" y="545"/>
      <point x="432" y="472"/>
      <point x="432" y="358" type="curve" smooth="yes"/>
      <point x="432" y="242"/>
      <point x="358" y="173"/>
    </contour>
  </outline>
</glyph>
<glyph name="guillemotleft" format="2">
  <advance width="500"/>
  <unicode hex="00AB"/>
  <outline>
    <contour>
      <point x="389" y="63" type="line"/>
      <point x="445" y="94" type="line"/>
      <point x="340" y="264" type="line"/>
      <point x="445" y="436" type="line"/>
      <point x="389" y="465" type="line"/>
      <point x="244" y="271" type="line"/>
      <point x="244" y="257" type="line"/>
    </contour>
    <contour>
      <point x="199" y="63" type="line"/>
      <point x="256" y="94" type="line"/>
      <point x="150" y="264" type="line"/>
      <point x="256" y="436" type="line"/>
      <point x="199" y="465" type="line"/>
      <point x="55" y="271" type="line"/>
      <point x="55" y="257" type="line"/>
    </contour>
  </outline>
</glyph>
<glyph name="logicalnot" format="2">
  <advance width="500"/>
  <unicode hex="00AC"/>
  <outline>
    <contour>
      <point x="362" y="120" type="line"/>
      <point x="431" y="120" type="line"/>
      <point x="431" y="387" type="line"/>
      <point x="70" y="387" type="line"/>
      <point x="70" y="319" type="line"/>
      <point x="362" y="319" type="line"/>
    </contour>
  </outline>
</glyph>
<glyph name="paragraph" format="2">
  <advance width="500"/>
  <unicode hex="00B6"/>
  <outline>
    <contour>
      <point x="219" y="-127" type="line"/>
      <point x="277" y="-127" type="line"/>
      <point x="277" y="703" type="line"/>
      <point x="343" y="703" type="line"/>
      <point x="343" y="-127" type="line"/>
      <point x="401" y="-127" type="line"/>
      <point x="401" y="760" type="line"/>
      <point x="202" y="760" type="line" smooth="yes"/>
      <point x="103" y="760"/>
      <point x="61" y="675"/>
      <point x="61" y="509" type="curve" smooth="yes"/>
      <point x="61" y="344"/>
      <point x="99" y="264"/>
      <point x="181" y="264" type="curve" smooth="yes"/>
      <point x="196" y="264"/>
      <point x="208" y="267"/>
      <point x="219" y="273" type="curve"/>
    </contour>
  </outline>
</glyph>
<glyph name="AE" format="2">
  <advance width="500"/>
  <unicode hex="00C6"/>
  <anchor x="250" y="0" name="bottom"/>
  <anchor x="292" y="714" name="top"/>
  <outline>
    <contour>
      <point x="20" y="0" type="line"/>
      <point x="99" y="0" type="line"/>
      <point x="223" y="634" type="line"/>
      <point x="242" y="634" type="line"/>
      <point x="242" y="0" type="line"/>
      <point x="475" y="0" type="line"/>
      <point x="475" y="80" type="line"/>
      <point x="319" y="80" type="line"/>
      <point x="319" y="332" type="line"/>
      <point x="460" y="332" type="line"/>
      <point x="460" y="412" type="line"/>
      <point x="319" y="412" type="line"/>
      <point x="319" y="634" type="line"/>
      <point x="475" y="634" type="line"/>
      <point x="475" y="714" type="line"/>
      <point x="165" y="714" type="line"/>
    </contour>
    <contour>
      <point x="126" y="227" type="line"/>
      <point x="263" y="227" type="line"/>
      <point x="263" y="304" type="line"/>
      <point x="142" y="304" type="line"/>
    </contour>
  </outline>
</glyph>
<glyph name="multiply" format="2">
  <advance width="500"/>
  <unicode hex="00D7"/>
  <outline>
    <contour>
      <point x="113" y="170" type="line"/>
      <point x="249" y="306" type="line"/>
      <point x="385" y="171" type="line"/>
      <point x="431" y="217" type="line"/>
      <point x="297" y="353" type="line"/>
      <point x="434" y="491" type="line"/>
      <point x="386" y="537" type="line"/>
      <point x="249" y="400" type="line"/>
      <point x="113" y="535" type="line"/>
      <point x="67" y="488" type="line"/>
      <point x="202" y="353" type="line"/>
      <point x="67" y="217" type="line"/>
    </contour>
  </outline>
</glyph>
<glyph name="ae" format="2">
  <advance width="500"/>
  <unicode hex="00E6"/>
  <anchor x="250" y="0" name="bottom"/>
  <anchor x="250" y="536" name="top"/>
  <outline>
    <contour>
      <point x="131" y="-10" type="curve" smooth="yes"/>
      <point x="186" y="-10"/>
      <point x="223" y="19"/>
      <point x="246" y="103" type="curve"/>
      <point x="272" y="18"/>
      <point x="319" y="-10"/>
      <point x="376" y="-10" type="curve" smooth="yes"/>
      <point x="410" y="-10"/>
      <point x="440" y="-1"/>
      <point x="471" y="26" type="curve"/>
      <point x="471" y="104" type="line"/>
      <point x="441" y="74"/>
      <point x="414" y="63"/>
      <point x="385" y="63" type="curve" smooth="yes"/>
      <point x="327" y="63"/>
      <point x="287" y="105"/>
      <point x="285" y="252" type="curve"/>
      <point x="485" y="252" type="line"/>
      <point x="485" y="306" type="line" smooth="yes"/>
      <point x="485" y="459"/>
      <point x="440" y="546"/>
      <point x="358" y="546" type="curve" smooth="yes"/>
      <point x="309" y="546"/>
      <point x="276" y="514"/>
      <point x="258" y="463" type="curve"/>
      <point x="237" y="523"/>
      <point x="198" y="546"/>
      <point x="150" y="546" type="curve" smooth="yes"/>
      <point x="104" y="546"/>
      <point x="60" y="525"/>
      <point x="31" y="499" type="curve"/>
      <point x="59" y="437" type="line"/>
      <point x="80" y="459"/>
      <point x="111" y="473"/>
      <point x="140" y="473" type="curve" smooth="yes"/>
      <point x="184" y="473"/>
      <point x="204" y="443"/>
      <point x="204" y="357" type="curve" smooth="yes"/>
      <point x="204" y="323" type="line"/>
      <point x="151" y="320" type="line" smooth="yes"/>
      <point x="64" y="315"/>
      <point x="15" y="257"/>
      <point x="15" y="147" type="curve" smooth="yes"/>
      <point x="15" y="44"/>
      <point x="58" y="-10"/>
    </contour>
    <contour>
      <point x="142" y="63" type="curve" smooth="yes"/>
      <point x="113" y="63"/>
      <point x="89" y="88"/>
      <point x="89" y="148" type="curve" smooth="yes"/>
      <point x="89" y="222"/>
      <point x="123" y="253"/>
      <point x="173" y="256" type="curve" smooth="yes"/>
      <point x="204" y="258" type="line"/>
      <point x="204" y="214" type="line" smooth="yes"/>
      <point x="204" y="102"/>
      <point x="178" y="63"/>
    </contour>
    <contour>
      <point x="287" y="323" type="line"/>
      <point x="290" y="423"/>
      <point x="312" y="473"/>
      <point x="353" y="473" type="curve" smooth="yes"/>
      <point x="393" y="473"/>
      <point x="413" y="423"/>
      <point x="413" y="323" type="curve"/>
    </contour>
  </outline>
</glyph>
<glyph name="divide" format="2">
  <advance width="500"/>
  <unicode hex="00F7"/>
  <outline>
    <contour>
      <point x="66" y="319" type="line"/>
      <point x="434" y="319" type="line"/>
      <point x="434" y="387" type="line"/>
      <point x="66" y="387" type="line"/>
    </contour>
    <contour>
      <point x="252" y="112" type="curve" smooth="yes"/>
      <point x="281" y="112"/>
      <point x="301" y="132"/>
      <point x="301" y="174" type="curve" smooth="yes"/>
      <point x="301" y="215"/>
      <point x="284" y="236"/>
      <point x="252" y="236" type="curve" smooth="yes"/>
      <point x="218" y="236"/>
      <point x="201" y="215"/>
      <point x="201" y="174" type="curve" smooth="yes"/>
      <point x="201" y="133"/>
      <point x="219" y="112"/>
    </contour>
    <contour>
      <point x="252" y="469" type="curve" smooth="yes"/>
      <point x="281" y="469"/>
      <point x="301" y="489"/>
      <point x="301" y="531" type="curve" smooth="yes"/>
      <point x="301" y="572"/>
      <point x="284" y="593"/>
      <point x="252" y="593" type="curve" smooth="yes"/>
      <point x="218" y="593"/>
      <point x="201" y="572"/>
      <point x="201" y="531" type="curve" smooth="yes"/>
      <point x="201" y="490"/>
      <point x="219" y="469"/>
    </contour>
  </outline>
</glyph>
<glyph name="eogonek" format="2">
  <advance width="500"/>
  <unicode hex="0119"/>
  <anchor x="260" y="-224" name="bottom"/>
  <anchor x="250" y="536" name="top"/>
  <anchor x="269" y="10" name="ogonek"/>
  <anchor x="480" y="536" name="topright"/>
  <outline>
    <contour>
      <point x="399" y="-224" type="curve" smooth="yes"/>
      <point x="416" y="-224"/>
      <point x="433" y="-221"/>
      <point x="444" y="-216" type="curve"/>
      <point x="444" y="-160" type="line"/>
      <point x="437" y="-163"/>
      <point x="426" y="-166"/>
      <point x="415" y="-166" type="curve" smooth="yes"/>
      <point x="383" y="-166"/>
      <point x="368" y="-142"/>
      <point x="368" y="-106" type="curve" smooth="yes"/>
      <point x="368" y="-64"/>
      <point x="389" y="-11"/>
      <point x="434" y="27" type="curve"/>
      <point x="388" y="39" type="line"/>
      <point x="338" y="3"/>
      <point x="301" y="-49"/>
      <point x="301" y="-116" type="curve" smooth="yes"/>
      <point x="301" y="-179"/>
      <point x="333" y="-224"/>
    </contour>
    <component base="e"/>
  </outline>
</glyph>
<glyph name="Hbar" format="2">
  <advance width="500"/>
  <unicode hex="0126"/>
  <anchor x="250" y="0" name="bottom"/>
  <anchor x="250" y="357" name="center"/>
  <anchor x="250" y="714" name="top"/>
  <anchor x="20" y="714" name="topleft"/>
  <outline>
    <contour>
      <point x="0" y="527" type="line"/>
      <point x="500" y="527" type="line"/>
      <point x="500" y="595" type="line"/>
      <point x="0" y="595" type="line"/>
    </contour>
    <contour>
      <point x="45" y="0" type="line"/>
      <point x="129" y="0" type="line"/>
      <point x="129" y="330" type="line"/>
      <point x="371" y="330" type="line"/>
      <point x="371" y="0" type="line"/>
      <point x="455" y="0" type="line"/>
      <point x="455" y="714" type="line"/>
      <point x="371" y="714" type="line"/>
      <point x="371" y="408" type="line"/>
      <point x="129" y="408" type="line"/>
      <point x="129" y="714" type="line"/>
      <point x="45" y="714" type="line"/>
    </contour>
  </outline>
</glyph>
<glyph name="idotless" format="2">
  <advance width="500"/>
  <unicode hex="0131"/>
  <anchor x="250" y="0" name="bottom"/>
  <anchor x="450" y="10" name="ogonek"/>
  <anchor x="250" y="536" name="top"/>
  <outline>
    <contour>
      <point x="75" y="0" type="line"/>
      <point x="425" y="0" type="line"/>
      <point x="425" y="59" type="line"/>
      <point x="298" y="69" type="line"/>
      <point x="298" y="536" type="line"/>
      <point x="80" y="536" type="line"/>
      <point x="80" y="477" type="line"/>
      <point x="216" y="463" type="line"/>
      <point x="216" y="69" type="line"/>
      <point x="75" y="59" type="line"/>
    </contour>
  </outline>
</glyph>
<glyph name="IJ" format="2">
  <advance width="500"/>
  <unicode hex="0132"/>
  <anchor x="250" y="0" name="bottom"/>
  <anchor x="0" y="0" name="caret_1"/>
  <anchor x="250" y="714" name="top"/>
  <anchor x="20" y="714" name="topleft"/>
  <outline>
    <contour>
      <point x="236" y="-10" type="curve" smooth="yes"/>
      <point x="352" y="-10"/>
      <point x="415" y="68"/>
      <point x="415" y="207" type="curve" smooth="yes"/>
      <point x="415" y="714" type="line"/>
      <point x="331" y="714" type="line"/>
      <point x="331" y="219" type="line" smooth="yes"/>
      <point x="331" y="110"/>
      <point x="290" y="69"/>
      <point x="226" y="69" type="curve" smooth="yes"/>
      <point x="174" y="69"/>
      <point x="116" y="90"/>
      <point x="97" y="100" type="curve"/>
      <point x="97" y="19" type="line"/>
      <point x="125" y="2"/>
      <point x="187" y="-10"/>
    </contour>
    <contour>
      <point x="95" y="180" type="line"/>
      <point x="179" y="180" type="line"/>
      <point x="179" y="714" type="line"/>
      <point x="95" y="714" type="line"/>
    </contour>
  </outline>
</glyph>
<glyph name="eng" format="2">
  <advance width="500"/>
  <unicode hex="014B"/>
  <anchor x="256" y="-240" name="bottom"/>
  <anchor x="261" y="536" name="top"/>
  <anchor x="480" y="536" name="topright"/>
  <outline>
    <contour>
      <point x="321" y="-240" type="curve" smooth="yes"/>
      <point x="408" y="-240"/>
      <point x="445" y="-180"/>
      <point x="445" y="-81" type="curve" smooth="yes"/>
      <point x="445" y="260" type="line"/>
      <point x="363" y="256" type="line"/>
      <point x="363" y="-83" type="line" smooth="yes"/>
      <point x="363" y="-144"/>
      <point x="342" y="-167"/>
      <point x="309" y="-167" type="curve" smooth="yes"/>
      <point x="291" y="-167"/>
      <point x="276" y="-164"/>
      <point x="261" y="-158" type="curve"/>
      <point x="261" y="-230" type="line"/>
      <point x="277" y="-236"/>
      <point x="296" y="-240"/>
    </contour>
    <component base="n"/>
  </outline>
</glyph>
<glyph name="uni0181" format="2">
  <advance width="500"/>
  <unicode hex="0181"/>
  <anchor x="260" y="0" name="bottom"/>
  <anchor x="260" y="714" name="top"/>
  <outline>
    <contour>
      <point x="115" y="0" type="line"/>
      <point x="262" y="0" type="line" smooth="yes"/>
      <point x="395" y="0"/>
      <point x="475" y="76"/>
      <point x="475" y="205" type="curve" smooth="yes"/>
      <point x="475" y="311"/>
      <point x="421" y="358"/>
      <point x="343" y="374" type="curve"/>
      <point x="343" y="379" type="line"/>
      <point x="416" y="394"/>
      <point x="456" y="452"/>
      <point x="456" y="540" type="curve" smooth="yes"/>
      <point x="456" y="662"/>
      <point x="377" y="714"/>
      <point x="240" y="714" type="curve" smooth="yes"/>
      <point x="115" y="714" type="line"/>
    </contour>
    <contour>
      <point x="195" y="75" type="line"/>
      <point x="195" y="336" type="line"/>
      <point x="241" y="336" type="line" smooth="yes"/>
      <point x="345" y="336"/>
      <point x="388" y="289"/>
      <point x="388" y="207" type="curve" smooth="yes"/>
      <point x="388" y="124"/>
      <point x="345" y="75"/>
      <point x="249" y="75" type="curve" smooth="yes"/>
    </contour>
    <contour>
      <point x="16" y="519" type="curve"/>
      <point x="87" y="519" type="line"/>
      <point x="84" y="528"/>
      <point x="80" y="551"/>
      <point x="80" y="581" type="curve" smooth="yes"/>
      <point x="80" y="621"/>
      <point x="90" y="640"/>
      <point x="121" y="640" type="curve" smooth="yes"/>
      <point x="139" y="640" type="line"/>
      <point x="139" y="714" type="line"/>
      <point x="129" y="714" type="line" smooth="yes"/>
      <point x="39" y="714"/>
      <point x="8" y="663"/>
      <point x="8" y="586" type="curve" smooth="yes"/>
      <point x="8" y="555"/>
      <point x="12" y="531"/>
    </contour>
    <contour>
      <point x="195" y="411" type="line"/>
      <point x="195" y="639" type="line"/>
      <point x="228" y="639" type="line" smooth="yes"/>
      <point x="328" y="639"/>
      <point x="371" y="605"/>
      <point x="371" y="526" type="curve" smooth="yes"/>
      <point x="371" y="450"/>
      <point x="331" y="411"/>
      <point x="235" y="411" type="curve" smooth="yes"/>
    </contour>
  </outline>
</glyph>
<glyph name="uni0183" format="2">
  <advance width="500"/>
  <unicode hex="0183"/>
  <anchor x="250" y="0" name="bottom"/>
  <anchor x="250" y="760" name="top"/>
  <anchor x="480" y="760" name="topright"/>
  <outline>
    <contour>
      <point x="106" y="691" type="line"/>
      <point x="389" y="691" type="line"/>
      <point x="389" y="760" type="line"/>
      <point x="106" y="760" type="line"/>
    </contour>
    <component base="b"/>
  </outline>
</glyph>
<glyph name="uni0184" format="2">
  <advance width="500"/>
  <unicode hex="0184"/>
  <anchor x="250" y="0" name="bottom"/>
  <anchor x="250" y="760" name="top"/>
  <outline>
    <contour>
      <point x="258" y="-8" type="curve" smooth="yes"/>
      <point x="382" y="-8"/>
      <point x="455" y="74"/>
      <point x="455" y="210" type="curve" smooth="yes"/>
      <point x="455" y="339"/>
      <point x="390" y="416"/>
      <point x="238" y="416" type="curve" smooth="yes"/>
      <point x="149" y="416" type="line"/>
      <point x="149" y="714" type="line"/>
      <point x="65" y="714" type="line"/>
      <point x="65" y="203" type="line" smooth="yes"/>
      <point x="65" y="56"/>
      <point x="133" y="-8"/>
    </contour>
    <contour>
      <point x="259" y="71" type="curve" smooth="yes"/>
      <point x="190" y="71"/>
      <point x="149" y="106"/>
      <point x="149" y="211" type="curve" smooth="yes"/>
      <point x="149" y="342" type="line"/>
      <point x="228" y="342" type="line" smooth="yes"/>
      <point x="327" y="342"/>
      <point x="370" y="303"/>
      <point x="370" y="210" type="curve" smooth="yes"/>
      <point x="370" y="112"/>
      <point x="330" y="71"/>
    </contour>
  </outline>
</glyph>
<glyph name="uni0185" format="2">
  <advance width="500"/>
  <unicode hex="0185"/>
  <anchor x="250" y="0" name="bottom"/>
  <anchor x="250" y="760" name="top"/>
  <outline>
    <contour>
      <point x="258" y="-10" type="curve" smooth="yes"/>
      <point x="389" y="-10"/>
      <point x="460" y="90"/>
      <point x="460" y="269" type="curve" smooth="yes"/>
      <point x="460" y="451"/>
      <point x="394" y="547"/>
      <point x="283" y="547" type="curve" smooth="yes"/>
      <point x="216" y="547"/>
      <point x="168" y="513"/>
      <point x="142" y="465" type="curve"/>
      <point x="139" y="465" type="line"/>
      <point x="142" y="502"/>
      <point x="142" y="539"/>
      <point x="142" y="576" type="curve" smooth="yes"/>
      <point x="142" y="760" type="line"/>
      <point x="60" y="760" type="line"/>
      <point x="60" y="262" type="line" smooth="yes"/>
      <point x="60" y="54"/>
      <point x="132" y="-10"/>
    </contour>
    <contour>
      <point x="258" y="63" type="curve" smooth="yes"/>
      <point x="187" y="63"/>
      <point x="142" y="100"/>
      <point x="142" y="261" type="curve" smooth="yes"/>
      <point x="142" y="274" type="line" smooth="yes"/>
      <point x="142" y="411"/>
      <point x="188" y="474"/>
      <point x="262" y="474" type="curve" smooth="yes"/>
      <point x="337" y="474"/>
      <point x="374" y="410"/>
      <point x="374" y="267" type="curve" smooth="yes"/>
      <point x="374" y="125"/>
      <point x="331" y="63"/>
    </contour>
  </outline>
</glyph>
<glyph name="uni0187" format="2">
  <advance width="500"/>
  <unicode hex="0187"/>
  <anchor x="300" y="0" name="bottom"/>
  <anchor x="300" y="866" name="top"/>
  <anchor x="480" y="714" name="topright"/>
  <outline>
    <contour>
      <point x="403" y="688" type="line"/>
      <point x="475" y="688" type="line"/>
      <point x="475" y="738" type="line" smooth="yes"/>
      <point x="475" y="783"/>
      <point x="489" y="794"/>
      <point x="511" y="794" type="curve" smooth="yes"/>
      <point x="527" y="794"/>
      <point x="542" y="787"/>
      <point x="549" y="783" type="curve"/>
      <point x="549" y="854" type="line"/>
      <point x="540" y="860"/>
      <point x="523" y="866"/>
      <point x="499" y="866" type="curve" smooth="yes"/>
      <point x="448" y="866"/>
      <point x="403" y="834"/>
      <point x="403" y="750" type="curve" smooth="yes"/>
    </contour>
    <component base="C"/>
  </outline>
</glyph>
<glyph name="uni0188" format="2">
  <advance width="500"/>
  <unicode hex="0188"/>
  <anchor x="250" y="0" name="bottom"/>
  <anchor x="250" y="767" name="top"/>
  <anchor x="480" y="536" name="topright"/>
  <outline>
    <contour>
      <point x="369" y="517" type="line"/>
      <point x="440" y="517" type="line"/>
      <point x="440" y="641" type="line" smooth="yes"/>
      <point x="440" y="685"/>
      <point x="454" y="697"/>
      <point x="476" y="697" type="curve" smooth="yes"/>
      <point x="492" y="697"/>
      <point x="507" y="690"/>
      <point x="514" y="686" type="curve"/>
      <point x="514" y="754" type="line"/>
      <point x="505" y="760"/>
      <point x="488" y="767"/>
      <point x="465" y="767" type="curve" smooth="yes"/>
      <point x="409" y="767"/>
      <point x="369" y="731"/>
      <point x="369" y="646" type="curve" smooth="yes"/>
    </contour>
    <component base="c"/>
  </outline>
</glyph>
<glyph name="uni018A" format="2">
  <advance width="500"/>
  <unicode hex="018A"/>
  <anchor x="250" y="0" name="bottom"/>
  <anchor x="250" y="714" name="top"/>
  <outline>
    <contour>
      <point x="118" y="0" type="line"/>
      <point x="222" y="0" type="line" smooth="yes"/>
      <point x="398" y="0"/>
      <point x="468" y="125"/>
      <point x="468" y="366" type="curve" smooth="yes"/>
      <point x="468" y="593"/>
      <point x="400" y="714"/>
      <point x="237" y="714" type="curve" smooth="yes"/>
      <point x="118" y="714" type="line"/>
    </contour>
    <contour>
      <point x="200" y="78" type="line"/>
      <point x="200" y="636" type="line"/>
      <point x="224" y="636" type="line" smooth="yes"/>
      <point x="349" y="636"/>
      <point x="381" y="550"/>
      <point x="381" y="366" type="curve" smooth="yes"/>
      <point x="381" y="176"/>
      <point x="342" y="78"/>
      <point x="224" y="78" type="curve" smooth="yes"/>
    </contour>
    <contour>
      <point x="16" y="519" type="curve"/>
      <point x="87" y="519" type="line"/>
      <point x="84" y="528"/>
      <point x="80" y="551"/>
      <point x="80" y="581" type="curve" smooth="yes"/>
      <point x="80" y="617"/>
      <point x="90" y="636"/>
      <point x="121" y="636" type="curve" smooth="yes"/>
      <point x="139" y="636" type="line"/>
      <point x="139" y="714" type="line"/>
      <point x="129" y="714" type="line" smooth="yes"/>
      <point x="39" y="714"/>
      <point x="8" y="663"/>
      <point x="8" y="586" type="curve" smooth="yes"/>
      <point x="8" y="555"/>
      <point x="12" y="531"/>
    </contour>
  </outline>
</glyph>
<glyph name="uni0194" format="2">
  <advance width="500"/>
  <unicode hex="0194"/>
  <anchor x="250" y="-240" name="bottom"/>
  <anchor x="250" y="714" name="top"/>
  <outline>
    <contour>
      <point x="249" y="-240" type="curve" smooth="yes"/>
      <point x="333" y="-240"/>
      <point x="368" y="-189"/>
      <point x="368" y="-102" type="curve" smooth="yes"/>
      <point x="368" y="-38"/>
      <point x="337" y="38"/>
      <point x="298" y="124" type="curve"/>
      <point x="480" y="714" type="line"/>
      <point x="392" y="714" type="line"/>
      <point x="282" y="334" type="line" smooth="yes"/>
      <point x="271" y="295"/>
      <point x="257" y="240"/>
      <point x="249" y="192" type="curve"/>
      <point x="242" y="240"/>
      <point x="230" y="293"/>
      <point x="218" y="335" type="curve" smooth="yes"/>
      <point x="108" y="714" type="line"/>
      <point x="20" y="714" type="line"/>
      <point x="200" y="122" type="line"/>
      <point x="166" y="46"/>
      <point x="132" y="-36"/>
      <point x="132" y="-103" type="curve" smooth="yes"/>
      <point x="132" y="-191"/>
      <point x="168" y="-240"/>
    </contour>
    <contour>
      <point x="251" y="-177" type="curve" smooth="yes"/>
      <point x="225" y="-177"/>
      <point x="208" y="-155"/>
      <point x="208" y="-104" type="curve" smooth="yes"/>
      <point x="208" y="-64"/>
      <point x="222" y="-11"/>
      <point x="251" y="54" type="curve"/>
      <point x="277" y="-9"/>
      <point x="293" y="-64"/>
      <point x="293" y="-107" type="curve" smooth="yes"/>
      <point x="293" y="-157"/>
      <point x="277" y="-177"/>
    </contour>
  </outline>
</glyph>
<glyph name="uni0195" format="2">
  <advance width="500"/>
  <unicode hex="0195"/>
  <anchor x="255" y="0" name="bottom"/>
  <anchor x="91" y="760" name="top"/>
  <outline>
    <contour>
      <point x="340" y="-11" type="curve" smooth="yes"/>
      <point x="416" y="-11"/>
      <point x="460" y="34"/>
      <point x="460" y="112" type="curve" smooth="yes"/>
      <point x="460" y="536" type="line"/>
      <point x="388" y="536" type="line"/>
      <point x="388" y="118" type="line" smooth="yes"/>
      <point x="388" y="74"/>
      <point x="369" y="55"/>
      <point x="340" y="55" type="curve" smooth="yes"/>
      <point x="311" y="55"/>
      <point x="291" y="72"/>
      <point x="291" y="126" type="curve" smooth="yes"/>
      <point x="291" y="421" type="line" smooth="yes"/>
      <point x="291" y="513"/>
      <point x="259" y="545"/>
      <point x="198" y="545" type="curve" smooth="yes"/>
      <point x="163" y="545"/>
      <point x="137" y="526"/>
      <point x="124" y="493" type="curve"/>
      <point x="119" y="493" type="line"/>
      <point x="122" y="513"/>
      <point x="124" y="535"/>
      <point x="124" y="558" type="curve" smooth="yes"/>
      <point x="124" y="760" type="line"/>
      <point x="52" y="760" type="line"/>
      <point x="52" y="0" type="line"/>
      <point x="124" y="0" type="line"/>
      <point x="124" y="360" type="line" smooth="yes"/>
      <point x="124" y="452"/>
      <point x="142" y="479"/>
      <point x="179" y="479" type="curve" smooth="yes"/>
      <point x="204" y="479"/>
      <point x="220" y="458"/>
      <point x="220" y="401" type="curve" smooth="yes"/>
      <point x="220" y="120" type="line" smooth="yes"/>
      <point x="220" y="21"/>
      <point x="266" y="-11"/>
    </contour>
  </outline>
</glyph>
<glyph name="uni0196" format="2">
  <advance width="500"/>
  <unicode hex="0196"/>
  <anchor x="310" y="0" name="bottom"/>
  <anchor x="234" y="714" name="top"/>
  <outline>
    <contour>
      <point x="322" y="-10" type="curve" smooth="yes"/>
      <point x="357" y="-10"/>
      <point x="397" y="-4"/>
      <point x="425" y="6" type="curve"/>
      <point x="425" y="78" type="line"/>
      <point x="399" y="70"/>
      <point x="371" y="66"/>
      <point x="347" y="66" type="curve" smooth="yes"/>
      <point x="299" y="66"/>
      <point x="275" y="83"/>
      <point x="275" y="132" type="curve" smooth="yes"/>
      <point x="275" y="714" type="line"/>
      <point x="189" y="714" type="line"/>
      <point x="189" y="128" type="line" smooth="yes"/>
      <point x="189" y="30"/>
      <point x="231" y="-10"/>
    </contour>
  </outline>
</glyph>
<glyph name="uni0197" format="2">
  <advance width="500"/>
  <unicode hex="0197"/>
  <anchor x="250" y="0" name="bottom"/>
  <anchor x="250" y="714" name="top"/>
  <anchor x="20" y="714" name="topleft"/>
  <anchor x="316" y="10" name="ogonek"/>
  <anchor x="480" y="714" name="topright"/>
  <outline>
    <contour>
      <point x="80" y="333" type="line"/>
      <point x="421" y="333" type="line"/>
      <point x="421" y="406" type="line"/>
      <point x="80" y="406" type="line"/>
    </contour>
    <component base="I"/>
  </outline>
</glyph>
<glyph name="uni0198" format="2">
  <advance width="500"/>
  <unicode hex="0198"/>
  <anchor x="250" y="0" name="bottom"/>
  <anchor x="250" y="714" name="top"/>
  <outline>
    <contour>
      <point x="45" y="0" type="line"/>
      <point x="127" y="0" type="line"/>
      <point x="127" y="264" type="line"/>
      <point x="195" y="334" type="line"/>
      <point x="381" y="0" type="line"/>
      <point x="475" y="0" type="line"/>
      <point x="252" y="394" type="line"/>
      <point x="384" y="597" type="line" smooth="yes"/>
      <point x="410" y="637"/>
      <point x="422" y="647"/>
      <point x="440" y="647" type="curve" smooth="yes"/>
      <point x="454" y="647"/>
      <point x="467" y="643"/>
      <point x="474" y="640" type="curve"/>
      <point x="474" y="713" type="line"/>
      <point x="463" y="718"/>
      <point x="445" y="722"/>
      <point x="425" y="722" type="curve" smooth="yes"/>
      <point x="379" y="722"/>
      <point x="362" y="700"/>
      <point x="315" y="630" type="curve" smooth="yes"/>
      <point x="210" y="474" type="line" smooth="yes"/>
      <point x="176" y="423"/>
      <point x="151" y="386"/>
      <point x="127" y="354" type="curve"/>
      <point x="127" y="714" type="line"/>
      <point x="45" y="714" type="line"/>
    </contour>
  </outline>
</glyph>
<glyph name="uni019C" format="2">
  <advance width="500"/>
  <unicode hex="019C"/>
  <anchor x="250" y="0" name="bottom"/>
  <anchor x="250" y="357" name="center"/>
  <anchor x="250" y="714" name="top"/>
  <anchor x="20" y="714" name="topleft"/>
  <outline>
    <contour>
      <point x="126" y="-11" type="curve" smooth="yes"/>
      <point x="168" y="-11"/>
      <point x="199" y="10"/>
      <point x="220" y="58" type="curve"/>
      <point x="223" y="58" type="line"/>
      <point x="239" y="12"/>
      <point x="269" y="-11"/>
      <point x="309" y="-11" type="curve" smooth="yes"/>
      <point x="348" y="-11"/>
      <point x="377" y="10"/>
      <point x="395" y="54" type="curve"/>
      <point x="400" y="54" type="line"/>
      <point x="411" y="0" type="line"/>
      <point x="470" y="0" type="line"/>
      <point x="470" y="714" type="line"/>
      <point x="392" y="714" type="line"/>
      <point x="392" y="205" type="line" smooth="yes"/>
      <point x="392" y="135"/>
      <point x="384" y="62"/>
      <point x="332" y="62" type="curve" smooth="yes"/>
      <point x="298" y="62"/>
      <point x="291" y="93"/>
      <point x="291" y="145" type="curve" smooth="yes"/>
      <point x="291" y="714" type="line"/>
      <point x="210" y="714" type="line"/>
      <point x="210" y="195" type="line" smooth="yes"/>
      <point x="210" y="120"/>
      <point x="203" y="62"/>
      <point x="153" y="62" type="curve" smooth="yes"/>
      <point x="116" y="62"/>
      <point x="108" y="93"/>
      <point x="108" y="145" type="curve" smooth="yes"/>
      <point x="108" y="714" type="line"/>
      <point x="30" y="714" type="line"/>
      <point x="30" y="135" type="line" smooth="yes"/>
      <point x="30" y="31"/>
      <point x="66" y="-11"/>
    </contour>
  </outline>
</glyph>
<glyph name="uni019D" format="2">
  <advance width="500"/>
  <unicode hex="019D"/>
  <anchor x="250" y="-181" name="bottom"/>
  <anchor x="250" y="714" name="top"/>
  <anchor x="500" y="714" name="topright"/>
  <outline>
    <contour>
      <point x="1" y="-181" type="curve" smooth="yes"/>
      <point x="84" y="-181"/>
      <point x="121" y="-129"/>
      <point x="121" y="1" type="curve" smooth="yes"/>
      <point x="121" y="133" type="line"/>
      <point x="45" y="116" type="line"/>
      <point x="45" y="18" type="line" smooth="yes"/>
      <point x="45" y="-73"/>
      <point x="29" y="-111"/>
      <point x="-8" y="-111" type="curve" smooth="yes"/>
      <point x="-29" y="-111"/>
      <point x="-47" y="-107"/>
      <point x="-63" y="-101" type="curve"/>
      <point x="-63" y="-170" type="line"/>
      <point x="-44" y="-178"/>
      <point x="-23" y="-181"/>
    </contour>
    <component base="N"/>
  </outline>
</glyph>
<glyph name="uni01A2" format="2">
  <advance width="500"/>
  <unicode hex="01A2"/>
  <anchor x="101" y="0" name="bottom"/>
  <anchor x="118" y="10" name="ogonek"/>
  <anchor x="273" y="714" name="top"/>
  <anchor x="-129" y="714" name="topleft"/>
  <anchor x="697" y="714" name="topright"/>
  <outline>
    <contour>
      <point x="96" y="-10" type="curve" smooth="yes"/>
      <point x="273" y="-10"/>
      <point x="342" y="153"/>
      <point x="342" y="356" type="curve" smooth="yes"/>
      <point x="342" y="543"/>
      <point x="283" y="724"/>
      <point x="102" y="724" type="curve" smooth="yes"/>
      <point x="-42" y="724"/>
      <point x="-149" y="609"/>
      <point x="-149" y="356" type="curve" smooth="yes"/>
      <point x="-149" y="158"/>
      <point x="-83" y="-10"/>
    </contour>
    <contour>
      <point x="97" y="67" type="curve" smooth="yes"/>
      <point x="-7" y="67"/>
      <point x="-62" y="166"/>
      <point x="-62" y="356" type="curve" smooth="yes"/>
      <point x="-62" y="548"/>
      <point x="-6" y="648"/>
      <point x="100" y="648" type="curve" smooth="yes"/>
      <point x="203" y="648"/>
      <point x="253" y="553"/>
      <point x="253" y="361" type="curve" smooth="yes"/>
      <point x="253" y="162"/>
      <point x="199" y="67"/>
    </contour>
    <contour>
      <point x="565" y="0" type="line"/>
      <point x="649" y="0" type="line"/>
      <point x="649" y="512" type="line" smooth="yes"/>
      <point x="649" y="659"/>
      <point x="579" y="724"/>
      <point x="469" y="724" type="curve" smooth="yes"/>
      <point x="382" y="724"/>
      <point x="318" y="684"/>
      <point x="262" y="614" type="curve"/>
      <point x="285" y="559" type="line"/>
      <point x="327" y="610"/>
      <point x="380" y="648"/>
      <point x="447" y="648" type="curve" smooth="yes"/>
      <point x="520" y="648"/>
      <point x="565" y="602"/>
      <point x="565" y="497" type="curve" smooth="yes"/>
    </contour>
  </outline>
</glyph>
<glyph name="uni01A4" format="2">
  <advance width="500"/>
  <unicode hex="01A4"/>
  <anchor x="286" y="0" name="bottom"/>
  <anchor x="286" y="714" name="top"/>
  <outline>
    <contour>
      <point x="145" y="0" type="line"/>
      <point x="227" y="0" type="line"/>
      <point x="227" y="278" type="line"/>
      <point x="249" y="278" type="line" smooth="yes"/>
      <point x="398" y="278"/>
      <point x="455" y="374"/>
      <point x="455" y="505" type="curve" smooth="yes"/>
      <point x="455" y="638"/>
      <point x="393" y="714"/>
      <point x="259" y="714" type="curve" smooth="yes"/>
      <point x="145" y="714" type="line" smooth="yes"/>
      <point x="53" y="714"/>
      <point x="20" y="661"/>
      <point x="20" y="586" type="curve" smooth="yes"/>
      <point x="20" y="555"/>
      <point x="24" y="531"/>
      <point x="28" y="519" type="curve"/>
      <point x="99" y="519" type="line"/>
      <point x="96" y="528"/>
      <point x="92" y="551"/>
      <point x="92" y="581" type="curve" smooth="yes"/>
      <point x="92" y="614"/>
      <point x="103" y="641"/>
      <point x="145" y="641" type="curve"/>
    </contour>
    <contour>
      <point x="227" y="355" type="line"/>
      <point x="227" y="641" type="line"/>
      <point x="256" y="641" type="line" smooth="yes"/>
      <point x="334" y="641"/>
      <point x="369" y="593"/>
      <point x="369" y="500" type="curve" smooth="yes"/>
      <point x="369" y="394"/>
      <point x="328" y="355"/>
      <point x="241" y="355" type="curve" smooth="yes"/>
    </contour>
  </outline>
</glyph>
<glyph name="uni01AB" format="2">
  <advance width="500"/>
  <unicode hex="01AB"/>
  <anchor x="326" y="-240" name="bottom"/>
  <anchor x="250" y="679" name="top"/>
  <anchor x="480" y="679" name="topright"/>
  <anchor x="229" y="290" name="center"/>
  <outline>
    <contour>
      <point x="332" y="-240" type="curve" smooth="yes"/>
      <point x="405" y="-240"/>
      <point x="442" y="-189"/>
      <point x="442" y="-99" type="curve" smooth="yes"/>
      <point x="442" y="42" type="line"/>
      <point x="363" y="21" type="line"/>
      <point x="363" y="-95" type="line" smooth="yes"/>
      <point x="363" y="-150"/>
      <point x="349" y="-167"/>
      <point x="318" y="-167" type="curve" smooth="yes"/>
      <point x="307" y="-167"/>
      <point x="295" y="-164"/>
      <point x="283" y="-159" type="curve"/>
      <point x="283" y="-231" type="line"/>
      <point x="294" y="-236"/>
      <point x="315" y="-240"/>
    </contour>
    <component base="t"/>
  </outline>
</glyph>
<glyph name="uni01AC" format="2">
  <advance width="500"/>
  <unicode hex="01AC"/>
  <anchor x="250" y="0" name="bottom"/>
  <anchor x="250" y="714" name="top"/>
  <outline>
    <contour>
      <point x="207" y="0" type="line"/>
      <point x="291" y="0" type="line"/>
      <point x="291" y="636" type="line"/>
      <point x="465" y="636" type="line"/>
      <point x="465" y="714" type="line"/>
      <point x="138" y="714" type="line" smooth="yes"/>
      <point x="44" y="714"/>
      <point x="8" y="650"/>
      <point x="8" y="570" type="curve" smooth="yes"/>
      <point x="8" y="548"/>
      <point x="13" y="527"/>
      <point x="17" y="515" type="curve"/>
      <point x="87" y="515" type="line"/>
      <point x="84" y="524"/>
      <point x="80" y="545"/>
      <point x="80" y="567" type="curve" smooth="yes"/>
      <point x="80" y="609"/>
      <point x="101" y="636"/>
      <point x="137" y="636" type="curve" smooth="yes"/>
      <point x="207" y="636" type="line"/>
    </contour>
  </outline>
</glyph>
<glyph name="uni01AE" format="2">
  <advance width="500"/>
  <unicode hex="01AE"/>
  <anchor x="309" y="-193" name="bottom"/>
  <anchor x="250" y="714" name="top"/>
  <outline>
    <contour>
      <point x="341" y="-193" type="curve" smooth="yes"/>
      <point x="365" y="-193"/>
      <point x="386" y="-190"/>
      <point x="405" y="-182" type="curve"/>
      <point x="405" y="-107" type="line"/>
      <point x="389" y="-113"/>
      <point x="371" y="-117"/>
      <point x="350" y="-117" type="curve" smooth="yes"/>
      <point x="306" y="-117"/>
      <point x="291" y="-84"/>
      <point x="291" y="-9" type="curve" smooth="yes"/>
      <point x="291" y="636" type="line"/>
      <point x="465" y="636" type="line"/>
      <point x="465" y="714" type="line"/>
      <point x="35" y="714" type="line"/>
      <point x="35" y="636" type="line"/>
      <point x="207" y="636" type="line"/>
      <point x="207" y="-19" type="line" smooth="yes"/>
      <point x="207" y="-141"/>
      <point x="252" y="-193"/>
    </contour>
  </outline>
</glyph>
<glyph name="uni01B4" format="2">
  <advance width="500"/>
  <unicode hex="01B4"/>
  <anchor x="250" y="-245" name="bottom"/>
  <anchor x="250" y="536" name="top"/>
  <outline>
    <contour>
      <point x="94" y="-245" type="curve" smooth="yes"/>
      <point x="180" y="-245"/>
      <point x="230" y="-174"/>
      <point x="263" y="-70" type="curve" smooth="yes"/>
      <point x="413" y="401" type="line" smooth="yes"/>
      <point x="431" y="459"/>
      <point x="442" y="470"/>
      <point x="464" y="470" type="curve" smooth="yes"/>
      <point x="473" y="470"/>
      <point x="481" y="468"/>
      <point x="489" y="465" type="curve"/>
      <point x="489" y="537" type="line"/>
      <point x="479" y="541"/>
      <point x="461" y="545"/>
      <point x="442" y="545" type="curve" smooth="yes"/>
      <point x="392" y="545"/>
      <point x="363" y="515"/>
      <point x="345" y="451" type="curve" smooth="yes"/>
      <point x="281" y="226" type="line" smooth="yes"/>
      <point x="269" y="183"/>
      <point x="253" y="120"/>
      <point x="246" y="78" type="curve"/>
      <point x="243" y="78" type="line"/>
      <point x="234" y="123"/>
      <point x="221" y="173"/>
      <point x="204" y="225" type="curve" smooth="yes"/>
      <point x="101" y="536" type="line"/>
      <point x="16" y="536" type="line"/>
      <point x="204" y="-6" type="line"/>
      <point x="179" y="-79" type="line" smooth="yes"/>
      <point x="155" y="-148"/>
      <point x="134" y="-174"/>
      <point x="86" y="-174" type="curve" smooth="yes"/>
      <point x="68" y="-174"/>
      <point x="47" y="-170"/>
      <point x="32" y="-167" type="curve"/>
      <point x="32" y="-237" type="line"/>
      <point x="52" y="-241"/>
      <point x="73" y="-245"/>
    </contour>
  </outline>
</glyph>
<glyph name="uni01B6" format="2">
  <advance width="500"/>
  <unicode hex="01B6"/>
  <anchor x="250" y="0" name="bottom"/>
  <anchor x="250" y="536" name="top"/>
  <anchor x="480" y="536" name="topright"/>
  <outline>
    <contour>
      <point x="97" y="241" type="line"/>
      <point x="403" y="241" type="line"/>
      <point x="403" y="304" type="line"/>
      <point x="97" y="304" type="line"/>
    </contour>
    <component base="z"/>
  </outline>
</glyph>
<glyph name="uni01BA" format="2">
  <advance width="500"/>
  <unicode hex="01BA"/>
  <anchor x="250" y="-240" name="bottom"/>
  <anchor x="250" y="536" name="top"/>
  <outline>
    <contour>
      <point x="227" y="-240" type="curve" smooth="yes"/>
      <point x="300" y="-240"/>
      <point x="339" y="-230"/>
      <point x="376" y="-215" type="curve"/>
      <point x="376" y="-140" type="line"/>
      <point x="338" y="-155"/>
      <point x="300" y="-167"/>
      <point x="228" y="-167" type="curve" smooth="yes"/>
      <point x="156" y="-167"/>
      <point x="128" y="-149"/>
      <point x="128" y="-121" type="curve" smooth="yes"/>
      <point x="128" y="-88"/>
      <point x="146" y="-73"/>
      <point x="212" y="-73" type="curve" smooth="yes"/>
      <point x="362" y="-73"/>
      <point x="437" y="10"/>
      <point x="437" y="123" type="curve" smooth="yes"/>
      <point x="437" y="239"/>
      <point x="380" y="302"/>
      <point x="242" y="308" type="curve"/>
      <point x="419" y="472" type="line"/>
      <point x="419" y="536" type="line"/>
      <point x="63" y="536" type="line"/>
      <point x="63" y="462" type="line"/>
      <point x="300" y="462" type="line"/>
      <point x="125" y="299" type="line"/>
      <point x="125" y="238" type="line"/>
      <point x="174" y="238" type="line" smooth="yes"/>
      <point x="295" y="238"/>
      <point x="349" y="207"/>
      <point x="349" y="122" type="curve" smooth="yes"/>
      <point x="349" y="37"/>
      <point x="301" y="0"/>
      <point x="210" y="0" type="curve" smooth="yes"/>
      <point x="89" y="0"/>
      <point x="45" y="-56"/>
      <point x="45" y="-121" type="curve" smooth="yes"/>
      <point x="45" y="-208"/>
      <point x="121" y="-240"/>
    </contour>
  </outline>
</glyph>
<glyph name="uni01BE" format="2">
  <advance width="500"/>
  <unicode hex="01BE"/>
  <anchor x="250" y="0" name="bottom"/>
  <anchor x="244" y="679" name="top"/>
  <outline>
    <contour>
      <point x="235" y="-10" type="curve" smooth="yes"/>
      <point x="366" y="-10"/>
      <point x="432" y="44"/>
      <point x="432" y="143" type="curve" smooth="yes"/>
      <point x="432" y="240"/>
      <point x="365" y="270"/>
      <point x="303" y="297" type="curve" smooth="yes"/>
      <point x="273" y="310"/>
      <point x="267" y="335"/>
      <point x="267" y="368" type="curve" smooth="yes"/>
      <point x="267" y="464" type="line"/>
      <point x="445" y="464" type="line"/>
      <point x="445" y="536" type="line"/>
      <point x="269" y="536" type="line"/>
      <point x="269" y="679" type="line"/>
      <point x="216" y="679" type="line"/>
      <point x="188" y="539" type="line"/>
      <point x="50" y="515" type="line"/>
      <point x="50" y="464" type="line"/>
      <point x="185" y="464" type="line"/>
      <point x="185" y="344" type="line" smooth="yes"/>
      <point x="185" y="290"/>
      <point x="196" y="252"/>
      <point x="255" y="231" type="curve" smooth="yes"/>
      <point x="311" y="211"/>
      <point x="350" y="193"/>
      <point x="350" y="141" type="curve" smooth="yes"/>
      <point x="350" y="95"/>
      <point x="325" y="61"/>
      <point x="241" y="61" type="curve" smooth="yes"/>
      <point x="180" y="61"/>
      <point x="125" y="79"/>
      <point x="82" y="102" type="curve"/>
      <point x="82" y="24" type="line"/>
      <point x="120" y="2"/>
      <point x="172" y="-10"/>
    </contour>
  </outline>
</glyph>
<glyph name="uni0234" format="2">
  <advance width="500"/>
  <unicode hex="0234"/>
  <anchor x="336" y="0" name="bottom"/>
  <anchor x="195" y="760" name="top"/>
  <outline>
    <contour>
      <point x="112" y="-20" type="line"/>
      <point x="121" y="15"/>
      <point x="141" y="57"/>
      <point x="164" y="79" type="curve"/>
      <point x="178" y="39"/>
      <point x="220" y="-10"/>
      <point x="315" y="-10" type="curve" smooth="yes"/>
      <point x="415" y="-10"/>
      <point x="467" y="44"/>
      <point x="467" y="117" type="curve" smooth="yes"/>
      <point x="467" y="187"/>
      <point x="419" y="242"/>
      <point x="329" y="242" type="curve" smooth="yes"/>
      <point x="287" y="242"/>
      <point x="251" y="231"/>
      <point x="232" y="222" type="curve"/>
      <point x="232" y="760" type="line"/>
      <point x="149" y="760" type="line"/>
      <point x="149" y="225" type="line" smooth="yes"/>
      <point x="149" y="203"/>
      <point x="149" y="191"/>
      <point x="149" y="172" type="curve"/>
      <point x="96" y="134"/>
      <point x="61" y="67"/>
      <point x="43" y="4" type="curve"/>
    </contour>
    <contour>
      <point x="320" y="58" type="curve" smooth="yes"/>
      <point x="265" y="58"/>
      <point x="238" y="91"/>
      <point x="232" y="139" type="curve"/>
      <point x="249" y="150"/>
      <point x="284" y="163"/>
      <point x="321" y="163" type="curve" smooth="yes"/>
      <point x="364" y="163"/>
      <point x="387" y="143"/>
      <point x="387" y="113" type="curve" smooth="yes"/>
      <point x="387" y="83"/>
      <point x="365" y="58"/>
    </contour>
  </outline>
</glyph>
<glyph name="uni023C" format="2">
  <advance width="500"/>
  <unicode hex="023C"/>
  <anchor x="250" y="-208" name="bottom"/>
  <anchor x="280" y="760" name="top"/>
  <anchor x="480" y="536" name="topright"/>
  <outline>
    <contour>
      <point x="151" y="-208" type="line"/>
      <point x="197" y="-208" type="line"/>
      <point x="391" y="760" type="line"/>
      <point x="345" y="760" type="line"/>
    </contour>
    <component base="c"/>
  </outline>
</glyph>
<glyph name="uni023F" format="2">
  <advance width="500"/>
  <unicode hex="023F"/>
  <anchor x="280" y="-240" name="bottom"/>
  <anchor x="250" y="536" name="top"/>
  <anchor x="480" y="536" name="topright"/>
  <outline>
    <contour>
      <point x="309" y="-240" type="curve" smooth="yes"/>
      <point x="332" y="-240"/>
      <point x="352" y="-235"/>
      <point x="364" y="-230" type="curve"/>
      <point x="364" y="-167" type="line"/>
      <point x="355" y="-171"/>
      <point x="338" y="-175"/>
      <point x="323" y="-175" type="curve" smooth="yes"/>
      <point x="286" y="-175"/>
      <point x="268" y="-149"/>
      <point x="250" y="-76" type="curve" smooth="yes"/>
      <point x="242" y="-45"/>
      <point x="232" y="-19"/>
      <point x="212" y="-4" type="curve"/>
      <point x="115" y="10" type="line"/>
      <point x="151" y="-2"/>
      <point x="169" y="-23"/>
      <point x="183" y="-91" type="curve" smooth="yes"/>
      <point x="204" y="-194"/>
      <point x="232" y="-240"/>
    </contour>
    <component base="s"/>
  </outline>
</glyph>
<glyph name="uni0240" format="2">
  <advance width="500"/>
  <unicode hex="0240"/>
  <anchor x="280" y="-240" name="bottom"/>
  <anchor x="257" y="536" name="top"/>
  <outline>
    <contour>
      <point x="367" y="-240" type="curve" smooth="yes"/>
      <point x="397" y="-240"/>
      <point x="419" y="-233"/>
      <point x="434" y="-224" type="curve"/>
      <point x="434" y="-158" type="line"/>
      <point x="422" y="-165"/>
      <point x="402" y="-171"/>
      <point x="381" y="-171" type="curve" smooth="yes"/>
      <point x="332" y="-171"/>
      <point x="317" y="-140"/>
      <point x="293" y="-62" type="curve" smooth="yes"/>
      <point x="271" y="10"/>
      <point x="252" y="56"/>
      <point x="155" y="66" type="curve"/>
      <point x="429" y="466" type="line"/>
      <point x="429" y="536" type="line"/>
      <point x="79" y="536" type="line"/>
      <point x="79" y="464" type="line"/>
      <point x="339" y="464" type="line"/>
      <point x="65" y="60" type="line"/>
      <point x="65" y="0" type="line"/>
      <point x="124" y="0" type="line" smooth="yes"/>
      <point x="198" y="0"/>
      <point x="212" y="-44"/>
      <point x="226" y="-91" type="curve" smooth="yes"/>
      <point x="249" y="-170"/>
      <point x="270" y="-240"/>
    </contour>
  </outline>
</glyph>
<glyph name="uni0241" format="2">
  <advance width="500"/>
  <unicode hex="0241"/>
  <anchor x="224" y="0" name="bottom"/>
  <anchor x="224" y="714" name="top"/>
  <outline>
    <contour>
      <point x="180" y="0" type="line"/>
      <point x="270" y="0" type="line"/>
      <point x="270" y="271" type="line"/>
      <point x="398" y="330"/>
      <point x="448" y="405"/>
      <point x="448" y="517" type="curve" smooth="yes"/>
      <point x="448" y="645"/>
      <point x="360" y="724"/>
      <point x="228" y="724" type="curve" smooth="yes"/>
      <point x="148" y="724"/>
      <point x="83" y="701"/>
      <point x="31" y="667" type="curve"/>
      <point x="64" y="595" type="line"/>
      <point x="110" y="627"/>
      <point x="168" y="645"/>
      <point x="224" y="645" type="curve" smooth="yes"/>
      <point x="311" y="645"/>
      <point x="353" y="592"/>
      <point x="353" y="514" type="curve" smooth="yes"/>
      <point x="353" y="415"/>
      <point x="285" y="359"/>
      <point x="180" y="322" type="curve"/>
    </contour>
  </outline>
</glyph>
<glyph name="uni0247" format="2">
  <advance width="500"/>
  <unicode hex="0247"/>
  <anchor x="250" y="-208" name="bottom"/>
  <anchor x="250" y="760" name="top"/>
  <anchor x="269" y="10" name="ogonek"/>
  <anchor x="480" y="536" name="topright"/>
  <outline>
    <contour>
      <point x="109" y="-208" type="line"/>
      <point x="155" y="-208" type="line"/>
      <point x="349" y="760" type="line"/>
      <point x="303" y="760" type="line"/>
    </contour>
    <component base="e"/>
  </outline>
</glyph>
<glyph name="uni024B" format="2">
  <advance width="500"/>
  <unicode hex="024B"/>
  <anchor x="240" y="-240" name="bottom"/>
  <anchor x="233" y="536" name="top"/>
  <outline>
    <contour>
      <point x="479" y="-240" type="curve" smooth="yes"/>
      <point x="504" y="-240"/>
      <point x="529" y="-237"/>
      <point x="547" y="-229" type="curve"/>
      <point x="547" y="-157" type="line"/>
      <point x="530" y="-163"/>
      <point x="514" y="-166"/>
      <point x="494" y="-166" type="curve" smooth="yes"/>
      <point x="454" y="-166"/>
      <point x="440" y="-137"/>
      <point x="440" y="-76" type="curve" smooth="yes"/>
      <point x="440" y="536" type="line"/>
      <point x="373" y="536" type="line"/>
      <point x="363" y="464" type="line"/>
      <point x="359" y="464" type="line"/>
      <point x="331" y="509"/>
      <point x="295" y="547"/>
      <point x="230" y="547" type="curve" smooth="yes"/>
      <point x="112" y="547"/>
      <point x="40" y="450"/>
      <point x="40" y="267" type="curve" smooth="yes"/>
      <point x="40" y="85"/>
      <point x="112" y="-10"/>
      <point x="229" y="-10" type="curve" smooth="yes"/>
      <point x="290" y="-10"/>
      <point x="332" y="27"/>
      <point x="358" y="72" type="curve"/>
      <point x="363" y="72" type="line"/>
      <point x="359" y="42"/>
      <point x="358" y="17"/>
      <point x="358" y="-11" type="curve" smooth="yes"/>
      <point x="358" y="-81" type="line" smooth="yes"/>
      <point x="358" y="-182"/>
      <point x="387" y="-240"/>
    </contour>
    <contour>
      <point x="248" y="63" type="curve" smooth="yes"/>
      <point x="173" y="63"/>
      <point x="126" y="131"/>
      <point x="126" y="266" type="curve" smooth="yes"/>
      <point x="126" y="400"/>
      <point x="171" y="474"/>
      <point x="251" y="474" type="curve" smooth="yes"/>
      <point x="328" y="474"/>
      <point x="361" y="393"/>
      <point x="361" y="267" type="curve" smooth="yes"/>
      <point x="361" y="247" type="line" smooth="yes"/>
      <point x="361" y="141"/>
      <point x="328" y="63"/>
    </contour>
  </outline>
</glyph>
<glyph name="uni024C" format="2">
  <advance width="500"/>
  <unicode hex="024C"/>
  <anchor x="269" y="0" name="bottom"/>
  <anchor x="250" y="714" name="top"/>
  <anchor x="480" y="714" name="topright"/>
  <outline>
    <contour>
      <point x="0" y="294" type="line"/>
      <point x="158" y="294" type="line"/>
      <point x="158" y="369" type="line"/>
      <point x="0" y="369" type="line"/>
    </contour>
    <component base="R"/>
  </outline>
</glyph>
<glyph name="uni0255" format="2">
  <advance width="500"/>
  <unicode hex="0255"/>
  <anchor x="250" y="0" name="bottom"/>
  <anchor x="250" y="536" name="top"/>
  <outline>
    <contour>
      <point x="140" y="-28" type="line"/>
      <point x="147" y="-7"/>
      <point x="155" y="13"/>
      <point x="163" y="28" type="curve"/>
      <point x="200" y="2"/>
      <point x="246" y="-10"/>
      <point x="303" y="-10" type="curve" smooth="yes"/>
      <point x="401" y="-10"/>
      <point x="456" y="40"/>
      <point x="456" y="116" type="curve" smooth="yes"/>
      <point x="456" y="183"/>
      <point x="410" y="227"/>
      <point x="321" y="227" type="curve" smooth="yes"/>
      <point x="250" y="227"/>
      <point x="200" y="194"/>
      <point x="168" y="160" type="curve"/>
      <point x="161" y="185"/>
      <point x="156" y="220"/>
      <point x="156" y="266" type="curve" smooth="yes"/>
      <point x="156" y="404"/>
      <point x="203" y="474"/>
      <point x="311" y="474" type="curve" smooth="yes"/>
      <point x="349" y="474"/>
      <point x="381" y="464"/>
      <point x="413" y="448" type="curve"/>
      <point x="440" y="517" type="line"/>
      <point x="405" y="533"/>
      <point x="359" y="547"/>
      <point x="305" y="547" type="curve" smooth="yes"/>
      <point x="146" y="547"/>
      <point x="70" y="441"/>
      <point x="70" y="265" type="curve" smooth="yes"/>
      <point x="70" y="191"/>
      <point x="86" y="127"/>
      <point x="112" y="83" type="curve"/>
      <point x="95" y="56"/>
      <point x="83" y="27"/>
      <point x="69" y="-8" type="curve"/>
    </contour>
    <contour>
      <point x="307" y="58" type="curve" smooth="yes"/>
      <point x="264" y="58"/>
      <point x="224" y="71"/>
      <point x="203" y="98" type="curve"/>
      <point x="228" y="140"/>
      <point x="271" y="162"/>
      <point x="313" y="162" type="curve" smooth="yes"/>
      <point x="357" y="162"/>
      <point x="381" y="143"/>
      <point x="381" y="110" type="curve" smooth="yes"/>
      <point x="381" y="81"/>
      <point x="362" y="58"/>
    </contour>
  </outline>
</glyph>
<glyph name="uni0267" format="2">
  <advance width="500"/>
  <unicode hex="0267"/>
  <anchor x="250" y="-240" name="bottom"/>
  <anchor x="250" y="268" name="center"/>
  <anchor x="131" y="760" name="top"/>
  <outline>
    <contour>
      <point x="326" y="-240" type="curve" smooth="yes"/>
      <point x="395" y="-240"/>
      <point x="445" y="-191"/>
      <point x="445" y="-94" type="curve" smooth="yes"/>
      <point x="445" y="350" type="line" smooth="yes"/>
      <point x="445" y="487"/>
      <point x="375" y="547"/>
      <point x="281" y="547" type="curve" smooth="yes"/>
      <point x="211" y="547"/>
      <point x="170" y="513"/>
      <point x="143" y="463" type="curve"/>
      <point x="138" y="463" type="line"/>
      <point x="139" y="486"/>
      <point x="142" y="509"/>
      <point x="142" y="532" type="curve" smooth="yes"/>
      <point x="142" y="622" type="line" smooth="yes"/>
      <point x="142" y="676"/>
      <point x="160" y="692"/>
      <point x="197" y="692" type="curve" smooth="yes"/>
      <point x="209" y="692"/>
      <point x="224" y="689"/>
      <point x="237" y="684" type="curve"/>
      <point x="237" y="756" type="line"/>
      <point x="226" y="761"/>
      <point x="204" y="765"/>
      <point x="185" y="765" type="curve" smooth="yes"/>
      <point x="111" y="765"/>
      <point x="60" y="714"/>
      <point x="60" y="624" type="curve" smooth="yes"/>
      <point x="60" y="0" type="line"/>
      <point x="142" y="0" type="line"/>
      <point x="142" y="279" type="line" smooth="yes"/>
      <point x="142" y="403"/>
      <point x="180" y="474"/>
      <point x="262" y="474" type="curve" smooth="yes"/>
      <point x="330" y="474"/>
      <point x="363" y="426"/>
      <point x="363" y="333" type="curve" smooth="yes"/>
      <point x="363" y="-94" type="line" smooth="yes"/>
      <point x="363" y="-142"/>
      <point x="342" y="-167"/>
      <point x="309" y="-167" type="curve" smooth="yes"/>
      <point x="286" y="-167"/>
      <point x="271" y="-160"/>
      <point x="260" y="-153" type="curve"/>
      <point x="260" y="-226" type="line"/>
      <point x="274" y="-234"/>
      <point x="297" y="-240"/>
    </contour>
  </outline>
</glyph>
<glyph name="uni0268" format="2">
  <advance width="500"/>
  <unicode hex="0268"/>
  <anchor x="250" y="0" name="bottom"/>
  <anchor x="250" y="765" name="top"/>
  <anchor x="409" y="765" name="topright"/>
  <outline>
    <contour>
      <point x="72" y="232" type="line"/>
      <point x="418" y="232" type="line"/>
      <point x="418" y="295" type="line"/>
      <point x="72" y="295" type="line"/>
    </contour>
    <component base="i"/>
  </outline>
</glyph>
<glyph name="uni026A" format="2">
  <advance width="500"/>
  <unicode hex="026A"/>
  <anchor x="250" y="0" name="bottom"/>
  <anchor x="250" y="536" name="top"/>
  <outline>
    <contour>
      <point x="75" y="0" type="line"/>
      <point x="425" y="0" type="line"/>
      <point x="425" y="59" type="line"/>
      <point x="290" y="69" type="line"/>
      <point x="290" y="467" type="line"/>
      <point x="425" y="477" type="line"/>
      <point x="425" y="536" type="line"/>
      <point x="75" y="536" type="line"/>
      <point x="75" y="477" type="line"/>
      <point x="208" y="467" type="line"/>
      <point x="208" y="69" type="line"/>
      <point x="75" y="59" type="line"/>
    </contour>
  </outline>
</glyph>
<glyph name="uni0272" format="2">
  <advance width="500"/>
  <unicode hex="0272"/>
  <anchor x="255" y="-240" name="bottom"/>
  <anchor x="251" y="536" name="top"/>
  <outline>
    <contour>
      <point x="29" y="-240" type="curve" smooth="yes"/>
      <point x="97" y="-240"/>
      <point x="142" y="-204"/>
      <point x="142" y="-108" type="curve" smooth="yes"/>
      <point x="142" y="279" type="line" smooth="yes"/>
      <point x="142" y="404"/>
      <point x="178" y="474"/>
      <point x="260" y="474" type="curve" smooth="yes"/>
      <point x="325" y="474"/>
      <point x="363" y="430"/>
      <point x="363" y="346" type="curve" smooth="yes"/>
      <point x="363" y="0" type="line"/>
      <point x="445" y="0" type="line"/>
      <point x="445" y="350" type="line" smooth="yes"/>
      <point x="445" y="487"/>
      <point x="387" y="547"/>
      <point x="286" y="547" type="curve" smooth="yes"/>
      <point x="225" y="547"/>
      <point x="171" y="520"/>
      <point x="144" y="464" type="curve"/>
      <point x="139" y="464" type="line"/>
      <point x="127" y="536" type="line"/>
      <point x="60" y="536" type="line"/>
      <point x="60" y="-108" type="line" smooth="yes"/>
      <point x="60" y="-155"/>
      <point x="42" y="-167"/>
      <point x="14" y="-167" type="curve" smooth="yes"/>
      <point x="-4" y="-167"/>
      <point x="-19" y="-162"/>
      <point x="-29" y="-157" type="curve"/>
      <point x="-29" y="-230" type="line"/>
      <point x="-16" y="-235"/>
      <point x="2" y="-240"/>
    </contour>
  </outline>
</glyph>
<glyph name="uni0274" format="2">
  <advance width="500"/>
  <unicode hex="0274"/>
  <anchor x="250" y="0" name="bottom"/>
  <anchor x="250" y="536" name="top"/>
  <outline>
    <contour>
      <point x="68" y="0" type="line"/>
      <point x="146" y="0" type="line"/>
      <point x="146" y="293" type="line" smooth="yes"/>
      <point x="146" y="335"/>
      <point x="145" y="378"/>
      <point x="142" y="421" type="curve"/>
      <point x="341" y="0" type="line"/>
      <point x="432" y="0" type="line"/>
      <point x="432" y="537" type="line"/>
      <point x="353" y="537" type="line"/>
      <point x="353" y="237" type="line" smooth="yes"/>
      <point x="353" y="197"/>
      <point x="355" y="161"/>
      <point x="358" y="116" type="curve"/>
      <point x="160" y="537" type="line"/>
      <point x="68" y="537" type="line"/>
    </contour>
  </outline>
</glyph>
<glyph name="uni0282" format="2">
  <advance width="500"/>
  <unicode hex="0282"/>
  <anchor x="250" y="-291" name="bottom"/>
  <anchor x="250" y="536" name="top"/>
  <anchor x="480" y="536" name="topright"/>
  <outline>
    <contour>
      <point x="156" y="-240" type="curve" smooth="yes"/>
      <point x="178" y="-240"/>
      <point x="202" y="-235"/>
      <point x="214" y="-230" type="curve"/>
      <point x="214" y="-174" type="line"/>
      <point x="206" y="-176"/>
      <point x="191" y="-180"/>
      <point x="180" y="-180" type="curve" smooth="yes"/>
      <point x="161" y="-180"/>
      <point x="148" y="-169"/>
      <point x="148" y="-140" type="curve" smooth="yes"/>
      <point x="148" y="16" type="line"/>
      <point x="79" y="74" type="line"/>
      <point x="79" y="-157" type="line" smooth="yes"/>
      <point x="79" y="-212"/>
      <point x="109" y="-240"/>
    </contour>
    <component base="s"/>
  </outline>
</glyph>
<glyph name="uni0288" format="2">
  <advance width="500"/>
  <unicode hex="0288"/>
  <anchor x="260" y="-240" name="bottom"/>
  <anchor x="260" y="679" name="top"/>
  <outline>
    <contour>
      <point x="362" y="-240" type="curve" smooth="yes"/>
      <point x="395" y="-240"/>
      <point x="432" y="-235"/>
      <point x="462" y="-226" type="curve"/>
      <point x="462" y="-153" type="line"/>
      <point x="429" y="-163"/>
      <point x="399" y="-167"/>
      <point x="377" y="-167" type="curve" smooth="yes"/>
      <point x="316" y="-167"/>
      <point x="287" y="-138"/>
      <point x="287" y="-73" type="curve" smooth="yes"/>
      <point x="287" y="464" type="line"/>
      <point x="465" y="464" type="line"/>
      <point x="465" y="536" type="line"/>
      <point x="289" y="536" type="line"/>
      <point x="289" y="679" type="line"/>
      <point x="236" y="679" type="line"/>
      <point x="208" y="539" type="line"/>
      <point x="70" y="515" type="line"/>
      <point x="70" y="464" type="line"/>
      <point x="205" y="464" type="line"/>
      <point x="205" y="-87" type="line" smooth="yes"/>
      <point x="205" y="-203"/>
      <point x="271" y="-240"/>
    </contour>
  </outline>
</glyph>
<glyph name="uni0289" format="2">
  <advance width="500"/>
  <unicode hex="0289"/>
  <anchor x="250" y="0" name="bottom"/>
  <anchor x="250" y="536" name="top"/>
  <anchor x="450" y="10" name="ogonek"/>
  <anchor x="480" y="536" name="topright"/>
  <outline>
    <contour>
      <point x="4" y="255" type="line"/>
      <point x="495" y="255" type="line"/>
      <point x="495" y="317" type="line"/>
      <point x="4" y="317" type="line"/>
    </contour>
    <component base="u"/>
  </outline>
</glyph>
<glyph name="uni028F" format="2">
  <advance width="500"/>
  <unicode hex="028F"/>
  <anchor x="250" y="0" name="bottom"/>
  <anchor x="250" y="536" name="top"/>
  <outline>
    <contour>
      <point x="208" y="0" type="line"/>
      <point x="289" y="0" type="line"/>
      <point x="289" y="234" type="line"/>
      <point x="463" y="537" type="line"/>
      <point x="366" y="537" type="line"/>
      <point x="249" y="313" type="line"/>
      <point x="133" y="537" type="line"/>
      <point x="36" y="537" type="line"/>
      <point x="208" y="234" type="line"/>
    </contour>
  </outline>
</glyph>
<glyph name="uni0291" format="2">
  <advance width="500"/>
  <unicode hex="0291"/>
  <anchor x="209" y="-101" name="bottom"/>
  <anchor x="209" y="536" name="top"/>
  <outline>
    <contour>
      <point x="230" y="-71" type="line"/>
      <point x="237" y="-48"/>
      <point x="249" y="-23"/>
      <point x="256" y="0" type="curve"/>
      <point x="336" y="0" type="line" smooth="yes"/>
      <point x="402" y="0"/>
      <point x="459" y="36"/>
      <point x="459" y="111" type="curve" smooth="yes"/>
      <point x="459" y="171"/>
      <point x="426" y="212"/>
      <point x="359" y="212" type="curve" smooth="yes"/>
      <point x="289" y="212"/>
      <point x="255" y="168"/>
      <point x="219" y="69" type="curve"/>
      <point x="128" y="69" type="line"/>
      <point x="352" y="478" type="line"/>
      <point x="352" y="537" type="line"/>
      <point x="48" y="537" type="line"/>
      <point x="48" y="468" type="line"/>
      <point x="264" y="468" type="line"/>
      <point x="38" y="55" type="line"/>
      <point x="38" y="0" type="line"/>
      <point x="195" y="0" type="line"/>
      <point x="189" y="-18"/>
      <point x="181" y="-36"/>
      <point x="174" y="-54" type="curve"/>
    </contour>
    <contour>
      <point x="280" y="69" type="line"/>
      <point x="305" y="132"/>
      <point x="322" y="157"/>
      <point x="353" y="157" type="curve" smooth="yes"/>
      <point x="379" y="157"/>
      <point x="392" y="139"/>
      <point x="392" y="115" type="curve" smooth="yes"/>
      <point x="392" y="88"/>
      <point x="376" y="69"/>
      <point x="339" y="69" type="curve" smooth="yes"/>
    </contour>
  </outline>
</glyph>
<glyph name="ezhcurl" format="2">
  <advance width="500"/>
  <unicode hex="0293"/>
  <anchor x="249" y="-241" name="bottom"/>
  <anchor x="240" y="536" name="top"/>
  <outline>
    <contour>
      <point x="434" y="-241" type="curve"/>
      <point x="491" y="-198" type="line"/>
      <point x="469" y="-161"/>
      <point x="446" y="-125"/>
      <point x="424" y="-100" type="curve"/>
      <point x="436" y="-71"/>
      <point x="444" y="-35"/>
      <point x="444" y="4" type="curve" smooth="yes"/>
      <point x="444" y="164"/>
      <point x="337" y="221"/>
      <point x="210" y="226" type="curve"/>
      <point x="413" y="472" type="line"/>
      <point x="413" y="537" type="line"/>
      <point x="52" y="537" type="line"/>
      <point x="52" y="462" type="line"/>
      <point x="310" y="462" type="line"/>
      <point x="114" y="222" type="line"/>
      <point x="114" y="157" type="line"/>
      <point x="152" y="157" type="line" smooth="yes"/>
      <point x="291" y="157"/>
      <point x="355" y="116"/>
      <point x="355" y="1" type="curve" smooth="yes"/>
      <point x="355" y="-18"/>
      <point x="353" y="-31"/>
      <point x="351" y="-42" type="curve"/>
      <point x="304" y="-12"/>
      <point x="256" y="1"/>
      <point x="190" y="1" type="curve" smooth="yes"/>
      <point x="86" y="1"/>
      <point x="26" y="-47"/>
      <point x="26" y="-119" type="curve" smooth="yes"/>
      <point x="26" y="-194"/>
      <point x="87" y="-240"/>
      <point x="190" y="-240" type="curve" smooth="yes"/>
      <point x="287" y="-240"/>
      <point x="347" y="-206"/>
      <point x="385" y="-163" type="curve"/>
      <point x="400" y="-184"/>
      <point x="420" y="-214"/>
    </contour>
    <contour>
      <point x="188" y="-172" type="curve" smooth="yes"/>
      <point x="123" y="-172"/>
      <point x="96" y="-145"/>
      <point x="96" y="-118" type="curve" smooth="yes"/>
      <point x="96" y="-81"/>
      <point x="122" y="-61"/>
      <point x="190" y="-61" type="curve" smooth="yes"/>
      <point x="234" y="-61"/>
      <point x="286" y="-74"/>
      <point x="328" y="-105" type="curve"/>
      <point x="302" y="-142"/>
      <point x="261" y="-172"/>
    </contour>
  </outline>
</glyph>
<glyph name="uni0294" format="2">
  <advance width="500"/>
  <unicode hex="0294"/>
  <anchor x="226" y="0" name="bottom"/>
  <anchor x="226" y="765" name="top"/>
  <outline>
    <contour>
      <point x="184" y="0" type="line"/>
      <point x="265" y="0" type="line"/>
      <point x="265" y="305" type="line"/>
      <point x="383" y="384"/>
      <point x="425" y="462"/>
      <point x="425" y="577" type="curve" smooth="yes"/>
      <point x="425" y="696"/>
      <point x="359" y="765"/>
      <point x="228" y="765" type="curve" smooth="yes"/>
      <point x="148" y="765"/>
      <point x="95" y="739"/>
      <point x="54" y="706" type="curve"/>
      <point x="85" y="642" type="line"/>
      <point x="116" y="666"/>
      <point x="162" y="691"/>
      <point x="221" y="691" type="curve" smooth="yes"/>
      <point x="300" y="691"/>
      <point x="343" y="648"/>
      <point x="343" y="571" type="curve" smooth="yes"/>
      <point x="343" y="489"/>
      <point x="314" y="420"/>
      <point x="184" y="334" type="curve"/>
    </contour>
  </outline>
</glyph>
<glyph name="cstretched" format="2">
  <advance width="500"/>
  <unicode hex="0297"/>
  <anchor x="309" y="-239" name="bottom"/>
  <anchor x="300" y="536" name="top"/>
  <outline>
    <contour>
      <point x="304" y="-239" type="curve" smooth="yes"/>
      <point x="353" y="-239"/>
      <point x="388" y="-229"/>
      <point x="422" y="-212" type="curve"/>
      <point x="422" y="-134" type="line"/>
      <point x="389" y="-150"/>
      <point x="359" y="-163"/>
      <point x="309" y="-163" type="curve" smooth="yes"/>
      <point x="202" y="-163"/>
      <point x="149" y="-83"/>
      <point x="149" y="151" type="curve" smooth="yes"/>
      <point x="149" y="382"/>
      <point x="200" y="469"/>
      <point x="308" y="469" type="curve" smooth="yes"/>
      <point x="343" y="469"/>
      <point x="376" y="459"/>
      <point x="408" y="444" type="curve"/>
      <point x="435" y="517" type="line"/>
      <point x="403" y="534"/>
      <point x="360" y="546"/>
      <point x="310" y="546" type="curve" smooth="yes"/>
      <point x="170" y="546"/>
      <point x="68" y="452"/>
      <point x="68" y="149" type="curve" smooth="yes"/>
      <point x="68" y="-117"/>
      <point x="138" y="-239"/>
    </contour>
  </outline>
</glyph>
<glyph name="qhook" format="2">
  <advance width="500"/>
  <unicode hex="02A0"/>
  <anchor x="250" y="-240" name="bottom"/>
  <anchor x="250" y="768" name="top"/>
  <outline>
    <contour>
      <point x="358" y="-240" type="line"/>
      <point x="439" y="-240" type="line"/>
      <point x="439" y="624" type="line" smooth="yes"/>
      <point x="439" y="680"/>
      <point x="455" y="696"/>
      <point x="496" y="696" type="curve" smooth="yes"/>
      <point x="510" y="696"/>
      <point x="526" y="693"/>
      <point x="541" y="687" type="curve"/>
      <point x="541" y="759" type="line"/>
      <point x="529" y="764"/>
      <point x="504" y="768"/>
      <point x="483" y="768" type="curve" smooth="yes"/>
      <point x="409" y="768"/>
      <point x="358" y="718"/>
      <point x="358" y="627" type="curve" smooth="yes"/>
      <point x="358" y="530" type="line" smooth="yes"/>
      <point x="358" y="510"/>
      <point x="359" y="488"/>
      <point x="361" y="466" type="curve"/>
      <point x="356" y="466" type="line"/>
      <point x="328" y="522"/>
      <point x="287" y="547"/>
      <point x="223" y="547" type="curve" smooth="yes"/>
      <point x="112" y="547"/>
      <point x="41" y="452"/>
      <point x="41" y="266" type="curve" smooth="yes"/>
      <point x="41" y="85"/>
      <point x="111" y="-10"/>
      <point x="219" y="-10" type="curve" smooth="yes"/>
      <point x="287" y="-10"/>
      <point x="330" y="19"/>
      <point x="358" y="75" type="curve"/>
      <point x="362" y="75" type="line"/>
      <point x="359" y="43"/>
      <point x="358" y="13"/>
      <point x="358" y="-9" type="curve" smooth="yes"/>
    </contour>
    <contour>
      <point x="247" y="63" type="curve" smooth="yes"/>
      <point x="169" y="63"/>
      <point x="126" y="123"/>
      <point x="126" y="265" type="curve" smooth="yes"/>
      <point x="126" y="402"/>
      <point x="167" y="474"/>
      <point x="243" y="474" type="curve" smooth="yes"/>
      <point x="322" y="474"/>
      <point x="361" y="412"/>
      <point x="361" y="270" type="curve" smooth="yes"/>
      <point x="361" y="245" type="line" smooth="yes"/>
      <point x="361" y="123"/>
      <point x="320" y="63"/>
    </contour>
  </outline>
</glyph>
<glyph name="tslig" format="2">
  <advance width="500"/>
  <unicode hex="02A6"/>
  <anchor x="250" y="0" name="bottom"/>
  <anchor x="250" y="660" name="top"/>
  <outline>
    <contour>
      <point x="217" y="0" type="curve" smooth="yes"/>
      <point x="310" y="0" type="line" smooth="yes"/>
      <point x="413" y="0"/>
      <point x="474" y="57"/>
      <point x="474" y="153" type="curve" smooth="yes"/>
      <point x="474" y="237"/>
      <point x="427" y="269"/>
      <point x="366" y="308" type="curve" smooth="yes"/>
      <point x="297" y="352"/>
      <point x="271" y="369"/>
      <point x="271" y="411" type="curve" smooth="yes"/>
      <point x="271" y="450"/>
      <point x="293" y="475"/>
      <point x="351" y="475" type="curve" smooth="yes"/>
      <point x="384" y="475"/>
      <point x="408" y="467"/>
      <point x="437" y="454" type="curve"/>
      <point x="462" y="523" type="line"/>
      <point x="434" y="537"/>
      <point x="398" y="547"/>
      <point x="355" y="547" type="curve" smooth="yes"/>
      <point x="327" y="547"/>
      <point x="310" y="543"/>
      <point x="290" y="537" type="curve"/>
      <point x="141" y="537" type="line"/>
      <point x="141" y="660" type="line"/>
      <point x="91" y="660" type="line"/>
      <point x="60" y="546" type="line"/>
      <point x="6" y="511" type="line"/>
      <point x="6" y="469" type="line"/>
      <point x="58" y="469" type="line"/>
      <point x="58" y="166" type="line" smooth="yes"/>
      <point x="58" y="36"/>
      <point x="119" y="0"/>
    </contour>
    <contour>
      <point x="234" y="72" type="line"/>
      <point x="170" y="72"/>
      <point x="141" y="103"/>
      <point x="141" y="168" type="curve" smooth="yes"/>
      <point x="141" y="469" type="line"/>
      <point x="202" y="469" type="line"/>
      <point x="195" y="450"/>
      <point x="191" y="429"/>
      <point x="191" y="406" type="curve" smooth="yes"/>
      <point x="191" y="326"/>
      <point x="241" y="292"/>
      <point x="311" y="247" type="curve" smooth="yes"/>
      <point x="365" y="212"/>
      <point x="393" y="190"/>
      <point x="393" y="143" type="curve" smooth="yes"/>
      <point x="393" y="92"/>
      <point x="361" y="72"/>
      <point x="303" y="72" type="curve" smooth="yes"/>
    </contour>
  </outline>
</glyph>
<glyph name="uni02AE" format="2">
  <advance width="500"/>
  <unicode hex="02AE"/>
  <anchor x="250" y="-240" name="bottom"/>
  <anchor x="250" y="536" name="top"/>
  <outline>
    <contour>
      <point x="358" y="-224" type="line"/>
      <point x="440" y="-224" type="line"/>
      <point x="440" y="536" type="line"/>
      <point x="358" y="536" type="line"/>
      <point x="358" y="257" type="line" smooth="yes"/>
      <point x="358" y="133"/>
      <point x="320" y="62"/>
      <point x="238" y="62" type="curve" smooth="yes"/>
      <point x="170" y="62"/>
      <point x="137" y="110"/>
      <point x="137" y="203" type="curve" smooth="yes"/>
      <point x="137" y="410" type="line" smooth="yes"/>
      <point x="137" y="506"/>
      <point x="90" y="547"/>
      <point x="16" y="547" type="curve" smooth="yes"/>
      <point x="-3" y="547"/>
      <point x="-25" y="543"/>
      <point x="-37" y="537" type="curve"/>
      <point x="-37" y="466" type="line"/>
      <point x="-23" y="471"/>
      <point x="-9" y="474"/>
      <point x="4" y="474" type="curve" smooth="yes"/>
      <point x="41" y="474"/>
      <point x="55" y="457"/>
      <point x="55" y="403" type="curve" smooth="yes"/>
      <point x="55" y="186" type="line" smooth="yes"/>
      <point x="55" y="49"/>
      <point x="125" y="-11"/>
      <point x="219" y="-11" type="curve" smooth="yes"/>
      <point x="289" y="-11"/>
      <point x="330" y="23"/>
      <point x="357" y="73" type="curve"/>
      <point x="362" y="73" type="line"/>
      <point x="361" y="50"/>
      <point x="358" y="26"/>
      <point x="358" y="4" type="curve" smooth="yes"/>
    </contour>
  </outline>
</glyph>
<glyph name="uni02AF" format="2">
  <advance width="500"/>
  <unicode hex="02AF"/>
  <anchor x="250" y="-240" name="bottom"/>
  <anchor x="250" y="536" name="top"/>
  <outline>
    <contour>
      <point x="459" y="-240" type="curve" smooth="yes"/>
      <point x="486" y="-240"/>
      <point x="510" y="-234"/>
      <point x="531" y="-224" type="curve"/>
      <point x="531" y="-155" type="line"/>
      <point x="521" y="-161"/>
      <point x="497" y="-167"/>
      <point x="480" y="-167" type="curve" smooth="yes"/>
      <point x="452" y="-167"/>
      <point x="440" y="-149"/>
      <point x="440" y="-101" type="curve" smooth="yes"/>
      <point x="440" y="536" type="line"/>
      <point x="358" y="536" type="line"/>
      <point x="358" y="257" type="line" smooth="yes"/>
      <point x="358" y="133"/>
      <point x="320" y="62"/>
      <point x="238" y="62" type="curve" smooth="yes"/>
      <point x="170" y="62"/>
      <point x="137" y="110"/>
      <point x="137" y="203" type="curve" smooth="yes"/>
      <point x="137" y="410" type="line" smooth="yes"/>
      <point x="137" y="506"/>
      <point x="90" y="547"/>
      <point x="16" y="547" type="curve" smooth="yes"/>
      <point x="-3" y="547"/>
      <point x="-25" y="543"/>
      <point x="-37" y="537" type="curve"/>
      <point x="-37" y="466" type="line"/>
      <point x="-23" y="471"/>
      <point x="-9" y="474"/>
      <point x="4" y="474" type="curve" smooth="yes"/>
      <point x="41" y="474"/>
      <point x="55" y="457"/>
      <point x="55" y="403" type="curve" smooth="yes"/>
      <point x="55" y="186" type="line" smooth="yes"/>
      <point x="55" y="49"/>
      <point x="125" y="-11"/>
      <point x="219" y="-11" type="curve" smooth="yes"/>
      <point x="289" y="-11"/>
      <point x="330" y="23"/>
      <point x="357" y="73" type="curve"/>
      <point x="362" y="73" type="line"/>
      <point x="361" y="50"/>
      <point x="358" y="27"/>
      <point x="358" y="4" type="curve" smooth="yes"/>
      <point x="358" y="-110" type="line" smooth="yes"/>
      <point x="358" y="-199"/>
      <point x="390" y="-240"/>
    </contour>
  </outline>
</glyph>
<glyph name="uni02C4" format="2">
  <advance width="500"/>
  <unicode hex="02C4"/>
  <outline>
    <contour>
      <point x="128" y="546" type="line"/>
      <point x="166" y="546" type="line"/>
      <point x="246" y="732" type="line"/>
      <point x="335" y="546" type="line"/>
      <point x="373" y="546" type="line"/>
      <point x="259" y="781" type="line"/>
      <point x="235" y="781" type="line"/>
    </contour>
  </outline>
</glyph>
<glyph name="uni02D0" format="2">
  <advance width="500"/>
  <unicode hex="02D0"/>
  <outline>
    <contour>
      <point x="249" y="412" type="line"/>
      <point x="313" y="537" type="line"/>
      <point x="187" y="537" type="line"/>
    </contour>
    <contour>
      <point x="187" y="0" type="line"/>
      <point x="313" y="0" type="line"/>
      <point x="249" y="125" type="line"/>
    </contour>
  </outline>
</glyph>
<glyph name="uni02D1" format="2">
  <advance width="500"/>
  <unicode hex="02D1"/>
  <outline>
    <contour>
      <point x="249" y="405" type="line"/>
      <point x="313" y="537" type="line"/>
      <point x="187" y="537" type="line"/>
    </contour>
  </outline>
</glyph>
<glyph name="uni02D7" format="2">
  <advance width="500"/>
  <unicode hex="02D7"/>
  <outline>
    <contour>
      <point x="165" y="349" type="line"/>
      <point x="165" y="299" type="line"/>
      <point x="335" y="299" type="line"/>
      <point x="335" y="349" type="line"/>
    </contour>
  </outline>
</glyph>
<glyph name="breve" format="2">
  <advance width="500"/>
  <unicode hex="02D8"/>
  <anchor x="249" y="536" name="_top"/>
  <anchor x="251" y="765" name="top"/>
  <outline>
    <contour>
      <point x="250" y="611" type="curve" smooth="yes"/>
      <point x="324" y="611"/>
      <point x="371" y="660"/>
      <point x="372" y="741" type="curve"/>
      <point x="320" y="741" type="line"/>
      <point x="315" y="692"/>
      <point x="290" y="669"/>
      <point x="250" y="669" type="curve" smooth="yes"/>
      <point x="209" y="669"/>
      <point x="185" y="693"/>
      <point x="181" y="741" type="curve"/>
      <point x="128" y="741" type="line"/>
      <point x="131" y="655"/>
      <point x="177" y="611"/>
    </contour>
  </outline>
</glyph>
<glyph name="ring" format="2">
  <advance width="500"/>
  <unicode hex="02DA"/>
  <outline>
    <contour>
      <point x="251" y="609" type="curve" smooth="yes"/>
      <point x="314" y="609"/>
      <point x="355" y="650"/>
      <point x="355" y="710" type="curve" smooth="yes"/>
      <point x="355" y="771"/>
      <point x="311" y="810"/>
      <point x="251" y="810" type="curve" smooth="yes"/>
      <point x="185" y="810"/>
      <point x="145" y="770"/>
      <point x="145" y="710" type="curve" smooth="yes"/>
      <point x="145" y="649"/>
      <point x="185" y="609"/>
    </contour>
    <contour>
      <point x="251" y="658" type="curve" smooth="yes"/>
      <point x="219" y="658"/>
      <point x="197" y="678"/>
      <point x="197" y="710" type="curve" smooth="yes"/>
      <point x="197" y="740"/>
      <point x="219" y="762"/>
      <point x="251" y="762" type="curve" smooth="yes"/>
      <point x="285" y="762"/>
      <point x="304" y="740"/>
      <point x="304" y="710" type="curve" smooth="yes"/>
      <point x="304" y="678"/>
      <point x="282" y="658"/>
    </contour>
  </outline>
</glyph>
<glyph name="hungarumlaut" format="2">
  <advance width="500"/>
  <unicode hex="02DD"/>
  <outline>
    <contour>
      <point x="288" y="606" type="line"/>
      <point x="329" y="606" type="line"/>
      <point x="367" y="640"/>
      <point x="429" y="713"/>
      <point x="451" y="757" type="curve"/>
      <point x="451" y="766" type="line"/>
      <point x="367" y="766" type="line"/>
      <point x="355" y="736"/>
      <point x="317" y="661"/>
      <point x="288" y="617" type="curve"/>
    </contour>
    <contour>
      <point x="144" y="606" type="line"/>
      <point x="183" y="606" type="line"/>
      <point x="231" y="647"/>
      <point x="284" y="711"/>
      <point x="307" y="757" type="curve"/>
      <point x="307" y="766" type="line"/>
      <point x="223" y="766" type="line"/>
      <point x="209" y="733"/>
      <point x="174" y="664"/>
      <point x="144" y="617" type="curve"/>
    </contour>
  </outline>
</glyph>
<glyph name="rhotichookmod" format="2">
  <advance width="500"/>
  <unicode hex="02DE"/>
  <outline>
    <contour>
      <point x="189" y="206" type="curve" smooth="yes"/>
      <point x="222" y="206"/>
      <point x="253" y="218"/>
      <point x="273" y="236" type="curve"/>
      <point x="251" y="281" type="line"/>
      <point x="235" y="270"/>
      <point x="218" y="263"/>
      <point x="199" y="263" type="curve" smooth="yes"/>
      <point x="164" y="263"/>
      <point x="155" y="286"/>
      <point x="139" y="353" type="curve" smooth="yes"/>
      <point x="127" y="403" type="line"/>
      <point x="-88" y="324" type="line"/>
      <point x="-72" y="270" type="line"/>
      <point x="87" y="328" type="line"/>
      <point x="106" y="244"/>
      <point x="132" y="206"/>
    </contour>
  </outline>
</glyph>
<glyph name="uni02EF" format="2">
  <advance width="500"/>
  <unicode hex="02EF"/>
  <outline>
    <contour>
      <point x="237" y="-220" type="line"/>
      <point x="265" y="-220" type="line"/>
      <point x="361" y="-29" type="line"/>
      <point x="318" y="-29" type="line"/>
      <point x="251" y="-163" type="line"/>
      <point x="185" y="-29" type="line"/>
      <point x="140" y="-29" type="line"/>
    </contour>
  </outline>
</glyph>
<glyph name="uni02FC" format="2">
  <advance width="500"/>
  <unicode hex="02FC"/>
  <outline>
    <contour>
      <point x="167" y="0" type="line"/>
      <point x="333" y="0" type="line"/>
      <point x="333" y="266" type="line"/>
      <point x="280" y="266" type="line"/>
      <point x="280" y="53" type="line"/>
      <point x="167" y="53" type="line"/>
    </contour>
  </outline>
</glyph>
<glyph name="uni02FF" format="2">
  <advance width="500"/>
  <unicode hex="02FF"/>
  <outline>
    <contour>
      <point x="262" y="-220" type="line"/>
      <point x="262" y="-173" type="line"/>
      <point x="169" y="-104" type="line"/>
      <point x="403" y="-104" type="line"/>
      <point x="403" y="-60" type="line"/>
      <point x="169" y="-60" type="line"/>
      <point x="262" y="8" type="line"/>
      <point x="262" y="55" type="line"/>
      <point x="97" y="-65" type="line"/>
      <point x="97" y="-99" type="line"/>
    </contour>
  </outline>
</glyph>
<glyph name="plusbelowcomb" format="2">
  <unicode hex="031F"/>
  <anchor x="0" y="0" name="_bottom"/>
  <anchor x="0" y="-205" name="bottom"/>
  <outline>
    <contour>
      <point x="-24" y="-205" type="line"/>
      <point x="23" y="-205" type="line"/>
      <point x="23" y="-145" type="line"/>
      <point x="74" y="-145" type="line"/>
      <point x="74" y="-98" type="line"/>
      <point x="23" y="-98" type="line"/>
      <point x="23" y="-38" type="line"/>
      <point x="-24" y="-38" type="line"/>
      <point x="-24" y="-98" type="line"/>
      <point x="-75" y="-98" type="line"/>
      <point x="-75" y="-145" type="line"/>
      <point x="-24" y="-145" type="line"/>
    </contour>
  </outline>
</glyph>
<glyph name="hookpalatalizedbelowcomb" format="2">
  <unicode hex="0321"/>
  <outline>
    <contour>
      <point x="-23" y="-237" type="curve"/>
      <point x="38" y="-237"/>
      <point x="69" y="-200"/>
      <point x="69" y="-116" type="curve" smooth="yes"/>
      <point x="69" y="41" type="line"/>
      <point x="-1" y="41" type="line"/>
      <point x="-1" y="-116" type="line" smooth="yes"/>
      <point x="-1" y="-157"/>
      <point x="-14" y="-172"/>
      <point x="-36" y="-172" type="curve"/>
      <point x="-49" y="-172"/>
      <point x="-61" y="-166"/>
      <point x="-70" y="-163" type="curve"/>
      <point x="-70" y="-226" type="line"/>
      <point x="-58" y="-231"/>
      <point x="-41" y="-237"/>
    </contour>
  </outline>
</glyph>
<glyph name="commaaccent" format="2">
  <unicode hex="0326"/>
  <anchor x="0" y="0" name="_bottom"/>
  <anchor x="0" y="-221" name="bottom"/>
  <outline>
    <contour>
      <point x="-76" y="-221" type="line"/>
      <point x="-29" y="-221" type="line"/>
      <point x="3" y="-180"/>
      <point x="34" y="-111"/>
      <point x="46" y="-69" type="curve"/>
      <point x="46" y="-61" type="line"/>
      <point x="-39" y="-61" type="line"/>
      <point x="-44" y="-103"/>
      <point x="-63" y="-175"/>
      <point x="-76" y="-210" type="curve"/>
    </contour>
  </outline>
</glyph>
<glyph name="fermatacomb" format="2">
  <unicode hex="0352"/>
  <anchor x="0" y="537" name="_top"/>
  <anchor x="0" y="808" name="top"/>
  <outline>
    <contour>
      <point x="-125" y="670" type="curve"/>
      <point x="-78" y="670" type="line"/>
      <point x="-72" y="726"/>
      <point x="-45" y="754"/>
      <point x="-1" y="754" type="curve" smooth="yes"/>
      <point x="44" y="754"/>
      <point x="73" y="727"/>
      <point x="78" y="670" type="curve"/>
      <point x="125" y="670" type="line"/>
      <point x="121" y="759"/>
      <point x="80" y="808"/>
      <point x="1" y="808" type="curve" smooth="yes"/>
      <point x="-77" y="808"/>
      <point x="-118" y="758"/>
    </contour>
    <contour>
      <point x="2" y="606" type="curve" smooth="yes"/>
      <point x="25" y="606"/>
      <point x="38" y="623"/>
      <point x="38" y="658" type="curve" smooth="yes"/>
      <point x="38" y="692"/>
      <point x="25" y="709"/>
      <point x="2" y="709" type="curve" smooth="yes"/>
      <point x="-22" y="709"/>
      <point x="-36" y="689"/>
      <point x="-36" y="658" type="curve" smooth="yes"/>
      <point x="-36" y="624"/>
      <point x="-22" y="606"/>
    </contour>
  </outline>
</glyph>
<glyph name="doubleringbelowcomb" format="2">
  <unicode hex="035A"/>
  <anchor x="0" y="0" name="_bottom"/>
  <anchor x="0" y="-239" name="bottom"/>
  <outline>
    <contour>
      <point x="-74" y="-239" type="curve" smooth="yes"/>
      <point x="-41" y="-239"/>
      <point x="-16" y="-225"/>
      <point x="-1" y="-197" type="curve"/>
      <point x="14" y="-225"/>
      <point x="39" y="-239"/>
      <point x="72" y="-239" type="curve" smooth="yes"/>
      <point x="128" y="-239"/>
      <point x="165" y="-200"/>
      <point x="165" y="-135" type="curve" smooth="yes"/>
      <point x="165" y="-72"/>
      <point x="127" y="-31"/>
      <point x="72" y="-31" type="curve" smooth="yes"/>
      <point x="39" y="-31"/>
      <point x="14" y="-47"/>
      <point x="-1" y="-73" type="curve"/>
      <point x="-14" y="-47"/>
      <point x="-40" y="-31"/>
      <point x="-74" y="-31" type="curve" smooth="yes"/>
      <point x="-128" y="-31"/>
      <point x="-166" y="-72"/>
      <point x="-166" y="-135" type="curve" smooth="yes"/>
      <point x="-166" y="-200"/>
      <point x="-129" y="-239"/>
    </contour>
    <contour>
      <point x="-73" y="-200" type="curve" smooth="yes"/>
      <point x="-106" y="-200"/>
      <point x="-126" y="-176"/>
      <point x="-126" y="-135" type="curve" smooth="yes"/>
      <point x="-126" y="-95"/>
      <point x="-104" y="-70"/>
      <point x="-73" y="-70" type="curve" smooth="yes"/>
      <point x="-42" y="-70"/>
      <point x="-19" y="-95"/>
      <point x="-19" y="-135" type="curve" smooth="yes"/>
      <point x="-19" y="-176"/>
      <point x="-40" y="-200"/>
    </contour>
    <contour>
      <point x="72" y="-200" type="curve" smooth="yes"/>
      <point x="40" y="-200"/>
      <point x="18" y="-176"/>
      <point x="18" y="-135" type="curve" smooth="yes"/>
      <point x="18" y="-95"/>
      <point x="40" y="-70"/>
      <point x="72" y="-70" type="curve" smooth="yes"/>
      <point x="103" y="-70"/>
      <point x="125" y="-95"/>
      <point x="125" y="-135" type="curve" smooth="yes"/>
      <point x="125" y="-176"/>
      <point x="105" y="-200"/>
    </contour>
  </outline>
</glyph>
<glyph name="tildedoublecomb" format="2">
  <unicode hex="0360"/>
  <anchor x="0" y="537" name="_top"/>
  <anchor x="0" y="735" name="top"/>
  <outline>
    <contour>
      <point x="-277" y="607" type="curve"/>
      <point x="-227" y="607" type="line"/>
      <point x="-221" y="646"/>
      <point x="-201" y="671"/>
      <point x="-150" y="671" type="curve" smooth="yes"/>
      <point x="-44" y="671"/>
      <point x="39" y="608"/>
      <point x="144" y="608" type="curve" smooth="yes"/>
      <point x="217" y="608"/>
      <point x="267" y="645"/>
      <point x="277" y="735" type="curve"/>
      <point x="228" y="735" type="line"/>
      <point x="223" y="698"/>
      <point x="204" y="671"/>
      <point x="153" y="671" type="curve" smooth="yes"/>
      <point x="44" y="671"/>
      <point x="-38" y="733"/>
      <point x="-145" y="733" type="curve" smooth="yes"/>
      <point x="-217" y="733"/>
      <point x="-267" y="696"/>
    </contour>
  </outline>
</glyph>
<glyph name="archaicsampi" format="2">
  <advance width="500"/>
  <unicode hex="0373"/>
  <anchor x="249" y="0" name="bottom"/>
  <anchor x="250" y="357" name="center"/>
  <anchor x="250" y="760" name="top"/>
  <outline>
    <contour>
      <point x="207" y="0" type="line"/>
      <point x="291" y="0" type="line"/>
      <point x="291" y="682" type="line"/>
      <point x="465" y="682" type="line"/>
      <point x="465" y="760" type="line"/>
      <point x="35" y="760" type="line"/>
      <point x="35" y="682" type="line"/>
      <point x="207" y="682" type="line"/>
    </contour>
    <contour>
      <point x="35" y="499" type="line"/>
      <point x="107" y="499" type="line"/>
      <point x="107" y="760" type="line"/>
      <point x="35" y="760" type="line"/>
    </contour>
    <contour>
      <point x="393" y="499" type="line"/>
      <point x="465" y="499" type="line"/>
      <point x="465" y="760" type="line"/>
      <point x="393" y="760" type="line"/>
    </contour>
  </outline>
</glyph>
<glyph name="uni0375" format="2">
  <advance width="500"/>
  <unicode hex="0375"/>
  <outline>
    <contour>
      <point x="178" y="-220" type="line"/>
      <point x="261" y="-220" type="line"/>
      <point x="275" y="-174"/>
      <point x="299" y="-117"/>
      <point x="323" y="-72" type="curve"/>
      <point x="323" y="-60" type="line"/>
      <point x="281" y="-60" type="line"/>
      <point x="244" y="-96"/>
      <point x="203" y="-159"/>
      <point x="178" y="-210" type="curve"/>
    </contour>
  </outline>
</glyph>
<glyph name="dieresistonos" format="2">
  <advance width="500"/>
  <unicode hex="0385"/>
  <anchor x="250" y="536" name="_top"/>
  <anchor x="250" y="789" name="top"/>
  <outline>
    <contour>
      <point x="220" y="647" type="line"/>
      <point x="260" y="647" type="line"/>
      <point x="283" y="686"/>
      <point x="308" y="744"/>
      <point x="318" y="781" type="curve"/>
      <point x="318" y="789" type="line"/>
      <point x="245" y="789" type="line"/>
      <point x="243" y="755"/>
      <point x="232" y="698"/>
      <point x="220" y="655" type="curve"/>
    </contour>
    <contour>
      <point x="155" y="595" type="curve" smooth="yes"/>
      <point x="178" y="595"/>
      <point x="196" y="613"/>
      <point x="196" y="646" type="curve" smooth="yes"/>
      <point x="196" y="680"/>
      <point x="178" y="698"/>
      <point x="155" y="698" type="curve" smooth="yes"/>
      <point x="131" y="698"/>
      <point x="113" y="680"/>
      <point x="113" y="646" type="curve" smooth="yes"/>
      <point x="113" y="613"/>
      <point x="131" y="595"/>
    </contour>
    <contour>
      <point x="345" y="595" type="curve" smooth="yes"/>
      <point x="369" y="595"/>
      <point x="387" y="614"/>
      <point x="387" y="646" type="curve" smooth="yes"/>
      <point x="387" y="681"/>
      <point x="369" y="699"/>
      <point x="345" y="699" type="curve" smooth="yes"/>
      <point x="322" y="699"/>
      <point x="304" y="681"/>
      <point x="304" y="647" type="curve" smooth="yes"/>
      <point x="304" y="614"/>
      <point x="322" y="595"/>
    </contour>
  </outline>
</glyph>
<glyph name="Epsilontonos" format="2">
  <advance width="500"/>
  <unicode hex="0388"/>
  <anchor x="293" y="0" name="bottom"/>
  <anchor x="287" y="714" name="top"/>
  <anchor x="53" y="714" name="topleft"/>
  <outline>
    <contour>
      <point x="113" y="0" type="line"/>
      <point x="440" y="0" type="line"/>
      <point x="440" y="78" type="line"/>
      <point x="197" y="78" type="line"/>
      <point x="197" y="331" type="line"/>
      <point x="422" y="331" type="line"/>
      <point x="422" y="409" type="line"/>
      <point x="197" y="409" type="line"/>
      <point x="197" y="636" type="line"/>
      <point x="440" y="636" type="line"/>
      <point x="440" y="714" type="line"/>
      <point x="113" y="714" type="line"/>
    </contour>
    <component base="tonos" xOffset="-265"/>
  </outline>
</glyph>
<glyph name="Sigma" format="2">
  <advance width="500"/>
  <unicode hex="03A3"/>
  <anchor x="250" y="0" name="bottom"/>
  <anchor x="250" y="714" name="top"/>
  <outline>
    <contour>
      <point x="65" y="0" type="line"/>
      <point x="445" y="0" type="line"/>
      <point x="445" y="76" type="line"/>
      <point x="235" y="76" type="line" smooth="yes"/>
      <point x="213" y="76"/>
      <point x="182" y="74"/>
      <point x="157" y="72" type="curve"/>
      <point x="335" y="372" type="line"/>
      <point x="167" y="642" type="line"/>
      <point x="188" y="640"/>
      <point x="218" y="639"/>
      <point x="245" y="639" type="curve" smooth="yes"/>
      <point x="428" y="639" type="line"/>
      <point x="428" y="714" type="line"/>
      <point x="72" y="714" type="line"/>
      <point x="72" y="646" type="line"/>
      <point x="242" y="372" type="line"/>
      <point x="65" y="70" type="line"/>
    </contour>
  </outline>
</glyph>
<glyph name="Psi" format="2">
  <advance width="500"/>
  <unicode hex="03A8"/>
  <anchor x="250" y="0" name="bottom"/>
  <anchor x="250" y="714" name="top"/>
  <outline>
    <contour>
      <point x="209" y="0" type="line"/>
      <point x="291" y="0" type="line"/>
      <point x="291" y="211" type="line"/>
      <point x="435" y="215"/>
      <point x="480" y="310"/>
      <point x="480" y="474" type="curve" smooth="yes"/>
      <point x="480" y="714" type="line"/>
      <point x="397" y="714" type="line"/>
      <point x="397" y="479" type="line" smooth="yes"/>
      <point x="397" y="340"/>
      <point x="373" y="289"/>
      <point x="291" y="288" type="curve"/>
      <point x="291" y="714" type="line"/>
      <point x="209" y="714" type="line"/>
      <point x="209" y="288" type="line"/>
      <point x="114" y="288"/>
      <point x="102" y="367"/>
      <point x="102" y="479" type="curve" smooth="yes"/>
      <point x="102" y="714" type="line"/>
      <point x="20" y="714" type="line"/>
      <point x="20" y="464" type="line" smooth="yes"/>
      <point x="20" y="308"/>
      <point x="65" y="216"/>
      <point x="209" y="211" type="curve"/>
    </contour>
  </outline>
</glyph>
<glyph name="gamma" format="2">
  <advance width="500"/>
  <unicode hex="03B3"/>
  <anchor x="252" y="-240" name="bottom"/>
  <anchor x="254" y="536" name="top"/>
  <anchor x="480" y="536" name="topright"/>
  <outline>
    <contour>
      <point x="180" y="-240" type="curve"/>
      <point x="264" y="-240" type="line"/>
      <point x="264" y="-161"/>
      <point x="282" y="-52"/>
      <point x="308" y="30" type="curve" smooth="yes"/>
      <point x="470" y="536" type="line"/>
      <point x="385" y="536" type="line"/>
      <point x="307" y="302" type="line" smooth="yes"/>
      <point x="280" y="222"/>
      <point x="264" y="154"/>
      <point x="255" y="95" type="curve"/>
      <point x="251" y="95" type="line"/>
      <point x="242" y="155"/>
      <point x="224" y="221"/>
      <point x="196" y="303" type="curve" smooth="yes"/>
      <point x="117" y="536" type="line"/>
      <point x="30" y="536" type="line"/>
      <point x="210" y="-8" type="line"/>
      <point x="196" y="-70"/>
      <point x="180" y="-182"/>
    </contour>
  </outline>
</glyph>
<glyph name="delta" format="2">
  <advance width="500"/>
  <unicode hex="03B4"/>
  <anchor x="246" y="0" name="bottom"/>
  <anchor x="277" y="762" name="top"/>
  <outline>
    <contour>
      <point x="248" y="-10" type="curve" smooth="yes"/>
      <point x="386" y="-10"/>
      <point x="460" y="86"/>
      <point x="460" y="221" type="curve" smooth="yes"/>
      <point x="460" y="332"/>
      <point x="405" y="401"/>
      <point x="304" y="484" type="curve" smooth="yes"/>
      <point x="238" y="538"/>
      <point x="193" y="578"/>
      <point x="193" y="627" type="curve" smooth="yes"/>
      <point x="193" y="666"/>
      <point x="232" y="691"/>
      <point x="279" y="691" type="curve" smooth="yes"/>
      <point x="314" y="691"/>
      <point x="350" y="680"/>
      <point x="388" y="656" type="curve"/>
      <point x="418" y="724" type="line"/>
      <point x="383" y="745"/>
      <point x="334" y="762"/>
      <point x="278" y="762" type="curve" smooth="yes"/>
      <point x="183" y="762"/>
      <point x="113" y="714"/>
      <point x="113" y="626" type="curve" smooth="yes"/>
      <point x="113" y="562"/>
      <point x="155" y="512"/>
      <point x="222" y="455" type="curve"/>
      <point x="110" y="418"/>
      <point x="40" y="327"/>
      <point x="40" y="215" type="curve" smooth="yes"/>
      <point x="40" y="87"/>
      <point x="107" y="-10"/>
    </contour>
    <contour>
      <point x="249" y="60" type="curve" smooth="yes"/>
      <point x="165" y="60"/>
      <point x="123" y="134"/>
      <point x="123" y="217" type="curve" smooth="yes"/>
      <point x="123" y="305"/>
      <point x="173" y="382"/>
      <point x="266" y="412" type="curve"/>
      <point x="345" y="355"/>
      <point x="378" y="294"/>
      <point x="378" y="223" type="curve" smooth="yes"/>
      <point x="378" y="118"/>
      <point x="332" y="60"/>
    </contour>
  </outline>
</glyph>
<glyph name="iota" format="2">
  <advance width="500"/>
  <unicode hex="03B9"/>
  <anchor x="313" y="0" name="bottom"/>
  <anchor x="246" y="536" name="top"/>
  <outline>
    <contour>
      <point x="324" y="-10" type="curve" smooth="yes"/>
      <point x="355" y="-10"/>
      <point x="386" y="-4"/>
      <point x="406" y="6" type="curve"/>
      <point x="406" y="75" type="line"/>
      <point x="396" y="69"/>
      <point x="367" y="63"/>
      <point x="344" y="63" type="curve" smooth="yes"/>
      <point x="303" y="63"/>
      <point x="286" y="81"/>
      <point x="286" y="129" type="curve" smooth="yes"/>
      <point x="286" y="536" type="line"/>
      <point x="205" y="536" type="line"/>
      <point x="205" y="121" type="line" smooth="yes"/>
      <point x="205" y="31"/>
      <point x="241" y="-10"/>
    </contour>
  </outline>
</glyph>
<glyph name="mu" format="2">
  <advance width="500"/>
  <unicode hex="03BC"/>
  <anchor x="250" y="-240" name="bottom"/>
  <anchor x="250" y="536" name="top"/>
  <anchor x="450" y="10" name="ogonek"/>
  <anchor x="480" y="536" name="topright"/>
  <outline>
    <contour>
      <point x="55" y="-240" type="line"/>
      <point x="137" y="-240" type="line"/>
      <point x="137" y="268" type="line"/>
      <point x="55" y="268" type="line"/>
    </contour>
    <component base="u"/>
  </outline>
</glyph>
<glyph name="sigma1" format="2">
  <advance width="500"/>
  <unicode hex="03C2"/>
  <anchor x="298" y="-198" name="bottom"/>
  <anchor x="310" y="536" name="top"/>
  <outline>
    <contour>
      <point x="257" y="-198" type="curve"/>
      <point x="344" y="-198" type="line"/>
      <point x="373" y="-156"/>
      <point x="400" y="-104"/>
      <point x="400" y="-52" type="curve" smooth="yes"/>
      <point x="400" y="30"/>
      <point x="333" y="61"/>
      <point x="293" y="79" type="curve" smooth="yes"/>
      <point x="195" y="123"/>
      <point x="153" y="148"/>
      <point x="153" y="278" type="curve" smooth="yes"/>
      <point x="153" y="412"/>
      <point x="207" y="473"/>
      <point x="308" y="473" type="curve" smooth="yes"/>
      <point x="337" y="473"/>
      <point x="357" y="469"/>
      <point x="390" y="452" type="curve"/>
      <point x="417" y="520" type="line"/>
      <point x="387" y="536"/>
      <point x="356" y="547"/>
      <point x="308" y="547" type="curve" smooth="yes"/>
      <point x="157" y="547"/>
      <point x="70" y="457"/>
      <point x="70" y="276" type="curve" smooth="yes"/>
      <point x="70" y="94"/>
      <point x="149" y="56"/>
      <point x="242" y="14" type="curve" smooth="yes"/>
      <point x="280" y="-3"/>
      <point x="319" y="-22"/>
      <point x="319" y="-66" type="curve" smooth="yes"/>
      <point x="319" y="-104"/>
      <point x="288" y="-155"/>
    </contour>
  </outline>
</glyph>
<glyph name="sigma" format="2">
  <advance width="500"/>
  <unicode hex="03C3"/>
  <anchor x="250" y="0" name="bottom"/>
  <anchor x="250" y="536" name="top"/>
  <outline>
    <contour>
      <point x="247" y="-10" type="curve" smooth="yes"/>
      <point x="375" y="-10"/>
      <point x="450" y="79"/>
      <point x="450" y="243" type="curve" smooth="yes"/>
      <point x="450" y="333"/>
      <point x="429" y="408"/>
      <point x="385" y="467" type="curve"/>
      <point x="468" y="467" type="line"/>
      <point x="468" y="537" type="line"/>
      <point x="293" y="537" type="line" smooth="yes"/>
      <point x="124" y="537"/>
      <point x="40" y="444"/>
      <point x="40" y="258" type="curve" smooth="yes"/>
      <point x="40" y="85"/>
      <point x="114" y="-10"/>
    </contour>
    <contour>
      <point x="247" y="60" type="curve" smooth="yes"/>
      <point x="168" y="60"/>
      <point x="121" y="124"/>
      <point x="121" y="259" type="curve" smooth="yes"/>
      <point x="121" y="401"/>
      <point x="171" y="467"/>
      <point x="280" y="467" type="curve" smooth="yes"/>
      <point x="315" y="467" type="line"/>
      <point x="351" y="398"/>
      <point x="369" y="330"/>
      <point x="369" y="247" type="curve" smooth="yes"/>
      <point x="369" y="126"/>
      <point x="329" y="60"/>
    </contour>
  </outline>
</glyph>
<glyph name="upsilon" format="2">
  <advance width="500"/>
  <unicode hex="03C5"/>
  <anchor x="247" y="0" name="bottom"/>
  <anchor x="250" y="536" name="top"/>
  <outline>
    <contour>
      <point x="242" y="-9" type="curve" smooth="yes"/>
      <point x="389" y="-9"/>
      <point x="449" y="86"/>
      <point x="449" y="286" type="curve" smooth="yes"/>
      <point x="449" y="366"/>
      <point x="440" y="435"/>
      <point x="419" y="537" type="curve"/>
      <point x="339" y="537" type="line"/>
      <point x="361" y="440"/>
      <point x="368" y="350"/>
      <point x="368" y="278" type="curve" smooth="yes"/>
      <point x="368" y="128"/>
      <point x="335" y="63"/>
      <point x="248" y="63" type="curve" smooth="yes"/>
      <point x="159" y="63"/>
      <point x="141" y="128"/>
      <point x="141" y="222" type="curve" smooth="yes"/>
      <point x="141" y="537" type="line"/>
      <point x="60" y="537" type="line"/>
      <point x="60" y="212" type="line" smooth="yes"/>
      <point x="60" y="75"/>
      <point x="102" y="-9"/>
    </contour>
  </outline>
</glyph>
<glyph name="chi" format="2">
  <advance width="500"/>
  <unicode hex="03C7"/>
  <anchor x="258" y="-244" name="bottom"/>
  <anchor x="258" y="536" name="top"/>
  <anchor x="480" y="536" name="topright"/>
  <outline>
    <contour>
      <point x="422" y="-244" type="curve" smooth="yes"/>
      <point x="442" y="-244"/>
      <point x="457" y="-242"/>
      <point x="470" y="-237" type="curve"/>
      <point x="470" y="-169" type="line"/>
      <point x="461" y="-172"/>
      <point x="451" y="-174"/>
      <point x="440" y="-174" type="curve" smooth="yes"/>
      <point x="409" y="-174"/>
      <point x="397" y="-151"/>
      <point x="374" y="-83" type="curve" smooth="yes"/>
      <point x="294" y="159" type="line"/>
      <point x="460" y="536" type="line"/>
      <point x="378" y="536" type="line"/>
      <point x="261" y="259" type="line"/>
      <point x="205" y="421" type="line" smooth="yes"/>
      <point x="175" y="509"/>
      <point x="150" y="544"/>
      <point x="93" y="544" type="curve" smooth="yes"/>
      <point x="75" y="544"/>
      <point x="59" y="541"/>
      <point x="47" y="537" type="curve"/>
      <point x="47" y="469" type="line"/>
      <point x="55" y="472"/>
      <point x="66" y="474"/>
      <point x="78" y="474" type="curve" smooth="yes"/>
      <point x="105" y="474"/>
      <point x="118" y="447"/>
      <point x="136" y="396" type="curve" smooth="yes"/>
      <point x="213" y="172" type="line"/>
      <point x="30" y="-240" type="line"/>
      <point x="115" y="-240" type="line"/>
      <point x="248" y="74" type="line"/>
      <point x="309" y="-115" type="line" smooth="yes"/>
      <point x="339" y="-208"/>
      <point x="365" y="-244"/>
    </contour>
  </outline>
</glyph>
<glyph name="psi" format="2">
  <advance width="500"/>
  <unicode hex="03C8"/>
  <anchor x="250" y="-240" name="bottom"/>
  <anchor x="250" y="760" name="top"/>
  <outline>
    <contour>
      <point x="217" y="-240" type="line"/>
      <point x="296" y="-240" type="line"/>
      <point x="296" y="-9" type="line"/>
      <point x="404" y="-2"/>
      <point x="460" y="100"/>
      <point x="460" y="286" type="curve" smooth="yes"/>
      <point x="460" y="365"/>
      <point x="450" y="444"/>
      <point x="427" y="537" type="curve"/>
      <point x="347" y="537" type="line"/>
      <point x="368" y="451"/>
      <point x="378" y="371"/>
      <point x="378" y="283" type="curve" smooth="yes"/>
      <point x="378" y="137"/>
      <point x="350" y="75"/>
      <point x="296" y="69" type="curve"/>
      <point x="296" y="760" type="line"/>
      <point x="217" y="760" type="line"/>
      <point x="217" y="69" type="line"/>
      <point x="164" y="76"/>
      <point x="141" y="136"/>
      <point x="141" y="255" type="curve" smooth="yes"/>
      <point x="141" y="537" type="line"/>
      <point x="60" y="537" type="line"/>
      <point x="60" y="245" type="line" smooth="yes"/>
      <point x="60" y="80"/>
      <point x="115" y="0"/>
      <point x="217" y="-9" type="curve"/>
    </contour>
  </outline>
</glyph>
<glyph name="KaiSymbol" format="2">
  <advance width="500"/>
  <unicode hex="03CF"/>
  <anchor x="250" y="714" name="top"/>
  <anchor x="480" y="714" name="topright"/>
  <anchor x="259" y="0" name="bottom"/>
  <outline>
    <contour>
      <point x="230" y="-240" type="curve" smooth="yes"/>
      <point x="357" y="-240"/>
      <point x="445" y="-173"/>
      <point x="475" y="0" type="curve"/>
      <point x="397" y="4" type="line"/>
      <point x="369" y="-126"/>
      <point x="302" y="-165"/>
      <point x="224" y="-165" type="curve" smooth="yes"/>
      <point x="169" y="-165"/>
      <point x="93" y="-146"/>
      <point x="46" y="-122" type="curve"/>
      <point x="46" y="-201" type="line"/>
      <point x="78" y="-216"/>
      <point x="154" y="-240"/>
    </contour>
    <component base="K"/>
  </outline>
</glyph>
<glyph name="uni03D7" format="2">
  <advance width="500"/>
  <unicode hex="03D7"/>
  <outline>
    <contour>
      <point x="429" y="-10" type="curve" smooth="yes"/>
      <point x="452" y="-10"/>
      <point x="469" y="-5"/>
      <point x="481" y="2" type="curve"/>
      <point x="481" y="69" type="line"/>
      <point x="472" y="64"/>
      <point x="462" y="61"/>
      <point x="448" y="61" type="curve" smooth="yes"/>
      <point x="407" y="61"/>
      <point x="386" y="100"/>
      <point x="386" y="202" type="curve" smooth="yes"/>
      <point x="386" y="326"/>
      <point x="418" y="440"/>
      <point x="459" y="536" type="curve"/>
      <point x="370" y="536" type="line"/>
      <point x="164" y="183" type="line"/>
      <point x="176" y="227"/>
      <point x="186" y="282"/>
      <point x="186" y="370" type="curve" smooth="yes"/>
      <point x="186" y="500"/>
      <point x="136" y="547"/>
      <point x="73" y="547" type="curve" smooth="yes"/>
      <point x="46" y="547"/>
      <point x="23" y="543"/>
      <point x="10" y="536" type="curve"/>
      <point x="21" y="468" type="line"/>
      <point x="30" y="474"/>
      <point x="40" y="477"/>
      <point x="52" y="477" type="curve" smooth="yes"/>
      <point x="88" y="477"/>
      <point x="108" y="430"/>
      <point x="108" y="328" type="curve" smooth="yes"/>
      <point x="108" y="202"/>
      <point x="75" y="80"/>
      <point x="40" y="0" type="curve"/>
      <point x="127" y="0" type="line"/>
      <point x="329" y="347" type="line"/>
      <point x="318" y="295"/>
      <point x="308" y="238"/>
      <point x="308" y="168" type="curve"/>
      <point x="308" y="35"/>
      <point x="358" y="-10"/>
    </contour>
    <contour>
      <point x="379" y="-240" type="curve" smooth="yes"/>
      <point x="442" y="-240"/>
      <point x="481" y="-198"/>
      <point x="481" y="-90" type="curve" smooth="yes"/>
      <point x="481" y="38" type="line"/>
      <point x="400" y="14" type="line"/>
      <point x="400" y="-89" type="line" smooth="yes"/>
      <point x="400" y="-148"/>
      <point x="387" y="-170"/>
      <point x="364" y="-170" type="curve" smooth="yes"/>
      <point x="352" y="-170"/>
      <point x="339" y="-169"/>
      <point x="326" y="-165" type="curve"/>
      <point x="326" y="-233" type="line"/>
      <point x="341" y="-237"/>
      <point x="361" y="-240"/>
    </contour>
  </outline>
</glyph>
<glyph name="uni03D8" format="2">
  <advance width="500"/>
  <unicode hex="03D8"/>
  <anchor x="250" y="0" name="bottom"/>
  <anchor x="250" y="714" name="top"/>
  <outline>
    <contour>
      <point x="212" y="0" type="line"/>
      <point x="287" y="0" type="line"/>
      <point x="287" y="142" type="line"/>
      <point x="417" y="160"/>
      <point x="463" y="282"/>
      <point x="463" y="433" type="curve" smooth="yes"/>
      <point x="463" y="596"/>
      <point x="406" y="724"/>
      <point x="250" y="724" type="curve" smooth="yes"/>
      <point x="106" y="724"/>
      <point x="36" y="627"/>
      <point x="36" y="434" type="curve" smooth="yes"/>
      <point x="36" y="286"/>
      <point x="80" y="160"/>
      <point x="212" y="143" type="curve"/>
    </contour>
    <contour>
      <point x="249" y="217" type="curve" smooth="yes"/>
      <point x="165" y="217"/>
      <point x="123" y="290"/>
      <point x="123" y="433" type="curve" smooth="yes"/>
      <point x="123" y="574"/>
      <point x="163" y="648"/>
      <point x="250" y="648" type="curve" smooth="yes"/>
      <point x="334" y="648"/>
      <point x="374" y="576"/>
      <point x="374" y="433" type="curve" smooth="yes"/>
      <point x="374" y="288"/>
      <point x="333" y="217"/>
    </contour>
  </outline>
</glyph>
<glyph name="uni03D9" format="2">
  <advance width="500"/>
  <unicode hex="03D9"/>
  <anchor x="250" y="-240" name="bottom"/>
  <anchor x="250" y="536" name="top"/>
  <anchor x="250" y="10" name="ogonek"/>
  <anchor x="480" y="536" name="topright"/>
  <anchor x="250" y="268" name="center"/>
  <outline>
    <contour>
      <point x="214" y="-240" type="line"/>
      <point x="285" y="-240" type="line"/>
      <point x="285" y="-6" type="line"/>
      <point x="214" y="-6" type="line"/>
    </contour>
    <component base="o"/>
  </outline>
</glyph>
<glyph name="uni03DC" format="2">
  <advance width="500"/>
  <unicode hex="03DC"/>
  <anchor x="270" y="0" name="bottom"/>
  <anchor x="270" y="714" name="top"/>
  <outline>
    <contour>
      <point x="81" y="0" type="line"/>
      <point x="165" y="0" type="line"/>
      <point x="165" y="305" type="line"/>
      <point x="364" y="305" type="line"/>
      <point x="364" y="187" type="line"/>
      <point x="430" y="187" type="line"/>
      <point x="430" y="381" type="line"/>
      <point x="165" y="381" type="line"/>
      <point x="165" y="639" type="line"/>
      <point x="437" y="639" type="line"/>
      <point x="437" y="714" type="line"/>
      <point x="81" y="714" type="line"/>
    </contour>
  </outline>
</glyph>
<glyph name="uni03DD" format="2">
  <advance width="500"/>
  <unicode hex="03DD"/>
  <anchor x="269" y="-240" name="bottom"/>
  <anchor x="270" y="536" name="top"/>
  <outline>
    <contour>
      <point x="85" y="-240" type="line"/>
      <point x="166" y="-240" type="line"/>
      <point x="166" y="170" type="line"/>
      <point x="346" y="170" type="line"/>
      <point x="346" y="47" type="line"/>
      <point x="416" y="47" type="line"/>
      <point x="416" y="240" type="line"/>
      <point x="166" y="240" type="line"/>
      <point x="166" y="467" type="line"/>
      <point x="434" y="467" type="line"/>
      <point x="434" y="537" type="line"/>
      <point x="85" y="537" type="line"/>
    </contour>
  </outline>
</glyph>
<glyph name="uni03E0" format="2">
  <advance width="500"/>
  <unicode hex="03E0"/>
  <anchor x="260" y="0" name="bottom"/>
  <anchor x="260" y="714" name="top"/>
  <outline>
    <contour>
      <point x="294" y="0" type="curve"/>
      <point x="379" y="0" type="line"/>
      <point x="405" y="79"/>
      <point x="428" y="207"/>
      <point x="428" y="318" type="curve" smooth="yes"/>
      <point x="428" y="582"/>
      <point x="347" y="722"/>
      <point x="200" y="722" type="curve"/>
      <point x="130" y="722"/>
      <point x="80" y="689"/>
      <point x="53" y="658" type="curve"/>
      <point x="89" y="594" type="line"/>
      <point x="108" y="618"/>
      <point x="144" y="646"/>
      <point x="195" y="646" type="curve" smooth="yes"/>
      <point x="230" y="646"/>
      <point x="263" y="627"/>
      <point x="284" y="590" type="curve"/>
      <point x="142" y="464" type="line"/>
      <point x="168" y="410" type="line"/>
      <point x="311" y="539" type="line"/>
      <point x="324" y="508"/>
      <point x="334" y="467"/>
      <point x="338" y="425" type="curve"/>
      <point x="207" y="307" type="line"/>
      <point x="233" y="252" type="line"/>
      <point x="343" y="356" type="line"/>
      <point x="344" y="339"/>
      <point x="344" y="321"/>
      <point x="344" y="305" type="curve" smooth="yes"/>
      <point x="344" y="203"/>
      <point x="323" y="94"/>
    </contour>
  </outline>
</glyph>
<glyph name="uni03F0" format="2">
  <advance width="500"/>
  <unicode hex="03F0"/>
  <anchor x="250" y="0" name="bottom"/>
  <anchor x="250" y="536" name="top"/>
  <outline>
    <contour>
      <point x="429" y="-10" type="curve" smooth="yes"/>
      <point x="452" y="-10"/>
      <point x="469" y="-5"/>
      <point x="481" y="2" type="curve"/>
      <point x="481" y="69" type="line"/>
      <point x="472" y="64"/>
      <point x="462" y="61"/>
      <point x="448" y="61" type="curve" smooth="yes"/>
      <point x="407" y="61"/>
      <point x="386" y="100"/>
      <point x="386" y="202" type="curve" smooth="yes"/>
      <point x="386" y="326"/>
      <point x="418" y="440"/>
      <point x="459" y="536" type="curve"/>
      <point x="370" y="536" type="line"/>
      <point x="164" y="183" type="line"/>
      <point x="176" y="227"/>
      <point x="186" y="282"/>
      <point x="186" y="370" type="curve" smooth="yes"/>
      <point x="186" y="500"/>
      <point x="136" y="547"/>
      <point x="73" y="547" type="curve" smooth="yes"/>
      <point x="46" y="547"/>
      <point x="23" y="543"/>
      <point x="10" y="536" type="curve"/>
      <point x="21" y="468" type="line"/>
      <point x="30" y="474"/>
      <point x="40" y="477"/>
      <point x="52" y="477" type="curve" smooth="yes"/>
      <point x="88" y="477"/>
      <point x="108" y="430"/>
      <point x="108" y="328" type="curve" smooth="yes"/>
      <point x="108" y="202"/>
      <point x="75" y="80"/>
      <point x="40" y="0" type="curve"/>
      <point x="127" y="0" type="line"/>
      <point x="329" y="347" type="line"/>
      <point x="318" y="295"/>
      <point x="308" y="238"/>
      <point x="308" y="168" type="curve"/>
      <point x="308" y="35"/>
      <point x="358" y="-10"/>
    </contour>
  </outline>
</glyph>
<glyph name="afii10145" format="2">
  <advance width="500"/>
  <unicode hex="040F"/>
  <anchor x="250" y="-193" name="bottom"/>
  <anchor x="250" y="714" name="top"/>
  <outline>
    <contour>
      <point x="226" y="-193" type="line"/>
      <point x="304" y="-193" type="line"/>
      <point x="304" y="30" type="line"/>
      <point x="226" y="30" type="line"/>
    </contour>
    <contour>
      <point x="45" y="714" type="line"/>
      <point x="45" y="0" type="line"/>
      <point x="455" y="0" type="line"/>
      <point x="455" y="714" type="line"/>
      <point x="371" y="714" type="line"/>
      <point x="371" y="76" type="line"/>
      <point x="129" y="76" type="line"/>
      <point x="129" y="714" type="line"/>
    </contour>
  </outline>
</glyph>
<glyph name="afii10021" format="2">
  <advance width="500"/>
  <unicode hex="0414"/>
  <anchor x="250" y="-193" name="bottom"/>
  <anchor x="290" y="714" name="top"/>
  <outline>
    <contour>
      <point x="10" y="-193" type="line"/>
      <point x="91" y="-193" type="line"/>
      <point x="91" y="0" type="line"/>
      <point x="399" y="0" type="line"/>
      <point x="399" y="-193" type="line"/>
      <point x="480" y="-193" type="line"/>
      <point x="480" y="76" type="line"/>
      <point x="415" y="76" type="line"/>
      <point x="415" y="714" type="line"/>
      <point x="162" y="714" type="line"/>
      <point x="159" y="480"/>
      <point x="126" y="287"/>
      <point x="54" y="76" type="curve"/>
      <point x="10" y="76" type="line"/>
    </contour>
    <contour>
      <point x="142" y="76" type="line"/>
      <point x="200" y="246"/>
      <point x="233" y="433"/>
      <point x="241" y="639" type="curve"/>
      <point x="331" y="639" type="line"/>
      <point x="331" y="76" type="line"/>
    </contour>
  </outline>
</glyph>
<glyph name="afii10029" format="2">
  <advance width="500"/>
  <unicode hex="041B"/>
  <anchor x="264" y="0" name="bottom"/>
  <anchor x="320" y="714" name="top"/>
  <outline>
    <contour>
      <point x="71" y="-8" type="curve" smooth="yes"/>
      <point x="156" y="-8"/>
      <point x="182" y="47"/>
      <point x="203" y="184" type="curve" smooth="yes"/>
      <point x="217" y="277"/>
      <point x="235" y="484"/>
      <point x="247" y="635" type="curve"/>
      <point x="370" y="635" type="line"/>
      <point x="370" y="0" type="line"/>
      <point x="455" y="0" type="line"/>
      <point x="455" y="714" type="line"/>
      <point x="173" y="714" type="line"/>
      <point x="157" y="521"/>
      <point x="137" y="310"/>
      <point x="126" y="217" type="curve" smooth="yes"/>
      <point x="112" y="102"/>
      <point x="97" y="68"/>
      <point x="57" y="68" type="curve" smooth="yes"/>
      <point x="44" y="68"/>
      <point x="32" y="71"/>
      <point x="23" y="76" type="curve"/>
      <point x="23" y="2" type="line"/>
      <point x="35" y="-5"/>
      <point x="51" y="-8"/>
    </contour>
  </outline>
</glyph>
<glyph name="afii10033" format="2">
  <advance width="500"/>
  <unicode hex="041F"/>
  <anchor x="250" y="0" name="bottom"/>
  <anchor x="480" y="0" name="bottomright"/>
  <anchor x="250" y="714" name="top"/>
  <outline>
    <contour>
      <point x="45" y="0" type="line"/>
      <point x="129" y="0" type="line"/>
      <point x="129" y="638" type="line"/>
      <point x="371" y="638" type="line"/>
      <point x="371" y="0" type="line"/>
      <point x="455" y="0" type="line"/>
      <point x="455" y="714" type="line"/>
      <point x="45" y="714" type="line"/>
    </contour>
  </outline>
</glyph>
<glyph name="afii10041" format="2">
  <advance width="500"/>
  <unicode hex="0427"/>
  <anchor x="250" y="0" name="bottom"/>
  <anchor x="480" y="0" name="bottomright"/>
  <anchor x="250" y="714" name="top"/>
  <outline>
    <contour>
      <point x="370" y="0" type="line"/>
      <point x="455" y="0" type="line"/>
      <point x="455" y="714" type="line"/>
      <point x="370" y="714" type="line"/>
      <point x="370" y="362" type="line"/>
      <point x="322" y="336"/>
      <point x="284" y="324"/>
      <point x="239" y="324" type="curve" smooth="yes"/>
      <point x="163" y="324"/>
      <point x="129" y="363"/>
      <point x="129" y="445" type="curve" smooth="yes"/>
      <point x="129" y="714" type="line"/>
      <point x="45" y="714" type="line"/>
      <point x="45" y="431" type="line" smooth="yes"/>
      <point x="45" y="311"/>
      <point x="104" y="248"/>
      <point x="215" y="248" type="curve" smooth="yes"/>
      <point x="263" y="248"/>
      <point x="315" y="263"/>
      <point x="370" y="292" type="curve"/>
    </contour>
  </outline>
</glyph>
<glyph name="afii10066" format="2">
  <advance width="500"/>
  <unicode hex="0431"/>
  <anchor x="250" y="0" name="bottom"/>
  <anchor x="250" y="765" name="top"/>
  <outline>
    <contour>
      <point x="251" y="-10" type="curve" smooth="yes"/>
      <point x="384" y="-10"/>
      <point x="460" y="86"/>
      <point x="460" y="252" type="curve" smooth="yes"/>
      <point x="460" y="412"/>
      <point x="390" y="498"/>
      <point x="279" y="498" type="curve" smooth="yes"/>
      <point x="213" y="498"/>
      <point x="157" y="468"/>
      <point x="126" y="418" type="curve"/>
      <point x="121" y="418" type="line"/>
      <point x="126" y="516"/>
      <point x="148" y="612"/>
      <point x="253" y="653" type="curve" smooth="yes"/>
      <point x="294" y="669"/>
      <point x="371" y="687"/>
      <point x="432" y="692" type="curve"/>
      <point x="423" y="765" type="line"/>
      <point x="337" y="757"/>
      <point x="265" y="733"/>
      <point x="226" y="716" type="curve" smooth="yes"/>
      <point x="78" y="651"/>
      <point x="40" y="529"/>
      <point x="40" y="346" type="curve" smooth="yes"/>
      <point x="40" y="97"/>
      <point x="110" y="-10"/>
    </contour>
    <contour>
      <point x="256" y="60" type="curve" smooth="yes"/>
      <point x="162" y="60"/>
      <point x="127" y="149"/>
      <point x="123" y="331" type="curve"/>
      <point x="140" y="378"/>
      <point x="191" y="429"/>
      <point x="260" y="429" type="curve" smooth="yes"/>
      <point x="336" y="429"/>
      <point x="378" y="366"/>
      <point x="378" y="246" type="curve" smooth="yes"/>
      <point x="378" y="121"/>
      <point x="333" y="60"/>
    </contour>
  </outline>
</glyph>
<glyph name="afii10074" format="2">
  <advance width="500"/>
  <unicode hex="0438"/>
  <anchor x="280" y="0" name="bottom"/>
  <anchor x="480" y="0" name="bottomright"/>
  <anchor x="252" y="536" name="top"/>
  <outline>
    <contour>
      <point x="60" y="0" type="line"/>
      <point x="151" y="0" type="line"/>
      <point x="366" y="421" type="line"/>
      <point x="363" y="378"/>
      <point x="362" y="335"/>
      <point x="362" y="293" type="curve" smooth="yes"/>
      <point x="362" y="0" type="line"/>
      <point x="440" y="0" type="line"/>
      <point x="440" y="537" type="line"/>
      <point x="348" y="537" type="line"/>
      <point x="134" y="116" type="line"/>
      <point x="137" y="161"/>
      <point x="139" y="197"/>
      <point x="139" y="237" type="curve" smooth="yes"/>
      <point x="139" y="537" type="line"/>
      <point x="60" y="537" type="line"/>
    </contour>
  </outline>
</glyph>
<glyph name="afii10076" format="2">
  <advance width="500"/>
  <unicode hex="043A"/>
  <anchor x="259" y="0" name="bottom"/>
  <anchor x="480" y="0" name="bottomright"/>
  <anchor x="270" y="536" name="top"/>
  <outline>
    <contour>
      <point x="65" y="0" type="line"/>
      <point x="146" y="0" type="line"/>
      <point x="146" y="278" type="line"/>
      <point x="386" y="0" type="line"/>
      <point x="477" y="0" type="line"/>
      <point x="238" y="283" type="line"/>
      <point x="468" y="537" type="line"/>
      <point x="376" y="537" type="line"/>
      <point x="146" y="282" type="line"/>
      <point x="146" y="537" type="line"/>
      <point x="65" y="537" type="line"/>
    </contour>
  </outline>
</glyph>
<glyph name="afii10078" format="2">
  <advance width="500"/>
  <unicode hex="043C"/>
  <anchor x="250" y="0" name="bottom"/>
  <anchor x="250" y="536" name="top"/>
  <outline>
    <contour>
      <point x="25" y="0" type="line"/>
      <point x="101" y="0" type="line"/>
      <point x="101" y="293" type="line" smooth="yes"/>
      <point x="101" y="325"/>
      <point x="98" y="379"/>
      <point x="95" y="433" type="curve"/>
      <point x="99" y="433" type="line"/>
      <point x="213" y="0" type="line"/>
      <point x="284" y="0" type="line"/>
      <point x="399" y="433" type="line"/>
      <point x="403" y="433" type="line"/>
      <point x="399" y="372"/>
      <point x="397" y="323"/>
      <point x="397" y="291" type="curve" smooth="yes"/>
      <point x="397" y="0" type="line"/>
      <point x="475" y="0" type="line"/>
      <point x="475" y="537" type="line"/>
      <point x="360" y="537" type="line"/>
      <point x="249" y="116" type="line"/>
      <point x="140" y="537" type="line"/>
      <point x="25" y="537" type="line"/>
    </contour>
  </outline>
</glyph>
<glyph name="afii10086" format="2">
  <advance width="500"/>
  <unicode hex="0444"/>
  <anchor x="250" y="-240" name="bottom"/>
  <anchor x="250" y="760" name="top"/>
  <outline>
    <contour>
      <point x="211" y="-240" type="line"/>
      <point x="290" y="-240" type="line"/>
      <point x="290" y="-7" type="line"/>
      <point x="407" y="8"/>
      <point x="460" y="120"/>
      <point x="460" y="269" type="curve" smooth="yes"/>
      <point x="460" y="414"/>
      <point x="407" y="531"/>
      <point x="290" y="544" type="curve"/>
      <point x="290" y="760" type="line"/>
      <point x="210" y="760" type="line"/>
      <point x="210" y="544" type="line"/>
      <point x="93" y="531"/>
      <point x="40" y="422"/>
      <point x="40" y="269" type="curve" smooth="yes"/>
      <point x="40" y="104"/>
      <point x="103" y="4"/>
      <point x="211" y="-7" type="curve"/>
    </contour>
    <contour>
      <point x="210" y="63" type="line"/>
      <point x="149" y="72"/>
      <point x="122" y="162"/>
      <point x="122" y="269" type="curve" smooth="yes"/>
      <point x="122" y="390"/>
      <point x="155" y="466"/>
      <point x="210" y="474" type="curve"/>
    </contour>
    <contour>
      <point x="290" y="63" type="curve"/>
      <point x="290" y="474" type="line"/>
      <point x="345" y="465"/>
      <point x="378" y="389"/>
      <point x="378" y="269" type="curve" smooth="yes"/>
      <point x="378" y="165"/>
      <point x="352" y="72"/>
    </contour>
  </outline>
</glyph>
<glyph name="afii10089" format="2">
  <advance width="500"/>
  <unicode hex="0447"/>
  <anchor x="250" y="0" name="bottom"/>
  <anchor x="480" y="0" name="bottomright"/>
  <anchor x="250" y="536" name="top"/>
  <outline>
    <contour>
      <point x="360" y="0" type="line"/>
      <point x="440" y="0" type="line"/>
      <point x="440" y="537" type="line"/>
      <point x="360" y="537" type="line"/>
      <point x="360" y="301" type="line"/>
      <point x="321" y="269"/>
      <point x="274" y="246"/>
      <point x="224" y="246" type="curve" smooth="yes"/>
      <point x="173" y="246"/>
      <point x="141" y="270"/>
      <point x="141" y="324" type="curve" smooth="yes"/>
      <point x="141" y="537" type="line"/>
      <point x="60" y="537" type="line"/>
      <point x="60" y="330" type="line" smooth="yes"/>
      <point x="60" y="228"/>
      <point x="107" y="176"/>
      <point x="204" y="176" type="curve" smooth="yes"/>
      <point x="260" y="176"/>
      <point x="313" y="193"/>
      <point x="360" y="230" type="curve"/>
    </contour>
  </outline>
</glyph>
<glyph name="afii10107" format="2">
  <advance width="500"/>
  <unicode hex="045A"/>
  <anchor x="250" y="0" name="bottom"/>
  <anchor x="169" y="536" name="top"/>
  <outline>
    <contour>
      <point x="230" y="0" type="line"/>
      <point x="353" y="0" type="line" smooth="yes"/>
      <point x="441" y="0"/>
      <point x="492" y="55"/>
      <point x="492" y="159" type="curve" smooth="yes"/>
      <point x="492" y="262"/>
      <point x="441" y="315"/>
      <point x="350" y="315" type="curve" smooth="yes"/>
      <point x="311" y="315" type="line"/>
      <point x="311" y="537" type="line"/>
      <point x="230" y="537" type="line"/>
    </contour>
    <contour>
      <point x="25" y="0" type="line"/>
      <point x="106" y="0" type="line"/>
      <point x="106" y="248" type="line"/>
      <point x="267" y="248" type="line"/>
      <point x="267" y="318" type="line"/>
      <point x="106" y="318" type="line"/>
      <point x="106" y="537" type="line"/>
      <point x="25" y="537" type="line"/>
    </contour>
    <contour>
      <point x="311" y="65" type="line"/>
      <point x="311" y="247" type="line"/>
      <point x="350" y="247" type="line" smooth="yes"/>
      <point x="394" y="247"/>
      <point x="414" y="218"/>
      <point x="414" y="156" type="curve" smooth="yes"/>
      <point x="414" y="96"/>
      <point x="392" y="65"/>
      <point x="350" y="65" type="curve" smooth="yes"/>
    </contour>
  </outline>
</glyph>
<glyph name="uni0463" format="2">
  <advance width="500"/>
  <unicode hex="0463"/>
  <anchor x="250" y="0" name="bottom"/>
  <anchor x="151" y="649" name="top"/>
  <outline>
    <contour>
      <point x="110" y="0" type="line"/>
      <point x="270" y="0" type="line" smooth="yes"/>
      <point x="380" y="0"/>
      <point x="443" y="55"/>
      <point x="443" y="159" type="curve" smooth="yes"/>
      <point x="443" y="262"/>
      <point x="382" y="315"/>
      <point x="266" y="315" type="curve" smooth="yes"/>
      <point x="191" y="315" type="line"/>
      <point x="191" y="475" type="line"/>
      <point x="304" y="475" type="line"/>
      <point x="304" y="537" type="line"/>
      <point x="191" y="537" type="line"/>
      <point x="191" y="649" type="line"/>
      <point x="110" y="649" type="line"/>
      <point x="110" y="537" type="line"/>
      <point x="36" y="537" type="line"/>
      <point x="36" y="475" type="line"/>
      <point x="110" y="475" type="line"/>
    </contour>
    <contour>
      <point x="191" y="65" type="line"/>
      <point x="191" y="250" type="line"/>
      <point x="267" y="250" type="line"/>
      <point x="331" y="250"/>
      <point x="360" y="218"/>
      <point x="360" y="156" type="curve" smooth="yes"/>
      <point x="360" y="96"/>
      <point x="329" y="65"/>
      <point x="266" y="65" type="curve" smooth="yes"/>
    </contour>
  </outline>
</glyph>
<glyph name="uni0468" format="2">
  <advance width="500"/>
  <unicode hex="0468"/>
  <anchor x="355" y="0" name="bottom"/>
  <anchor x="355" y="714" name="top"/>
  <outline>
    <contour>
      <point x="-186" y="0" type="line"/>
      <point x="-96" y="0" type="line"/>
      <point x="-96" y="333" type="line"/>
      <point x="160" y="333" type="line"/>
      <point x="23" y="0" type="line"/>
      <point x="114" y="0" type="line"/>
      <point x="247" y="333" type="line"/>
      <point x="317" y="333" type="line"/>
      <point x="317" y="0" type="line"/>
      <point x="393" y="0" type="line"/>
      <point x="393" y="333" type="line"/>
      <point x="461" y="333" type="line"/>
      <point x="593" y="0" type="line"/>
      <point x="686" y="0" type="line"/>
      <point x="394" y="714" type="line"/>
      <point x="316" y="714" type="line"/>
      <point x="192" y="412" type="line"/>
      <point x="-96" y="412" type="line"/>
      <point x="-96" y="714" type="line"/>
      <point x="-186" y="714" type="line"/>
    </contour>
    <contour>
      <point x="277" y="411" type="line"/>
      <point x="312" y="501" type="line"/>
      <point x="330" y="548"/>
      <point x="344" y="586"/>
      <point x="354" y="626" type="curve"/>
      <point x="364" y="586"/>
      <point x="379" y="547"/>
      <point x="394" y="506" type="curve" smooth="yes"/>
      <point x="429" y="411" type="line"/>
    </contour>
  </outline>
</glyph>
<glyph name="uni046C" format="2">
  <advance width="500"/>
  <unicode hex="046C"/>
  <anchor x="345" y="0" name="bottom"/>
  <anchor x="345" y="714" name="top"/>
  <outline>
    <contour>
      <point x="-191" y="0" type="line"/>
      <point x="-107" y="0" type="line"/>
      <point x="-107" y="333" type="line"/>
      <point x="120" y="333" type="line"/>
      <point x="98" y="313"/>
      <point x="81" y="281"/>
      <point x="64" y="226" type="curve" smooth="yes"/>
      <point x="-7" y="0" type="line"/>
      <point x="82" y="0" type="line"/>
      <point x="145" y="219" type="line" smooth="yes"/>
      <point x="171" y="310"/>
      <point x="206" y="338"/>
      <point x="300" y="338" type="curve"/>
      <point x="300" y="0" type="line"/>
      <point x="384" y="0" type="line"/>
      <point x="384" y="338" type="line"/>
      <point x="476" y="338"/>
      <point x="509" y="318"/>
      <point x="538" y="219" type="curve" smooth="yes"/>
      <point x="603" y="0" type="line"/>
      <point x="691" y="0" type="line"/>
      <point x="624" y="221" type="line" smooth="yes"/>
      <point x="590" y="333"/>
      <point x="554" y="398"/>
      <point x="427" y="406" type="curve"/>
      <point x="625" y="648" type="line"/>
      <point x="625" y="714" type="line"/>
      <point x="61" y="714" type="line"/>
      <point x="61" y="648" type="line"/>
      <point x="251" y="411" type="line"/>
      <point x="-107" y="411" type="line"/>
      <point x="-107" y="714" type="line"/>
      <point x="-191" y="714" type="line"/>
    </contour>
    <contour>
      <point x="343" y="416" type="line"/>
      <point x="167" y="641" type="line"/>
      <point x="519" y="641" type="line"/>
    </contour>
  </outline>
</glyph>
<glyph name="uni046E" format="2">
  <advance width="500"/>
  <unicode hex="046E"/>
  <anchor x="250" y="-201" name="bottom"/>
  <anchor x="250" y="853" name="top"/>
  <outline>
    <contour>
      <point x="400" y="-201" type="curve"/>
      <point x="400" y="-128" type="line"/>
      <point x="384" y="-121"/>
      <point x="363" y="-117"/>
      <point x="333" y="-117" type="curve" smooth="yes"/>
      <point x="303" y="-117"/>
      <point x="262" y="-124"/>
      <point x="223" y="-124" type="curve" smooth="yes"/>
      <point x="147" y="-124"/>
      <point x="121" y="-103"/>
      <point x="121" y="-63" type="curve" smooth="yes"/>
      <point x="121" y="-25"/>
      <point x="145" y="-4"/>
      <point x="232" y="-3" type="curve" smooth="yes"/>
      <point x="365" y="-1"/>
      <point x="444" y="71"/>
      <point x="444" y="199" type="curve" smooth="yes"/>
      <point x="444" y="297"/>
      <point x="390" y="362"/>
      <point x="299" y="372" type="curve"/>
      <point x="299" y="376" type="line"/>
      <point x="383" y="396"/>
      <point x="431" y="456"/>
      <point x="431" y="550" type="curve" smooth="yes"/>
      <point x="431" y="637"/>
      <point x="386" y="699"/>
      <point x="298" y="718" type="curve"/>
      <point x="321" y="761"/>
      <point x="342" y="796"/>
      <point x="369" y="796" type="curve" smooth="yes"/>
      <point x="376" y="796"/>
      <point x="385" y="794"/>
      <point x="390" y="791" type="curve"/>
      <point x="390" y="847" type="line"/>
      <point x="380" y="851"/>
      <point x="369" y="853"/>
      <point x="354" y="853" type="curve" smooth="yes"/>
      <point x="309" y="853"/>
      <point x="271" y="807"/>
      <point x="242" y="753" type="curve"/>
      <point x="211" y="795"/>
      <point x="186" y="827"/>
      <point x="162" y="851" type="curve"/>
      <point x="102" y="851" type="line"/>
      <point x="102" y="841" type="line"/>
      <point x="128" y="811"/>
      <point x="167" y="749"/>
      <point x="183" y="719" type="curve"/>
      <point x="137" y="713"/>
      <point x="89" y="685"/>
      <point x="57" y="656" type="curve"/>
      <point x="100" y="595" type="line"/>
      <point x="125" y="618"/>
      <point x="165" y="648"/>
      <point x="226" y="648" type="curve" smooth="yes"/>
      <point x="310" y="648"/>
      <point x="346" y="610"/>
      <point x="346" y="540" type="curve" smooth="yes"/>
      <point x="346" y="450"/>
      <point x="297" y="408"/>
      <point x="188" y="408" type="curve" smooth="yes"/>
      <point x="138" y="408" type="line"/>
      <point x="138" y="333" type="line"/>
      <point x="186" y="333" type="line" smooth="yes"/>
      <point x="307" y="333"/>
      <point x="357" y="293"/>
      <point x="357" y="203" type="curve" smooth="yes"/>
      <point x="357" y="115"/>
      <point x="314" y="74"/>
      <point x="207" y="72" type="curve" smooth="yes"/>
      <point x="92" y="70"/>
      <point x="33" y="25"/>
      <point x="33" y="-62" type="curve" smooth="yes"/>
      <point x="33" y="-144"/>
      <point x="91" y="-197"/>
      <point x="211" y="-197" type="curve" smooth="yes"/>
      <point x="254" y="-197"/>
      <point x="297" y="-190"/>
      <point x="333" y="-190" type="curve" smooth="yes"/>
      <point x="365" y="-190"/>
      <point x="386" y="-194"/>
    </contour>
  </outline>
</glyph>
<glyph name="uni0473" format="2">
  <advance width="500"/>
  <unicode hex="0473"/>
  <anchor x="250" y="0" name="bottom"/>
  <anchor x="250" y="536" name="top"/>
  <anchor x="250" y="10" name="ogonek"/>
  <anchor x="480" y="536" name="topright"/>
  <anchor x="250" y="268" name="center"/>
  <outline>
    <contour>
      <point x="70" y="235" type="line"/>
      <point x="428" y="235" type="line"/>
      <point x="428" y="313" type="line"/>
      <point x="70" y="313" type="line"/>
    </contour>
    <component base="o"/>
  </outline>
</glyph>
<glyph name="uni047B" format="2">
  <advance width="500"/>
  <unicode hex="047B"/>
  <outline>
    <contour>
      <point x="251" y="-10" type="curve" smooth="yes"/>
      <point x="381" y="-10"/>
      <point x="460" y="91"/>
      <point x="460" y="267" type="curve" smooth="yes"/>
      <point x="460" y="446"/>
      <point x="378" y="547"/>
      <point x="248" y="547" type="curve" smooth="yes"/>
      <point x="118" y="547"/>
      <point x="40" y="446"/>
      <point x="40" y="270" type="curve" smooth="yes"/>
      <point x="40" y="91"/>
      <point x="121" y="-10"/>
    </contour>
    <contour>
      <point x="250" y="58" type="curve" smooth="yes"/>
      <point x="169" y="58"/>
      <point x="124" y="130"/>
      <point x="124" y="269" type="curve" smooth="yes"/>
      <point x="124" y="410"/>
      <point x="169" y="482"/>
      <point x="249" y="482" type="curve" smooth="yes"/>
      <point x="330" y="482"/>
      <point x="376" y="410"/>
      <point x="376" y="268" type="curve" smooth="yes"/>
      <point x="376" y="130"/>
      <point x="331" y="58"/>
    </contour>
    <contour>
      <point x="251" y="424" type="curve" smooth="yes"/>
      <point x="292" y="424"/>
      <point x="308" y="461"/>
      <point x="308" y="507" type="curve" smooth="yes"/>
      <point x="308" y="553"/>
      <point x="292" y="590"/>
      <point x="251" y="590" type="curve" smooth="yes"/>
      <point x="209" y="590"/>
      <point x="193" y="553"/>
      <point x="193" y="507" type="curve" smooth="yes"/>
      <point x="193" y="461"/>
      <point x="209" y="424"/>
    </contour>
    <contour>
      <point x="251" y="-48" type="curve" smooth="yes"/>
      <point x="292" y="-48"/>
      <point x="308" y="-11"/>
      <point x="308" y="35" type="curve" smooth="yes"/>
      <point x="308" y="81"/>
      <point x="292" y="118"/>
      <point x="251" y="118" type="curve" smooth="yes"/>
      <point x="209" y="118"/>
      <point x="193" y="81"/>
      <point x="193" y="35" type="curve" smooth="yes"/>
      <point x="193" y="-11"/>
      <point x="209" y="-48"/>
    </contour>
  </outline>
</glyph>
<glyph name="uni0481" format="2">
  <advance width="500"/>
  <unicode hex="0481"/>
  <anchor x="337" y="-240" name="bottom"/>
  <anchor x="304" y="536" name="top"/>
  <outline>
    <contour>
      <point x="294" y="-241" type="line"/>
      <point x="374" y="-241" type="line"/>
      <point x="374" y="68" type="line"/>
      <point x="358" y="65"/>
      <point x="341" y="63"/>
      <point x="324" y="63" type="curve" smooth="yes"/>
      <point x="207" y="63"/>
      <point x="156" y="125"/>
      <point x="156" y="266" type="curve" smooth="yes"/>
      <point x="156" y="408"/>
      <point x="207" y="474"/>
      <point x="307" y="474" type="curve" smooth="yes"/>
      <point x="346" y="474"/>
      <point x="374" y="464"/>
      <point x="413" y="448" type="curve"/>
      <point x="440" y="517" type="line"/>
      <point x="398" y="535"/>
      <point x="352" y="547"/>
      <point x="301" y="547" type="curve" smooth="yes"/>
      <point x="169" y="547"/>
      <point x="70" y="469"/>
      <point x="70" y="265" type="curve" smooth="yes"/>
      <point x="70" y="81"/>
      <point x="151" y="-1"/>
      <point x="294" y="-9" type="curve"/>
    </contour>
  </outline>
</glyph>
<glyph name="uni0482" format="2">
  <advance width="500"/>
  <unicode hex="0482"/>
  <outline>
    <contour>
      <point x="172" y="-2" type="line"/>
      <point x="225" y="146" type="line"/>
      <point x="342" y="103" type="line"/>
      <point x="365" y="164" type="line"/>
      <point x="249" y="207" type="line"/>
      <point x="317" y="400" type="line"/>
      <point x="432" y="357" type="line"/>
      <point x="458" y="419" type="line"/>
      <point x="340" y="461" type="line"/>
      <point x="394" y="607" type="line"/>
      <point x="329" y="631" type="line"/>
      <point x="276" y="487" type="line"/>
      <point x="158" y="531" type="line"/>
      <point x="134" y="469" type="line"/>
      <point x="252" y="425" type="line"/>
      <point x="183" y="232" type="line"/>
      <point x="66" y="276" type="line"/>
      <point x="42" y="214" type="line"/>
      <point x="159" y="171" type="line"/>
      <point x="106" y="23" type="line"/>
    </contour>
  </outline>
</glyph>
<glyph name="uni0488" format="2">
  <unicode hex="0488"/>
  <outline>
    <contour>
      <point x="-74" y="579" type="curve"/>
      <point x="-48" y="579" type="line"/>
      <point x="-45" y="614"/>
      <point x="-31" y="625"/>
      <point x="-3" y="625" type="curve" smooth="yes"/>
      <point x="20" y="625"/>
      <point x="38" y="612"/>
      <point x="42" y="579" type="curve"/>
      <point x="68" y="579" type="line"/>
      <point x="66" y="630"/>
      <point x="41" y="665"/>
      <point x="-3" y="665" type="curve" smooth="yes"/>
      <point x="-50" y="665"/>
      <point x="-71" y="632"/>
    </contour>
    <contour>
      <point x="68" y="422" type="curve"/>
      <point x="94" y="422" type="line"/>
      <point x="97" y="458"/>
      <point x="111" y="469"/>
      <point x="139" y="469" type="curve" smooth="yes"/>
      <point x="161" y="469"/>
      <point x="181" y="456"/>
      <point x="184" y="422" type="curve"/>
      <point x="210" y="422" type="line"/>
      <point x="208" y="473"/>
      <point x="183" y="509"/>
      <point x="139" y="509" type="curve" smooth="yes"/>
      <point x="93" y="509"/>
      <point x="70" y="475"/>
    </contour>
    <contour>
      <point x="110" y="236" type="curve"/>
      <point x="135" y="236" type="line"/>
      <point x="138" y="272"/>
      <point x="152" y="282"/>
      <point x="180" y="282" type="curve" smooth="yes"/>
      <point x="203" y="282"/>
      <point x="222" y="270"/>
      <point x="225" y="236" type="curve"/>
      <point x="251" y="236" type="line"/>
      <point x="249" y="287"/>
      <point x="225" y="322"/>
      <point x="180" y="322" type="curve" smooth="yes"/>
      <point x="134" y="322"/>
      <point x="112" y="289"/>
    </contour>
    <contour>
      <point x="68" y="44" type="curve"/>
      <point x="94" y="44" type="line"/>
      <point x="97" y="80"/>
      <point x="111" y="90"/>
      <point x="139" y="90" type="curve" smooth="yes"/>
      <point x="161" y="90"/>
      <point x="181" y="78"/>
      <point x="184" y="44" type="curve"/>
      <point x="210" y="44" type="line"/>
      <point x="208" y="95"/>
      <point x="183" y="131"/>
      <point x="139" y="131" type="curve" smooth="yes"/>
      <point x="93" y="131"/>
      <point x="70" y="97"/>
    </contour>
    <contour>
      <point x="-74" y="-109" type="curve"/>
      <point x="-48" y="-109" type="line"/>
      <point x="-45" y="-74"/>
      <point x="-31" y="-63"/>
      <point x="-3" y="-63" type="curve" smooth="yes"/>
      <point x="20" y="-63"/>
      <point x="38" y="-76"/>
      <point x="42" y="-109" type="curve"/>
      <point x="68" y="-109" type="line"/>
      <point x="66" y="-58"/>
      <point x="41" y="-23"/>
      <point x="-3" y="-23" type="curve" smooth="yes"/>
      <point x="-50" y="-23"/>
      <point x="-71" y="-57"/>
    </contour>
    <contour>
      <point x="-213" y="44" type="curve"/>
      <point x="-188" y="44" type="line"/>
      <point x="-185" y="80"/>
      <point x="-171" y="90"/>
      <point x="-143" y="90" type="curve" smooth="yes"/>
      <point x="-121" y="90"/>
      <point x="-101" y="78"/>
      <point x="-99" y="44" type="curve"/>
      <point x="-71" y="44" type="line"/>
      <point x="-75" y="95"/>
      <point x="-100" y="131"/>
      <point x="-143" y="131" type="curve" smooth="yes"/>
      <point x="-190" y="131"/>
      <point x="-212" y="97"/>
    </contour>
    <contour>
      <point x="-251" y="236" type="curve"/>
      <point x="-225" y="236" type="line"/>
      <point x="-223" y="272"/>
      <point x="-208" y="282"/>
      <point x="-181" y="282" type="curve" smooth="yes"/>
      <point x="-157" y="282"/>
      <point x="-138" y="270"/>
      <point x="-136" y="236" type="curve"/>
      <point x="-109" y="236" type="line"/>
      <point x="-111" y="287"/>
      <point x="-136" y="322"/>
      <point x="-181" y="322" type="curve" smooth="yes"/>
      <point x="-227" y="322"/>
      <point x="-248" y="289"/>
    </contour>
    <contour>
      <point x="-213" y="422" type="curve"/>
      <point x="-188" y="422" type="line"/>
      <point x="-185" y="458"/>
      <point x="-171" y="469"/>
      <point x="-143" y="469" type="curve" smooth="yes"/>
      <point x="-121" y="469"/>
      <point x="-101" y="456"/>
      <point x="-99" y="422" type="curve"/>
      <point x="-71" y="422" type="line"/>
      <point x="-75" y="473"/>
      <point x="-100" y="509"/>
      <point x="-143" y="509" type="curve" smooth="yes"/>
      <point x="-190" y="509"/>
      <point x="-212" y="475"/>
    </contour>
  </outline>
</glyph>
<glyph name="uni048C" format="2">
  <advance width="500"/>
  <unicode hex="048C"/>
  <anchor x="250" y="0" name="bottom"/>
  <anchor x="109" y="714" name="top"/>
  <outline>
    <contour>
      <point x="0" y="546" type="line"/>
      <point x="309" y="546" type="line"/>
      <point x="309" y="611" type="line"/>
      <point x="0" y="611" type="line"/>
    </contour>
    <component base="afii10046"/>
  </outline>
</glyph>
<glyph name="uni048F" format="2">
  <advance width="500"/>
  <unicode hex="048F"/>
  <anchor x="250" y="-240" name="bottom"/>
  <anchor x="250" y="536" name="top"/>
  <anchor x="480" y="536" name="topright"/>
  <outline>
    <contour>
      <point x="341" y="-83" type="line"/>
      <point x="393" y="-62" type="line"/>
      <point x="284" y="206" type="line"/>
      <point x="232" y="185" type="line"/>
    </contour>
    <component base="p"/>
  </outline>
</glyph>
<glyph name="uni0495" format="2">
  <advance width="500"/>
  <unicode hex="0495"/>
  <anchor x="250" y="-244" name="bottom"/>
  <anchor x="250" y="536" name="top"/>
  <outline>
    <contour>
      <point x="262" y="-244" type="curve" smooth="yes"/>
      <point x="381" y="-244"/>
      <point x="448" y="-143"/>
      <point x="448" y="34" type="curve" smooth="yes"/>
      <point x="448" y="210"/>
      <point x="371" y="309"/>
      <point x="236" y="309" type="curve" smooth="yes"/>
      <point x="204" y="309"/>
      <point x="186" y="306"/>
      <point x="166" y="298" type="curve"/>
      <point x="166" y="466" type="line"/>
      <point x="366" y="466" type="line"/>
      <point x="366" y="537" type="line"/>
      <point x="85" y="537" type="line"/>
      <point x="85" y="0" type="line"/>
      <point x="166" y="0" type="line"/>
      <point x="166" y="228" type="line"/>
      <point x="180" y="234"/>
      <point x="196" y="238"/>
      <point x="229" y="238" type="curve" smooth="yes"/>
      <point x="318" y="238"/>
      <point x="366" y="165"/>
      <point x="366" y="31" type="curve" smooth="yes"/>
      <point x="366" y="-101"/>
      <point x="324" y="-172"/>
      <point x="248" y="-172" type="curve" smooth="yes"/>
      <point x="206" y="-172"/>
      <point x="181" y="-162"/>
      <point x="156" y="-143" type="curve"/>
      <point x="156" y="-217" type="line"/>
      <point x="181" y="-235"/>
      <point x="211" y="-244"/>
    </contour>
  </outline>
</glyph>
<glyph name="uni0497" format="2">
  <advance width="500"/>
  <unicode hex="0497"/>
  <anchor x="250" y="-187" name="bottom"/>
  <anchor x="250" y="536" name="top"/>
  <anchor x="480" y="0" name="bottomright"/>
  <outline>
    <contour>
      <point x="421" y="-187" type="line"/>
      <point x="500" y="-187" type="line"/>
      <point x="500" y="71" type="line"/>
      <point x="447" y="71" type="line"/>
      <point x="421" y="0" type="line"/>
    </contour>
    <component base="afii10072"/>
  </outline>
</glyph>
<glyph name="uni049A" format="2">
  <advance width="500"/>
  <unicode hex="049A"/>
  <anchor x="250" y="-193" name="bottom"/>
  <anchor x="250" y="714" name="top"/>
  <anchor x="480" y="0" name="bottomright"/>
  <outline>
    <contour>
      <point x="404" y="-193" type="line"/>
      <point x="485" y="-193" type="line"/>
      <point x="485" y="76" type="line"/>
      <point x="388" y="76" type="line"/>
      <point x="404" y="0" type="line"/>
    </contour>
    <component base="afii10028"/>
  </outline>
</glyph>
<glyph name="uni049D" format="2">
  <advance width="500"/>
  <unicode hex="049D"/>
  <anchor x="250" y="0" name="bottom"/>
  <anchor x="250" y="536" name="top"/>
  <anchor x="480" y="0" name="bottomright"/>
  <outline>
    <contour>
      <point x="208" y="27" type="line"/>
      <point x="251" y="27" type="line"/>
      <point x="251" y="502" type="line"/>
      <point x="208" y="502" type="line"/>
    </contour>
    <component base="afii10076"/>
  </outline>
</glyph>
<glyph name="uni04A4" format="2">
  <advance width="500"/>
  <unicode hex="04A4"/>
  <anchor x="212" y="0" name="bottom"/>
  <anchor x="214" y="714" name="top"/>
  <outline>
    <contour>
      <point x="45" y="0" type="line"/>
      <point x="129" y="0" type="line"/>
      <point x="129" y="335" type="line"/>
      <point x="299" y="335" type="line"/>
      <point x="299" y="0" type="line"/>
      <point x="383" y="0" type="line"/>
      <point x="383" y="638" type="line"/>
      <point x="494" y="638" type="line"/>
      <point x="494" y="714" type="line"/>
      <point x="299" y="714" type="line"/>
      <point x="299" y="411" type="line"/>
      <point x="129" y="411" type="line"/>
      <point x="129" y="714" type="line"/>
      <point x="45" y="714" type="line"/>
    </contour>
  </outline>
</glyph>
<glyph name="uni04B0" format="2">
  <advance width="500"/>
  <unicode hex="04B0"/>
  <anchor x="250" y="0" name="bottom"/>
  <anchor x="250" y="714" name="top"/>
  <anchor x="20" y="714" name="topleft"/>
  <anchor x="480" y="714" name="topright"/>
  <outline>
    <contour>
      <point x="111" y="180" type="line"/>
      <point x="388" y="180" type="line"/>
      <point x="388" y="249" type="line"/>
      <point x="111" y="249" type="line"/>
    </contour>
    <component base="Y"/>
  </outline>
</glyph>
<glyph name="uni04B2" format="2">
  <advance width="500"/>
  <unicode hex="04B2"/>
  <anchor x="250" y="-193" name="bottom"/>
  <anchor x="250" y="714" name="top"/>
  <anchor x="480" y="714" name="topright"/>
  <outline>
    <contour>
      <point x="411" y="-193" type="line"/>
      <point x="493" y="-193" type="line"/>
      <point x="493" y="76" type="line"/>
      <point x="398" y="76" type="line"/>
      <point x="398" y="0" type="line"/>
      <point x="411" y="0" type="line"/>
    </contour>
    <component base="X"/>
  </outline>
</glyph>
<glyph name="uni04B4" format="2">
  <advance width="500"/>
  <unicode hex="04B4"/>
  <anchor x="250" y="-188" name="bottom"/>
  <anchor x="250" y="714" name="top"/>
  <outline>
    <contour>
      <point x="407" y="-188" type="line"/>
      <point x="492" y="-188" type="line"/>
      <point x="492" y="80" type="line"/>
      <point x="433" y="80" type="line"/>
      <point x="433" y="714" type="line"/>
      <point x="343" y="714" type="line"/>
      <point x="343" y="80" type="line"/>
      <point x="180" y="80" type="line"/>
      <point x="180" y="633" type="line"/>
      <point x="268" y="633" type="line"/>
      <point x="268" y="714" type="line"/>
      <point x="5" y="714" type="line"/>
      <point x="5" y="633" type="line"/>
      <point x="90" y="633" type="line"/>
      <point x="90" y="0" type="line"/>
      <point x="407" y="0" type="line"/>
    </contour>
  </outline>
</glyph>
<glyph name="uni04B7" format="2">
  <advance width="500"/>
  <unicode hex="04B7"/>
  <anchor x="250" y="-187" name="bottom"/>
  <anchor x="250" y="536" name="top"/>
  <anchor x="480" y="0" name="bottomright"/>
  <outline>
    <contour>
      <point x="417" y="-187" type="line"/>
      <point x="497" y="-187" type="line"/>
      <point x="497" y="71" type="line"/>
      <point x="398" y="71" type="line"/>
      <point x="388" y="0" type="line"/>
      <point x="417" y="0" type="line"/>
    </contour>
    <component base="afii10089"/>
  </outline>
</glyph>
<glyph name="uni04B9" format="2">
  <advance width="500"/>
  <unicode hex="04B9"/>
  <anchor x="250" y="0" name="bottom"/>
  <anchor x="250" y="536" name="top"/>
  <anchor x="480" y="0" name="bottomright"/>
  <outline>
    <contour>
      <point x="223" y="63" type="line"/>
      <point x="272" y="63" type="line"/>
      <point x="272" y="391" type="line"/>
      <point x="223" y="391" type="line"/>
    </contour>
    <component base="afii10089"/>
  </outline>
</glyph>
<glyph name="uni04BE" format="2">
  <advance width="500"/>
  <unicode hex="04BE"/>
  <anchor x="319" y="-240" name="bottom"/>
  <anchor x="314" y="714" name="top"/>
  <outline>
    <contour>
      <point x="276" y="-193" type="line"/>
      <point x="354" y="-193" type="line"/>
      <point x="354" y="30" type="line"/>
      <point x="276" y="30" type="line"/>
    </contour>
    <component base="uni04BC"/>
  </outline>
</glyph>
<glyph name="uni04BF" format="2">
  <advance width="500"/>
  <unicode hex="04BF"/>
  <anchor x="320" y="-240" name="bottom"/>
  <anchor x="303" y="536" name="top"/>
  <outline>
    <contour>
      <point x="280" y="-187" type="line"/>
      <point x="355" y="-187" type="line"/>
      <point x="355" y="40" type="line"/>
      <point x="280" y="40" type="line"/>
    </contour>
    <component base="uni04BD"/>
  </outline>
</glyph>
<glyph name="uni04C7" format="2">
  <advance width="500"/>
  <unicode hex="04C7"/>
  <anchor x="250" y="-240" name="bottom"/>
  <anchor x="250" y="714" name="top"/>
  <outline>
    <contour>
      <point x="275" y="-243" type="curve" smooth="yes"/>
      <point x="399" y="-243"/>
      <point x="455" y="-157"/>
      <point x="455" y="-25" type="curve" smooth="yes"/>
      <point x="455" y="714" type="line"/>
      <point x="371" y="714" type="line"/>
      <point x="371" y="408" type="line"/>
      <point x="129" y="408" type="line"/>
      <point x="129" y="714" type="line"/>
      <point x="45" y="714" type="line"/>
      <point x="45" y="0" type="line"/>
      <point x="129" y="0" type="line"/>
      <point x="129" y="330" type="line"/>
      <point x="371" y="330" type="line"/>
      <point x="371" y="-24" type="line" smooth="yes"/>
      <point x="371" y="-134"/>
      <point x="335" y="-167"/>
      <point x="268" y="-167" type="curve" smooth="yes"/>
      <point x="232" y="-167"/>
      <point x="208" y="-159"/>
      <point x="185" y="-148" type="curve"/>
      <point x="185" y="-226" type="line"/>
      <point x="211" y="-236"/>
      <point x="240" y="-243"/>
    </contour>
  </outline>
</glyph>
<glyph name="uni04C8" format="2">
  <advance width="500"/>
  <unicode hex="04C8"/>
  <anchor x="250" y="-240" name="bottom"/>
  <anchor x="250" y="536" name="top"/>
  <outline>
    <contour>
      <point x="238" y="-244" type="curve" smooth="yes"/>
      <point x="366" y="-244"/>
      <point x="440" y="-169"/>
      <point x="440" y="-14" type="curve" smooth="yes"/>
      <point x="440" y="537" type="line"/>
      <point x="360" y="537" type="line"/>
      <point x="360" y="314" type="line"/>
      <point x="141" y="314" type="line"/>
      <point x="141" y="537" type="line"/>
      <point x="61" y="537" type="line"/>
      <point x="61" y="0" type="line"/>
      <point x="141" y="0" type="line"/>
      <point x="141" y="244" type="line"/>
      <point x="360" y="244" type="line"/>
      <point x="360" y="-11" type="line" smooth="yes"/>
      <point x="360" y="-128"/>
      <point x="320" y="-171"/>
      <point x="243" y="-171" type="curve" smooth="yes"/>
      <point x="208" y="-171"/>
      <point x="178" y="-164"/>
      <point x="153" y="-152" type="curve"/>
      <point x="153" y="-227" type="line"/>
      <point x="172" y="-236"/>
      <point x="201" y="-244"/>
    </contour>
  </outline>
</glyph>
<glyph name="uni04CA" format="2">
  <advance width="500"/>
  <unicode hex="04CA"/>
  <anchor x="250" y="-183" name="bottom"/>
  <anchor x="250" y="536" name="top"/>
  <anchor x="480" y="0" name="bottomright"/>
  <outline>
    <contour>
      <point x="360" y="-187" type="line"/>
      <point x="442" y="-187" type="line"/>
      <point x="500" y="67" type="line"/>
      <point x="404" y="67" type="line"/>
      <point x="386" y="0" type="line"/>
      <point x="416" y="0" type="line"/>
    </contour>
    <component base="afii10079"/>
  </outline>
</glyph>
<glyph name="uni04CE" format="2">
  <advance width="500"/>
  <unicode hex="04CE"/>
  <anchor x="250" y="-240" name="bottom"/>
  <anchor x="250" y="536" name="top"/>
  <outline>
    <contour>
      <point x="373" y="-187" type="line"/>
      <point x="455" y="-187" type="line"/>
      <point x="513" y="67" type="line"/>
      <point x="417" y="67" type="line"/>
      <point x="411" y="0" type="line"/>
      <point x="429" y="0" type="line"/>
    </contour>
    <component base="afii10078"/>
  </outline>
</glyph>
